<?xml version="1.0" encoding="UTF-8" standalone="no"?>
<!DOCTYPE svg PUBLIC "-//W3C//DTD SVG 1.1//EN"
 "http://www.w3.org/Graphics/SVG/1.1/DTD/svg11.dtd">
<!-- Generated by graphviz version 2.40.1 (0)
 -->
<!-- Title: %3 Pages: 1 -->
<svg width="380pt" height="1071pt"
 viewBox="0.00 0.00 380.13 1071.00" xmlns="http://www.w3.org/2000/svg" xmlns:xlink="http://www.w3.org/1999/xlink">
<g id="graph0" class="graph" transform="scale(1 1) rotate(0) translate(4 1067)">
<title>%3</title>
<polygon fill="#ffffff" stroke="transparent" points="-4,4 -4,-1067 376.1299,-1067 376.1299,4 -4,4"/>
<g id="clust1" class="cluster">
<title>cluster_cmd</title>
<polygon fill="none" stroke="#000000" points="92.341,-8 92.341,-1055 250.1299,-1055 250.1299,-8 92.341,-8"/>
<text text-anchor="middle" x="171.2355" y="-1039.8" font-family="Times,serif" font-size="14.00" fill="#000000">diagram generators</text>
</g>
<!-- dot -->
<g id="node1" class="node">
<title>dot</title>
<ellipse fill="none" stroke="#000000" cx="170.7355" cy="-1006" rx="27" ry="18"/>
<text text-anchor="middle" x="170.7355" y="-1002.3" font-family="Times,serif" font-size="14.00" fill="#000000">dot</text>
</g>
<!-- GraphViz -->
<g id="node21" class="node">
<title>GraphViz</title>
<polygon fill="none" stroke="#000000" points="366.6299,-835 283.6299,-835 283.6299,-799 366.6299,-799 366.6299,-835"/>
<text text-anchor="middle" x="325.1299" y="-813.3" font-family="Times,serif" font-size="14.00" fill="#000000">GraphViz</text>
</g>
<!-- dot&#45;&gt;GraphViz -->
<g id="edge20" class="edge">
<title>dot&#45;&gt;GraphViz</title>
<path fill="none" stroke="#000000" d="M197.3856,-1002.4155C214.237,-998.9335 235.5167,-992.1438 250.1299,-979 290.293,-942.8755 310.5325,-880.8471 319.3607,-844.9328"/>
<polygon fill="#000000" stroke="#000000" points="322.7887,-845.6441 321.6497,-835.1107 315.9713,-844.0553 322.7887,-845.6441"/>
</g>
<!-- neato -->
<g id="node2" class="node">
<title>neato</title>
<ellipse fill="none" stroke="#000000" cx="170.7355" cy="-952" rx="36.2938" ry="18"/>
<text text-anchor="middle" x="170.7355" y="-948.3" font-family="Times,serif" font-size="14.00" fill="#000000">neato</text>
</g>
<!-- neato&#45;&gt;GraphViz -->
<g id="edge21" class="edge">
<title>neato&#45;&gt;GraphViz</title>
<path fill="none" stroke="#000000" d="M205.08,-945.4063C219.9825,-941.3223 236.9914,-934.9013 250.1299,-925 278.2947,-903.7748 299.78,-868.8348 312.3903,-844.4634"/>
<polygon fill="#000000" stroke="#000000" points="315.5938,-845.8828 316.9378,-835.3735 309.3335,-842.7508 315.5938,-845.8828"/>
</g>
<!-- twopi -->
<g id="node3" class="node">
<title>twopi</title>
<ellipse fill="none" stroke="#000000" cx="170.7355" cy="-898" rx="36.2938" ry="18"/>
<text text-anchor="middle" x="170.7355" y="-894.3" font-family="Times,serif" font-size="14.00" fill="#000000">twopi</text>
</g>
<!-- twopi&#45;&gt;GraphViz -->
<g id="edge22" class="edge">
<title>twopi&#45;&gt;GraphViz</title>
<path fill="none" stroke="#000000" d="M202.9155,-889.4314C217.7146,-884.8984 235.2476,-878.6708 250.1299,-871 265.9237,-862.8595 282.0879,-851.6568 295.3467,-841.5647"/>
<polygon fill="#000000" stroke="#000000" points="297.8646,-844.0402 303.6069,-835.1364 293.5654,-838.5159 297.8646,-844.0402"/>
</g>
<!-- circo -->
<g id="node4" class="node">
<title>circo</title>
<ellipse fill="none" stroke="#000000" cx="170.7355" cy="-844" rx="34.394" ry="18"/>
<text text-anchor="middle" x="170.7355" y="-840.3" font-family="Times,serif" font-size="14.00" fill="#000000">circo</text>
</g>
<!-- circo&#45;&gt;GraphViz -->
<g id="edge23" class="edge">
<title>circo&#45;&gt;GraphViz</title>
<path fill="none" stroke="#000000" d="M203.4786,-838.274C223.8349,-834.7141 250.4471,-830.0603 273.5887,-826.0134"/>
<polygon fill="#000000" stroke="#000000" points="274.3552,-829.4325 283.6028,-824.2621 273.1493,-822.5372 274.3552,-829.4325"/>
</g>
<!-- fdp -->
<g id="node5" class="node">
<title>fdp</title>
<ellipse fill="none" stroke="#000000" cx="170.7355" cy="-790" rx="27" ry="18"/>
<text text-anchor="middle" x="170.7355" y="-786.3" font-family="Times,serif" font-size="14.00" fill="#000000">fdp</text>
</g>
<!-- fdp&#45;&gt;GraphViz -->
<g id="edge24" class="edge">
<title>fdp&#45;&gt;GraphViz</title>
<path fill="none" stroke="#000000" d="M196.9264,-794.5802C217.8132,-798.2328 247.7169,-803.4623 273.3903,-807.9519"/>
<polygon fill="#000000" stroke="#000000" points="272.9062,-811.4203 283.3597,-809.6954 274.1121,-804.525 272.9062,-811.4203"/>
</g>
<!-- sfdp -->
<g id="node6" class="node">
<title>sfdp</title>
<ellipse fill="none" stroke="#000000" cx="170.7355" cy="-736" rx="30.5947" ry="18"/>
<text text-anchor="middle" x="170.7355" y="-732.3" font-family="Times,serif" font-size="14.00" fill="#000000">sfdp</text>
</g>
<!-- sfdp&#45;&gt;GraphViz -->
<g id="edge25" class="edge">
<title>sfdp&#45;&gt;GraphViz</title>
<path fill="none" stroke="#000000" d="M198.7485,-743.3145C214.3361,-747.9235 233.8241,-754.5955 250.1299,-763 265.9237,-771.1405 282.0879,-782.3432 295.3467,-792.4353"/>
<polygon fill="#000000" stroke="#000000" points="293.5654,-795.4841 303.6069,-798.8636 297.8646,-789.9598 293.5654,-795.4841"/>
</g>
<!-- patchwork -->
<g id="node7" class="node">
<title>patchwork</title>
<ellipse fill="none" stroke="#000000" cx="170.7355" cy="-682" rx="60.3893" ry="18"/>
<text text-anchor="middle" x="170.7355" y="-678.3" font-family="Times,serif" font-size="14.00" fill="#000000">patchwork</text>
</g>
<!-- patchwork&#45;&gt;GraphViz -->
<g id="edge26" class="edge">
<title>patchwork&#45;&gt;GraphViz</title>
<path fill="none" stroke="#000000" d="M218.9411,-692.946C229.8676,-696.8567 240.9446,-702.0778 250.1299,-709 278.2947,-730.2252 299.78,-765.1652 312.3903,-789.5366"/>
<polygon fill="#000000" stroke="#000000" points="309.3335,-791.2492 316.9378,-798.6265 315.5938,-788.1172 309.3335,-791.2492"/>
</g>
<!-- osage -->
<g id="node8" class="node">
<title>osage</title>
<ellipse fill="none" stroke="#000000" cx="170.7355" cy="-628" rx="37.8943" ry="18"/>
<text text-anchor="middle" x="170.7355" y="-624.3" font-family="Times,serif" font-size="14.00" fill="#000000">osage</text>
</g>
<!-- osage&#45;&gt;GraphViz -->
<g id="edge27" class="edge">
<title>osage&#45;&gt;GraphViz</title>
<path fill="none" stroke="#000000" d="M206.7305,-633.7723C221.5924,-637.6814 238.1146,-644.1929 250.1299,-655 290.293,-691.1245 310.5325,-753.1529 319.3607,-789.0672"/>
<polygon fill="#000000" stroke="#000000" points="315.9713,-789.9447 321.6497,-798.8893 322.7887,-788.3559 315.9713,-789.9447"/>
</g>
<!-- uml -->
<g id="node9" class="node">
<title>uml</title>
<ellipse fill="none" stroke="#000000" cx="170.7355" cy="-574" rx="28.6953" ry="18"/>
<text text-anchor="middle" x="170.7355" y="-570.3" font-family="Times,serif" font-size="14.00" fill="#000000">uml</text>
</g>
<!-- PlantUML -->
<g id="node22" class="node">
<title>PlantUML</title>
<polygon fill="none" stroke="#000000" points="370.1299,-592 280.1299,-592 280.1299,-556 370.1299,-556 370.1299,-592"/>
<text text-anchor="middle" x="325.1299" y="-570.3" font-family="Times,serif" font-size="14.00" fill="#000000">PlantUML</text>
</g>
<!-- uml&#45;&gt;PlantUML -->
<g id="edge28" class="edge">
<title>uml&#45;&gt;PlantUML</title>
<path fill="none" stroke="#000000" d="M199.414,-574C219.1772,-574 246.075,-574 269.9196,-574"/>
<polygon fill="#000000" stroke="#000000" points="269.9221,-577.5001 279.922,-574 269.922,-570.5001 269.9221,-577.5001"/>
</g>
<!-- ditaa -->
<g id="node10" class="node">
<title>ditaa</title>
<ellipse fill="none" stroke="#000000" cx="170.7355" cy="-520" rx="34.394" ry="18"/>
<text text-anchor="middle" x="170.7355" y="-516.3" font-family="Times,serif" font-size="14.00" fill="#000000">ditaa</text>
</g>
<!-- DITAA -->
<g id="node23" class="node">
<title>DITAA</title>
<polygon fill="none" stroke="#000000" points="352.1299,-538 298.1299,-538 298.1299,-502 352.1299,-502 352.1299,-538"/>
<text text-anchor="middle" x="325.1299" y="-516.3" font-family="Times,serif" font-size="14.00" fill="#000000">ditaa</text>
</g>
<!-- ditaa&#45;&gt;DITAA -->
<g id="edge29" class="edge">
<title>ditaa&#45;&gt;DITAA</title>
<path fill="none" stroke="#000000" d="M205.3846,-520C229.8119,-520 262.5049,-520 287.5584,-520"/>
<polygon fill="#000000" stroke="#000000" points="287.7816,-523.5001 297.7815,-520 287.7815,-516.5001 287.7816,-523.5001"/>
</g>
<!-- blockdiag -->
<g id="node11" class="node">
<title>blockdiag</title>
<ellipse fill="none" stroke="#000000" cx="170.7355" cy="-466" rx="55.7903" ry="18"/>
<text text-anchor="middle" x="170.7355" y="-462.3" font-family="Times,serif" font-size="14.00" fill="#000000">blockdiag</text>
</g>
<!-- BlockDiag -->
<g id="node24" class="node">
<title>BlockDiag</title>
<polygon fill="none" stroke="#000000" points="368.1299,-349 282.1299,-349 282.1299,-313 368.1299,-313 368.1299,-349"/>
<text text-anchor="middle" x="325.1299" y="-327.3" font-family="Times,serif" font-size="14.00" fill="#000000">blockdiag</text>
</g>
<!-- blockdiag&#45;&gt;BlockDiag -->
<g id="edge30" class="edge">
<title>blockdiag&#45;&gt;BlockDiag</title>
<path fill="none" stroke="#000000" d="M216.8688,-455.7809C228.4578,-451.7974 240.3632,-446.3603 250.1299,-439 278.2947,-417.7748 299.78,-382.8348 312.3903,-358.4634"/>
<polygon fill="#000000" stroke="#000000" points="315.5938,-359.8828 316.9378,-349.3735 309.3335,-356.7508 315.5938,-359.8828"/>
</g>
<!-- seqdiag -->
<g id="node12" class="node">
<title>seqdiag</title>
<ellipse fill="none" stroke="#000000" cx="170.7355" cy="-412" rx="46.5926" ry="18"/>
<text text-anchor="middle" x="170.7355" y="-408.3" font-family="Times,serif" font-size="14.00" fill="#000000">seqdiag</text>
</g>
<!-- seqdiag&#45;&gt;BlockDiag -->
<g id="edge31" class="edge">
<title>seqdiag&#45;&gt;BlockDiag</title>
<path fill="none" stroke="#000000" d="M209.2367,-401.4416C222.542,-397.1375 237.3182,-391.6035 250.1299,-385 265.9237,-376.8595 282.0879,-365.6568 295.3467,-355.5647"/>
<polygon fill="#000000" stroke="#000000" points="297.8646,-358.0402 303.6069,-349.1364 293.5654,-352.5159 297.8646,-358.0402"/>
</g>
<!-- actdiag -->
<g id="node13" class="node">
<title>actdiag</title>
<ellipse fill="none" stroke="#000000" cx="170.7355" cy="-358" rx="45.4919" ry="18"/>
<text text-anchor="middle" x="170.7355" y="-354.3" font-family="Times,serif" font-size="14.00" fill="#000000">actdiag</text>
</g>
<!-- actdiag&#45;&gt;BlockDiag -->
<g id="edge32" class="edge">
<title>actdiag&#45;&gt;BlockDiag</title>
<path fill="none" stroke="#000000" d="M212.5168,-350.6934C230.8448,-347.4883 252.573,-343.6885 272.031,-340.2858"/>
<polygon fill="#000000" stroke="#000000" points="272.7218,-343.7182 281.9693,-338.5478 271.5159,-336.8228 272.7218,-343.7182"/>
</g>
<!-- nwdiag -->
<g id="node14" class="node">
<title>nwdiag</title>
<ellipse fill="none" stroke="#000000" cx="170.7355" cy="-304" rx="44.393" ry="18"/>
<text text-anchor="middle" x="170.7355" y="-300.3" font-family="Times,serif" font-size="14.00" fill="#000000">nwdiag</text>
</g>
<!-- nwdiag&#45;&gt;BlockDiag -->
<g id="edge33" class="edge">
<title>nwdiag&#45;&gt;BlockDiag</title>
<path fill="none" stroke="#000000" d="M211.705,-311.1646C230.1913,-314.3974 252.2622,-318.2571 272.0005,-321.7089"/>
<polygon fill="#000000" stroke="#000000" points="271.6249,-325.1963 282.0784,-323.4713 272.8308,-318.3009 271.6249,-325.1963"/>
</g>
<!-- rackdiag -->
<g id="node15" class="node">
<title>rackdiag</title>
<ellipse fill="none" stroke="#000000" cx="170.7355" cy="-250" rx="51.9908" ry="18"/>
<text text-anchor="middle" x="170.7355" y="-246.3" font-family="Times,serif" font-size="14.00" fill="#000000">rackdiag</text>
</g>
<!-- rackdiag&#45;&gt;BlockDiag -->
<g id="edge34" class="edge">
<title>rackdiag&#45;&gt;BlockDiag</title>
<path fill="none" stroke="#000000" d="M211.6713,-261.3544C224.3258,-265.5372 238.0947,-270.7967 250.1299,-277 265.9237,-285.1405 282.0879,-296.3432 295.3467,-306.4353"/>
<polygon fill="#000000" stroke="#000000" points="293.5654,-309.4841 303.6069,-312.8636 297.8646,-303.9598 293.5654,-309.4841"/>
</g>
<!-- packetdiag -->
<g id="node16" class="node">
<title>packetdiag</title>
<ellipse fill="none" stroke="#000000" cx="170.7355" cy="-196" rx="62.2891" ry="18"/>
<text text-anchor="middle" x="170.7355" y="-192.3" font-family="Times,serif" font-size="14.00" fill="#000000">packetdiag</text>
</g>
<!-- packetdiag&#45;&gt;BlockDiag -->
<g id="edge35" class="edge">
<title>packetdiag&#45;&gt;BlockDiag</title>
<path fill="none" stroke="#000000" d="M219.7712,-207.2456C230.4272,-211.1222 241.1771,-216.2531 250.1299,-223 278.2947,-244.2252 299.78,-279.1652 312.3903,-303.5366"/>
<polygon fill="#000000" stroke="#000000" points="309.3335,-305.2492 316.9378,-312.6265 315.5938,-302.1172 309.3335,-305.2492"/>
</g>
<!-- mermaid -->
<g id="node17" class="node">
<title>mermaid</title>
<ellipse fill="none" stroke="#000000" cx="170.7355" cy="-142" rx="51.9908" ry="18"/>
<text text-anchor="middle" x="170.7355" y="-138.3" font-family="Times,serif" font-size="14.00" fill="#000000">mermaid</text>
</g>
<!-- Mermaid -->
<g id="node27" class="node">
<title>Mermaid</title>
<polygon fill="none" stroke="#000000" points="355.6299,-160 294.6299,-160 294.6299,-124 355.6299,-124 355.6299,-160"/>
<text text-anchor="middle" x="325.1299" y="-138.3" font-family="Times,serif" font-size="14.00" fill="#000000">mmdc</text>
</g>
<!-- mermaid&#45;&gt;Mermaid -->
<g id="edge36" class="edge">
<title>mermaid&#45;&gt;Mermaid</title>
<path fill="none" stroke="#000000" d="M223.0064,-142C243.0836,-142 265.6807,-142 284.5047,-142"/>
<polygon fill="#000000" stroke="#000000" points="284.5343,-145.5001 294.5343,-142 284.5343,-138.5001 284.5343,-145.5001"/>
</g>
<!-- asy -->
<g id="node18" class="node">
<title>asy</title>
<ellipse fill="none" stroke="#000000" cx="170.7355" cy="-88" rx="27" ry="18"/>
<text text-anchor="middle" x="170.7355" y="-84.3" font-family="Times,serif" font-size="14.00" fill="#000000">asy</text>
</g>
<!-- Asymptote -->
<g id="node25" class="node">
<title>Asymptote</title>
<polygon fill="none" stroke="#000000" points="372.1299,-106 278.1299,-106 278.1299,-70 372.1299,-70 372.1299,-106"/>
<text text-anchor="middle" x="325.1299" y="-84.3" font-family="Times,serif" font-size="14.00" fill="#000000">Asymptote</text>
</g>
<!-- asy&#45;&gt;Asymptote -->
<g id="edge37" class="edge">
<title>asy&#45;&gt;Asymptote</title>
<path fill="none" stroke="#000000" d="M197.9827,-88C217.2985,-88 243.926,-88 267.8242,-88"/>
<polygon fill="#000000" stroke="#000000" points="267.8699,-91.5001 277.8698,-88 267.8698,-84.5001 267.8699,-91.5001"/>
</g>
<!-- Rplot -->
<g id="node19" class="node">
<title>Rplot</title>
<ellipse fill="none" stroke="#000000" cx="170.7355" cy="-34" rx="35.9954" ry="18"/>
<text text-anchor="middle" x="170.7355" y="-30.3" font-family="Times,serif" font-size="14.00" fill="#000000">Rplot</text>
</g>
<!-- Rscript -->
<g id="node26" class="node">
<title>Rscript</title>
<polygon fill="none" stroke="#000000" points="359.6299,-52 290.6299,-52 290.6299,-16 359.6299,-16 359.6299,-52"/>
<text text-anchor="middle" x="325.1299" y="-30.3" font-family="Times,serif" font-size="14.00" fill="#000000">Rscript</text>
</g>
<!-- Rplot&#45;&gt;Rscript -->
<g id="edge38" class="edge">
<title>Rplot&#45;&gt;Rscript</title>
<path fill="none" stroke="#000000" d="M206.5447,-34C228.5826,-34 257.0096,-34 280.5063,-34"/>
<polygon fill="#000000" stroke="#000000" points="280.577,-37.5001 290.5769,-34 280.5769,-30.5001 280.577,-37.5001"/>
</g>
<!-- PP -->
<g id="node20" class="node">
<title>PP</title>
<polygon fill="none" stroke="#000000" points="32.1705,-538 -.1714,-520 32.1705,-502 64.5124,-520 32.1705,-538"/>
<text text-anchor="middle" x="32.1705" y="-516.3" font-family="Times,serif" font-size="14.00" fill="#000000">pp</text>
</g>
<!-- PP&#45;&gt;dot -->
<g id="edge1" class="edge">
<title>PP&#45;&gt;dot</title>
<path fill="none" stroke="#000000" d="M33.3835,-537.5513C39.0464,-617.4091 63.8124,-944.0603 92.341,-979 102.475,-991.4114 118.6178,-998.1342 133.6279,-1001.7688"/>
<polygon fill="#000000" stroke="#000000" points="133.2544,-1005.2643 143.7508,-1003.8237 134.6469,-998.4042 133.2544,-1005.2643"/>
</g>
<!-- PP&#45;&gt;neato -->
<g id="edge2" class="edge">
<title>PP&#45;&gt;neato</title>
<path fill="none" stroke="#000000" d="M32.4409,-538.2066C33.8491,-608.9825 42.3698,-864.8587 92.341,-925 100.6887,-935.0466 112.9683,-941.3633 125.3434,-945.332"/>
<polygon fill="#000000" stroke="#000000" points="124.6458,-948.7698 135.2153,-948.0379 126.4963,-942.0188 124.6458,-948.7698"/>
</g>
<!-- PP&#45;&gt;twopi -->
<g id="edge3" class="edge">
<title>PP&#45;&gt;twopi</title>
<path fill="none" stroke="#000000" d="M32.8894,-537.952C35.8109,-602.2259 48.7983,-819.7678 92.341,-871 100.7266,-880.8664 112.8983,-887.1328 125.16,-891.1108"/>
<polygon fill="#000000" stroke="#000000" points="124.37,-894.5239 134.9424,-893.8356 126.2483,-887.7806 124.37,-894.5239"/>
</g>
<!-- PP&#45;&gt;circo -->
<g id="edge4" class="edge">
<title>PP&#45;&gt;circo</title>
<path fill="none" stroke="#000000" d="M33.4701,-537.5387C38.0419,-594.7285 55.157,-774.5613 92.341,-817 101.261,-827.1806 114.2049,-833.5251 127.0132,-837.478"/>
<polygon fill="#000000" stroke="#000000" points="126.1488,-840.8697 136.7125,-840.0585 127.9486,-834.105 126.1488,-840.8697"/>
</g>
<!-- PP&#45;&gt;fdp -->
<g id="edge5" class="edge">
<title>PP&#45;&gt;fdp</title>
<path fill="none" stroke="#000000" d="M34.2711,-537.1015C40.6833,-586.705 61.4658,-729.2484 92.341,-763 103.0772,-774.7363 119.151,-781.3714 133.9542,-785.1224"/>
<polygon fill="#000000" stroke="#000000" points="133.4035,-788.5843 143.9184,-787.2857 134.8887,-781.7436 133.4035,-788.5843"/>
</g>
<!-- PP&#45;&gt;sfdp -->
<g id="edge6" class="edge">
<title>PP&#45;&gt;sfdp</title>
<path fill="none" stroke="#000000" d="M35.4466,-536.5082C43.9298,-577.7434 67.6775,-683.7507 92.341,-709 102.6203,-719.5234 117.1856,-725.9477 130.9769,-729.8685"/>
<polygon fill="#000000" stroke="#000000" points="130.2617,-733.2971 140.8099,-732.3039 131.9446,-726.5024 130.2617,-733.2971"/>
</g>
<!-- PP&#45;&gt;patchwork -->
<g id="edge7" class="edge">
<title>PP&#45;&gt;patchwork</title>
<path fill="none" stroke="#000000" d="M35.1218,-536.6179C40.9929,-564.8826 56.7687,-622.4146 92.341,-655 97.8871,-660.0804 104.4349,-664.2117 111.3446,-667.5697"/>
<polygon fill="#000000" stroke="#000000" points="110.3614,-670.9565 120.9311,-671.686 113.1233,-664.5244 110.3614,-670.9565"/>
</g>
<!-- PP&#45;&gt;osage -->
<g id="edge8" class="edge">
<title>PP&#45;&gt;osage</title>
<path fill="none" stroke="#000000" d="M39.3318,-534.3781C49.004,-552.4029 67.8849,-583.1016 92.341,-601 102.3236,-608.3059 114.4384,-613.7493 126.1287,-617.7574"/>
<polygon fill="#000000" stroke="#000000" points="125.2033,-621.1353 135.7927,-620.796 127.303,-614.4576 125.2033,-621.1353"/>
</g>
<!-- PP&#45;&gt;uml -->
<g id="edge9" class="edge">
<title>PP&#45;&gt;uml</title>
<path fill="none" stroke="#000000" d="M49.6327,-528.3377C61.5481,-533.9024 77.7549,-541.2292 92.341,-547 106.3432,-552.5398 121.9922,-558.0606 135.604,-562.6528"/>
<polygon fill="#000000" stroke="#000000" points="134.5091,-565.9771 145.1028,-565.8196 136.7231,-559.3365 134.5091,-565.9771"/>
</g>
<!-- PP&#45;&gt;ditaa -->
<g id="edge10" class="edge">
<title>PP&#45;&gt;ditaa</title>
<path fill="none" stroke="#000000" d="M64.6578,-520C82.9134,-520 105.9704,-520 125.9214,-520"/>
<polygon fill="#000000" stroke="#000000" points="126.0295,-523.5001 136.0295,-520 126.0295,-516.5001 126.0295,-523.5001"/>
</g>
<!-- PP&#45;&gt;blockdiag -->
<g id="edge11" class="edge">
<title>PP&#45;&gt;blockdiag</title>
<path fill="none" stroke="#000000" d="M49.6327,-511.6623C61.5481,-506.0976 77.7549,-498.7708 92.341,-493 101.6772,-489.3062 111.7455,-485.621 121.4539,-482.2137"/>
<polygon fill="#000000" stroke="#000000" points="122.6966,-485.4874 131.0019,-478.9092 120.4071,-478.8724 122.6966,-485.4874"/>
</g>
<!-- PP&#45;&gt;seqdiag -->
<g id="edge12" class="edge">
<title>PP&#45;&gt;seqdiag</title>
<path fill="none" stroke="#000000" d="M39.3318,-505.6219C49.004,-487.5971 67.8849,-456.8984 92.341,-439 100.6175,-432.9428 110.3596,-428.1658 120.1103,-424.4255"/>
<polygon fill="#000000" stroke="#000000" points="121.533,-427.6356 129.81,-421.0219 119.2152,-421.0305 121.533,-427.6356"/>
</g>
<!-- PP&#45;&gt;actdiag -->
<g id="edge13" class="edge">
<title>PP&#45;&gt;actdiag</title>
<path fill="none" stroke="#000000" d="M35.1218,-503.3821C40.9929,-475.1174 56.7687,-417.5854 92.341,-385 100.0631,-377.9263 109.7272,-372.6926 119.606,-368.8243"/>
<polygon fill="#000000" stroke="#000000" points="120.7968,-372.1158 129.0868,-365.5184 118.492,-365.5061 120.7968,-372.1158"/>
</g>
<!-- PP&#45;&gt;nwdiag -->
<g id="edge14" class="edge">
<title>PP&#45;&gt;nwdiag</title>
<path fill="none" stroke="#000000" d="M35.4466,-503.4918C43.9298,-462.2566 67.6775,-356.2493 92.341,-331 99.811,-323.3526 109.5444,-317.8699 119.5994,-313.9397"/>
<polygon fill="#000000" stroke="#000000" points="120.9477,-317.1776 129.2748,-310.6271 118.6802,-310.5549 120.9477,-317.1776"/>
</g>
<!-- PP&#45;&gt;rackdiag -->
<g id="edge15" class="edge">
<title>PP&#45;&gt;rackdiag</title>
<path fill="none" stroke="#000000" d="M34.2711,-502.8985C40.6833,-453.295 61.4658,-310.7516 92.341,-277 98.3414,-270.4406 106.009,-265.4747 114.1903,-261.7152"/>
<polygon fill="#000000" stroke="#000000" points="115.5961,-264.9226 123.584,-257.9625 112.9992,-258.4221 115.5961,-264.9226"/>
</g>
<!-- PP&#45;&gt;packetdiag -->
<g id="edge16" class="edge">
<title>PP&#45;&gt;packetdiag</title>
<path fill="none" stroke="#000000" d="M33.4701,-502.4613C38.0419,-445.2715 55.157,-265.4387 92.341,-223 96.93,-217.7625 102.5839,-213.5403 108.7365,-210.1368"/>
<polygon fill="#000000" stroke="#000000" points="110.5131,-213.1676 118.0416,-205.7129 107.5075,-206.8457 110.5131,-213.1676"/>
</g>
<!-- PP&#45;&gt;mermaid -->
<g id="edge17" class="edge">
<title>PP&#45;&gt;mermaid</title>
<path fill="none" stroke="#000000" d="M32.8894,-502.048C35.8109,-437.7741 48.7983,-220.2322 92.341,-169 98.0982,-162.2261 105.64,-157.1492 113.7703,-153.3447"/>
<polygon fill="#000000" stroke="#000000" points="115.171,-156.5538 123.136,-149.5674 112.5527,-150.0619 115.171,-156.5538"/>
</g>
<!-- PP&#45;&gt;asy -->
<g id="edge18" class="edge">
<title>PP&#45;&gt;asy</title>
<path fill="none" stroke="#000000" d="M32.4409,-501.7934C33.8491,-431.0175 42.3698,-175.1413 92.341,-115 102.5811,-102.6759 118.7376,-95.9645 133.7295,-92.3148"/>
<polygon fill="#000000" stroke="#000000" points="134.7405,-95.6805 143.8354,-90.246 133.3366,-88.8228 134.7405,-95.6805"/>
</g>
<!-- PP&#45;&gt;Rplot -->
<g id="edge19" class="edge">
<title>PP&#45;&gt;Rplot</title>
<path fill="none" stroke="#000000" d="M33.3835,-502.4487C39.0464,-422.5909 63.8124,-95.9397 92.341,-61 100.6741,-50.7942 113.0701,-44.4349 125.5584,-40.4761"/>
<polygon fill="#000000" stroke="#000000" points="126.775,-43.773 135.5176,-37.7882 124.951,-37.0148 126.775,-43.773"/>
</g>
</g>
</svg>
