<?xml version="1.0" encoding="UTF-8" standalone="no"?>
<!DOCTYPE svg PUBLIC "-//W3C//DTD SVG 1.1//EN"
 "http://www.w3.org/Graphics/SVG/1.1/DTD/svg11.dtd">
<!-- Generated by graphviz version 2.44.0 (0)
 -->
<!-- Pages: 1 -->
<svg width="242pt" height="169pt"
 viewBox="0.00 0.00 242.00 168.71" xmlns="http://www.w3.org/2000/svg" xmlns:xlink="http://www.w3.org/1999/xlink">
<g id="graph0" class="graph" transform="scale(1 1) rotate(0) translate(4 164.71)">
<polygon fill="white" stroke="transparent" points="-4,4 -4,-164.71 238,-164.71 238,4 -4,4"/>
<!-- O -->
<g id="node1" class="node">
<title>O</title>
<ellipse fill="none" stroke="black" cx="99" cy="-80.35" rx="27" ry="18"/>
<text text-anchor="middle" x="99" y="-76.65" font-family="Times-Roman" font-size="14.00">O</text>
</g>
<!-- A -->
<g id="node2" class="node">
<title>A</title>
<ellipse fill="none" stroke="black" cx="171" cy="-80.35" rx="27" ry="18"/>
<text text-anchor="middle" x="171" y="-76.65" font-family="Times-Roman" font-size="14.00">A</text>
</g>
<!-- O&#45;&gt;A -->
<g id="edge1" class="edge">
<title>O&#45;&gt;A</title>
<path fill="none" stroke="black" d="M126.22,-80.35C128.64,-80.35 131.11,-80.35 133.6,-80.35"/>
<polygon fill="black" stroke="black" points="133.74,-83.85 143.74,-80.35 133.74,-76.85 133.74,-83.85"/>
</g>
<!-- B -->
<g id="node3" class="node">
<title>B</title>
<ellipse fill="none" stroke="black" cx="207" cy="-142.71" rx="27" ry="18"/>
<text text-anchor="middle" x="207" y="-139.01" font-family="Times-Roman" font-size="14.00">B</text>
</g>
<!-- O&#45;&gt;B -->
<g id="edge2" class="edge">
<title>O&#45;&gt;B</title>
<path fill="none" stroke="black" d="M119.57,-92.23C136.01,-101.72 159.26,-115.15 177.66,-125.77"/>
<polygon fill="black" stroke="black" points="176.1,-128.91 186.51,-130.88 179.6,-122.85 176.1,-128.91"/>
</g>
<!-- C -->
<g id="node4" class="node">
<title>C</title>
<ellipse fill="none" stroke="black" cx="207" cy="-18" rx="27" ry="18"/>
<text text-anchor="middle" x="207" y="-14.3" font-family="Times-Roman" font-size="14.00">C</text>
</g>
<!-- O&#45;&gt;C -->
<g id="edge3" class="edge">
<title>O&#45;&gt;C</title>
<path fill="none" stroke="black" d="M119.57,-68.48C136.01,-58.99 159.26,-45.56 177.66,-34.94"/>
<polygon fill="black" stroke="black" points="179.6,-37.86 186.51,-29.83 176.1,-31.8 179.6,-37.86"/>
</g>
<!-- D -->
<g id="node5" class="node">
<title>D</title>
<ellipse fill="none" stroke="black" cx="27" cy="-80.35" rx="27" ry="18"/>
<text text-anchor="middle" x="27" y="-76.65" font-family="Times-Roman" font-size="14.00">D</text>
</g>
<!-- O&#45;&gt;D -->
<g id="edge4" class="edge">
<title>O&#45;&gt;D</title>
<path fill="none" stroke="black" d="M73.41,-73.86C69.91,-73.68 66.27,-73.6 62.63,-73.6"/>
<polygon fill="black" stroke="black" points="62.41,-70.11 52.5,-73.87 62.59,-77.11 62.41,-70.11"/>
</g>
<!-- A&#45;&gt;B -->
<g id="edge6" class="edge">
<title>A&#45;&gt;B</title>
<path fill="none" stroke="black" d="M180.84,-97.39C184.33,-103.44 188.34,-110.39 192.16,-117"/>
<polygon fill="black" stroke="black" points="189.14,-118.78 197.17,-125.69 195.21,-115.28 189.14,-118.78"/>
</g>
<!-- B&#45;&gt;C -->
<g id="edge7" class="edge">
<title>B&#45;&gt;C</title>
<path fill="none" stroke="black" d="M207,-124.57C207,-104.07 207,-70.42 207,-46.42"/>
<polygon fill="black" stroke="black" points="210.5,-46.16 207,-36.16 203.5,-46.16 210.5,-46.16"/>
</g>
<!-- C&#45;&gt;A -->
<g id="edge8" class="edge">
<title>C&#45;&gt;A</title>
<path fill="none" stroke="black" d="M197.16,-35.04C193.67,-41.09 189.66,-48.04 185.84,-54.65"/>
<polygon fill="black" stroke="black" points="182.79,-52.93 180.83,-63.34 188.86,-56.43 182.79,-52.93"/>
</g>
<!-- D&#45;&gt;O -->
<g id="edge5" class="edge">
<title>D&#45;&gt;O</title>
<path fill="none" stroke="black" d="M52.59,-86.85C56.09,-87.02 59.73,-87.11 63.37,-87.1"/>
<polygon fill="black" stroke="black" points="63.59,-90.6 73.5,-86.84 63.41,-83.6 63.59,-90.6"/>
</g>
</g>
</svg>
