<?xml version="1.0" encoding="UTF-8" standalone="no"?>
<!DOCTYPE svg PUBLIC "-//W3C//DTD SVG 1.1//EN"
 "http://www.w3.org/Graphics/SVG/1.1/DTD/svg11.dtd">
<!-- Generated by graphviz version 5.0.0 (0)
 -->
<!-- Pages: 1 -->
<svg width="379pt" height="1017pt"
 viewBox="0.00 0.00 378.83 1017.00" xmlns="http://www.w3.org/2000/svg" xmlns:xlink="http://www.w3.org/1999/xlink">
<g id="graph0" class="graph" transform="scale(1 1) rotate(0) translate(4 1013)">
<polygon fill="white" stroke="transparent" points="-4,4 -4,-1013 374.83,-1013 374.83,4 -4,4"/>
<g id="clust1" class="cluster">
<title>cluster_cmd</title>
<polygon fill="none" stroke="black" points="92.34,-8 92.34,-1001 249.83,-1001 249.83,-8 92.34,-8"/>
<text text-anchor="middle" x="171.09" y="-985.8" font-family="Times,serif" font-size="14.00">diagram generators</text>
</g>
<!-- dot -->
<g id="node1" class="node">
<title>dot</title>
<ellipse fill="none" stroke="black" cx="171.09" cy="-952" rx="27" ry="18"/>
<text text-anchor="middle" x="171.09" y="-948.3" font-family="Times,serif" font-size="14.00">dot</text>
</g>
<!-- GraphViz -->
<g id="node20" class="node">
<title>GraphViz</title>
<polygon fill="none" stroke="black" points="365.83,-781 282.83,-781 282.83,-745 365.83,-745 365.83,-781"/>
<text text-anchor="middle" x="324.33" y="-759.3" font-family="Times,serif" font-size="14.00">GraphViz</text>
</g>
<!-- dot&#45;&gt;GraphViz -->
<g id="edge19" class="edge">
<title>dot&#45;&gt;GraphViz</title>
<path fill="none" stroke="black" d="M197.86,-948.4C214.43,-944.9 235.47,-938.1 249.83,-925 289.6,-888.72 309.28,-826.75 317.8,-790.89"/>
<polygon fill="black" stroke="black" points="321.23,-791.6 320,-781.08 314.4,-790.07 321.23,-791.6"/>
</g>
<!-- neato -->
<g id="node2" class="node">
<title>neato</title>
<ellipse fill="none" stroke="black" cx="171.09" cy="-898" rx="36.29" ry="18"/>
<text text-anchor="middle" x="171.09" y="-894.3" font-family="Times,serif" font-size="14.00">neato</text>
</g>
<!-- neato&#45;&gt;GraphViz -->
<g id="edge20" class="edge">
<title>neato&#45;&gt;GraphViz</title>
<path fill="none" stroke="black" d="M205.38,-891.44C220.07,-887.34 236.9,-880.91 249.83,-871 277.64,-849.69 298.66,-814.77 310.95,-790.42"/>
<polygon fill="black" stroke="black" points="314.14,-791.87 315.37,-781.34 307.84,-788.8 314.14,-791.87"/>
</g>
<!-- twopi -->
<g id="node3" class="node">
<title>twopi</title>
<ellipse fill="none" stroke="black" cx="171.09" cy="-844" rx="36.29" ry="18"/>
<text text-anchor="middle" x="171.09" y="-840.3" font-family="Times,serif" font-size="14.00">twopi</text>
</g>
<!-- twopi&#45;&gt;GraphViz -->
<g id="edge21" class="edge">
<title>twopi&#45;&gt;GraphViz</title>
<path fill="none" stroke="black" d="M203.25,-835.53C217.82,-830.98 235.16,-824.71 249.83,-817 265.35,-808.84 281.2,-797.64 294.18,-787.55"/>
<polygon fill="black" stroke="black" points="296.62,-790.08 302.27,-781.12 292.27,-784.6 296.62,-790.08"/>
</g>
<!-- circo -->
<g id="node4" class="node">
<title>circo</title>
<ellipse fill="none" stroke="black" cx="171.09" cy="-790" rx="33.29" ry="18"/>
<text text-anchor="middle" x="171.09" y="-786.3" font-family="Times,serif" font-size="14.00">circo</text>
</g>
<!-- circo&#45;&gt;GraphViz -->
<g id="edge22" class="edge">
<title>circo&#45;&gt;GraphViz</title>
<path fill="none" stroke="black" d="M202.69,-784.54C222.77,-780.95 249.5,-776.18 272.69,-772.04"/>
<polygon fill="black" stroke="black" points="273.5,-775.45 282.73,-770.25 272.27,-768.56 273.5,-775.45"/>
</g>
<!-- fdp -->
<g id="node5" class="node">
<title>fdp</title>
<ellipse fill="none" stroke="black" cx="171.09" cy="-736" rx="27" ry="18"/>
<text text-anchor="middle" x="171.09" y="-732.3" font-family="Times,serif" font-size="14.00">fdp</text>
</g>
<!-- fdp&#45;&gt;GraphViz -->
<g id="edge23" class="edge">
<title>fdp&#45;&gt;GraphViz</title>
<path fill="none" stroke="black" d="M197.4,-740.52C217.87,-744.17 247.35,-749.44 272.64,-753.95"/>
<polygon fill="black" stroke="black" points="272.36,-757.46 282.82,-755.77 273.59,-750.56 272.36,-757.46"/>
</g>
<!-- sfdp -->
<g id="node6" class="node">
<title>sfdp</title>
<ellipse fill="none" stroke="black" cx="171.09" cy="-682" rx="30.59" ry="18"/>
<text text-anchor="middle" x="171.09" y="-678.3" font-family="Times,serif" font-size="14.00">sfdp</text>
</g>
<!-- sfdp&#45;&gt;GraphViz -->
<g id="edge24" class="edge">
<title>sfdp&#45;&gt;GraphViz</title>
<path fill="none" stroke="black" d="M199.18,-689.23C214.51,-693.85 233.77,-700.56 249.83,-709 265.35,-717.16 281.2,-728.36 294.18,-738.45"/>
<polygon fill="black" stroke="black" points="292.27,-741.4 302.27,-744.88 296.62,-735.92 292.27,-741.4"/>
</g>
<!-- patchwork -->
<g id="node7" class="node">
<title>patchwork</title>
<ellipse fill="none" stroke="black" cx="171.09" cy="-628" rx="59.59" ry="18"/>
<text text-anchor="middle" x="171.09" y="-624.3" font-family="Times,serif" font-size="14.00">patchwork</text>
</g>
<!-- patchwork&#45;&gt;GraphViz -->
<g id="edge25" class="edge">
<title>patchwork&#45;&gt;GraphViz</title>
<path fill="none" stroke="black" d="M218.93,-638.88C229.76,-642.8 240.76,-648.05 249.83,-655 277.64,-676.31 298.66,-711.23 310.95,-735.58"/>
<polygon fill="black" stroke="black" points="307.84,-737.2 315.37,-744.66 314.14,-734.13 307.84,-737.2"/>
</g>
<!-- osage -->
<g id="node8" class="node">
<title>osage</title>
<ellipse fill="none" stroke="black" cx="171.09" cy="-574" rx="37.89" ry="18"/>
<text text-anchor="middle" x="171.09" y="-570.3" font-family="Times,serif" font-size="14.00">osage</text>
</g>
<!-- osage&#45;&gt;GraphViz -->
<g id="edge26" class="edge">
<title>osage&#45;&gt;GraphViz</title>
<path fill="none" stroke="black" d="M206.99,-579.78C221.65,-583.7 238.01,-590.21 249.83,-601 289.6,-637.28 309.28,-699.25 317.8,-735.11"/>
<polygon fill="black" stroke="black" points="314.4,-735.93 320,-744.92 321.23,-734.4 314.4,-735.93"/>
</g>
<!-- uml -->
<g id="node9" class="node">
<title>uml</title>
<ellipse fill="none" stroke="black" cx="171.09" cy="-520" rx="28.7" ry="18"/>
<text text-anchor="middle" x="171.09" y="-516.3" font-family="Times,serif" font-size="14.00">uml</text>
</g>
<!-- PlantUML -->
<g id="node21" class="node">
<title>PlantUML</title>
<polygon fill="none" stroke="black" points="368.83,-538 279.83,-538 279.83,-502 368.83,-502 368.83,-538"/>
<text text-anchor="middle" x="324.33" y="-516.3" font-family="Times,serif" font-size="14.00">PlantUML</text>
</g>
<!-- uml&#45;&gt;PlantUML -->
<g id="edge27" class="edge">
<title>uml&#45;&gt;PlantUML</title>
<path fill="none" stroke="black" d="M199.83,-520C219.29,-520 245.94,-520 269.5,-520"/>
<polygon fill="black" stroke="black" points="269.73,-523.5 279.73,-520 269.73,-516.5 269.73,-523.5"/>
</g>
<!-- ditaa -->
<g id="node10" class="node">
<title>ditaa</title>
<ellipse fill="none" stroke="black" cx="171.09" cy="-466" rx="34.39" ry="18"/>
<text text-anchor="middle" x="171.09" y="-462.3" font-family="Times,serif" font-size="14.00">ditaa</text>
</g>
<!-- DITAA -->
<g id="node22" class="node">
<title>DITAA</title>
<polygon fill="none" stroke="black" points="351.33,-484 297.33,-484 297.33,-448 351.33,-448 351.33,-484"/>
<text text-anchor="middle" x="324.33" y="-462.3" font-family="Times,serif" font-size="14.00">ditaa</text>
</g>
<!-- ditaa&#45;&gt;DITAA -->
<g id="edge28" class="edge">
<title>ditaa&#45;&gt;DITAA</title>
<path fill="none" stroke="black" d="M205.65,-466C229.71,-466 262.11,-466 286.82,-466"/>
<polygon fill="black" stroke="black" points="286.89,-469.5 296.89,-466 286.89,-462.5 286.89,-469.5"/>
</g>
<!-- blockdiag -->
<g id="node11" class="node">
<title>blockdiag</title>
<ellipse fill="none" stroke="black" cx="171.09" cy="-412" rx="55.49" ry="18"/>
<text text-anchor="middle" x="171.09" y="-408.3" font-family="Times,serif" font-size="14.00">blockdiag</text>
</g>
<!-- BlockDiag -->
<g id="node23" class="node">
<title>BlockDiag</title>
<polygon fill="none" stroke="black" points="366.83,-295 281.83,-295 281.83,-259 366.83,-259 366.83,-295"/>
<text text-anchor="middle" x="324.33" y="-273.3" font-family="Times,serif" font-size="14.00">blockdiag</text>
</g>
<!-- blockdiag&#45;&gt;BlockDiag -->
<g id="edge29" class="edge">
<title>blockdiag&#45;&gt;BlockDiag</title>
<path fill="none" stroke="black" d="M216.9,-401.84C228.38,-397.84 240.19,-392.39 249.83,-385 277.64,-363.69 298.66,-328.77 310.95,-304.42"/>
<polygon fill="black" stroke="black" points="314.14,-305.87 315.37,-295.34 307.84,-302.8 314.14,-305.87"/>
</g>
<!-- seqdiag -->
<g id="node12" class="node">
<title>seqdiag</title>
<ellipse fill="none" stroke="black" cx="171.09" cy="-358" rx="46.59" ry="18"/>
<text text-anchor="middle" x="171.09" y="-354.3" font-family="Times,serif" font-size="14.00">seqdiag</text>
</g>
<!-- seqdiag&#45;&gt;BlockDiag -->
<g id="edge30" class="edge">
<title>seqdiag&#45;&gt;BlockDiag</title>
<path fill="none" stroke="black" d="M209.42,-347.55C222.55,-343.22 237.18,-337.65 249.83,-331 265.35,-322.84 281.2,-311.64 294.18,-301.55"/>
<polygon fill="black" stroke="black" points="296.62,-304.08 302.27,-295.12 292.27,-298.6 296.62,-304.08"/>
</g>
<!-- actdiag -->
<g id="node13" class="node">
<title>actdiag</title>
<ellipse fill="none" stroke="black" cx="171.09" cy="-304" rx="44.69" ry="18"/>
<text text-anchor="middle" x="171.09" y="-300.3" font-family="Times,serif" font-size="14.00">actdiag</text>
</g>
<!-- actdiag&#45;&gt;BlockDiag -->
<g id="edge31" class="edge">
<title>actdiag&#45;&gt;BlockDiag</title>
<path fill="none" stroke="black" d="M212.62,-296.76C230.8,-293.52 252.46,-289.65 271.77,-286.2"/>
<polygon fill="black" stroke="black" points="272.4,-289.65 281.63,-284.44 271.17,-282.76 272.4,-289.65"/>
</g>
<!-- nwdiag -->
<g id="node14" class="node">
<title>nwdiag</title>
<ellipse fill="none" stroke="black" cx="171.09" cy="-250" rx="44.39" ry="18"/>
<text text-anchor="middle" x="171.09" y="-246.3" font-family="Times,serif" font-size="14.00">nwdiag</text>
</g>
<!-- nwdiag&#45;&gt;BlockDiag -->
<g id="edge32" class="edge">
<title>nwdiag&#45;&gt;BlockDiag</title>
<path fill="none" stroke="black" d="M211.82,-257.09C230.16,-260.37 252.16,-264.29 271.75,-267.79"/>
<polygon fill="black" stroke="black" points="271.29,-271.26 281.75,-269.58 272.52,-264.37 271.29,-271.26"/>
</g>
<!-- rackdiag -->
<g id="node15" class="node">
<title>rackdiag</title>
<ellipse fill="none" stroke="black" cx="171.09" cy="-196" rx="50.89" ry="18"/>
<text text-anchor="middle" x="171.09" y="-192.3" font-family="Times,serif" font-size="14.00">rackdiag</text>
</g>
<!-- rackdiag&#45;&gt;BlockDiag -->
<g id="edge33" class="edge">
<title>rackdiag&#45;&gt;BlockDiag</title>
<path fill="none" stroke="black" d="M211.4,-207.11C224.01,-211.34 237.82,-216.68 249.83,-223 265.35,-231.16 281.2,-242.36 294.18,-252.45"/>
<polygon fill="black" stroke="black" points="292.27,-255.4 302.27,-258.88 296.62,-249.92 292.27,-255.4"/>
</g>
<!-- packetdiag -->
<g id="node16" class="node">
<title>packetdiag</title>
<ellipse fill="none" stroke="black" cx="171.09" cy="-142" rx="61.99" ry="18"/>
<text text-anchor="middle" x="171.09" y="-138.3" font-family="Times,serif" font-size="14.00">packetdiag</text>
</g>
<!-- packetdiag&#45;&gt;BlockDiag -->
<g id="edge34" class="edge">
<title>packetdiag&#45;&gt;BlockDiag</title>
<path fill="none" stroke="black" d="M219.74,-153.18C230.31,-157.07 240.98,-162.22 249.83,-169 277.64,-190.31 298.66,-225.23 310.95,-249.58"/>
<polygon fill="black" stroke="black" points="307.84,-251.2 315.37,-258.66 314.14,-248.13 307.84,-251.2"/>
</g>
<!-- asy -->
<g id="node17" class="node">
<title>asy</title>
<ellipse fill="none" stroke="black" cx="171.09" cy="-88" rx="27" ry="18"/>
<text text-anchor="middle" x="171.09" y="-84.3" font-family="Times,serif" font-size="14.00">asy</text>
</g>
<!-- Asymptote -->
<g id="node24" class="node">
<title>Asymptote</title>
<polygon fill="none" stroke="black" points="370.83,-106 277.83,-106 277.83,-70 370.83,-70 370.83,-106"/>
<text text-anchor="middle" x="324.33" y="-84.3" font-family="Times,serif" font-size="14.00">Asymptote</text>
</g>
<!-- asy&#45;&gt;Asymptote -->
<g id="edge35" class="edge">
<title>asy&#45;&gt;Asymptote</title>
<path fill="none" stroke="black" d="M198.43,-88C217.45,-88 243.84,-88 267.46,-88"/>
<polygon fill="black" stroke="black" points="267.73,-91.5 277.73,-88 267.73,-84.5 267.73,-91.5"/>
</g>
<!-- Rplot -->
<g id="node18" class="node">
<title>Rplot</title>
<ellipse fill="none" stroke="black" cx="171.09" cy="-34" rx="36" ry="18"/>
<text text-anchor="middle" x="171.09" y="-30.3" font-family="Times,serif" font-size="14.00">Rplot</text>
</g>
<!-- Rscript -->
<g id="node25" class="node">
<title>Rscript</title>
<polygon fill="none" stroke="black" points="358.33,-52 290.33,-52 290.33,-16 358.33,-16 358.33,-52"/>
<text text-anchor="middle" x="324.33" y="-30.3" font-family="Times,serif" font-size="14.00">Rscript</text>
</g>
<!-- Rplot&#45;&gt;Rscript -->
<g id="edge36" class="edge">
<title>Rplot&#45;&gt;Rscript</title>
<path fill="none" stroke="black" d="M207.16,-34C228.88,-34 256.94,-34 280.03,-34"/>
<polygon fill="black" stroke="black" points="280.26,-37.5 290.26,-34 280.26,-30.5 280.26,-37.5"/>
</g>
<!-- PP -->
<g id="node19" class="node">
<title>PP</title>
<polygon fill="none" stroke="black" points="32.17,-511 -0.17,-493 32.17,-475 64.51,-493 32.17,-511"/>
<text text-anchor="middle" x="32.17" y="-489.3" font-family="Times,serif" font-size="14.00">pp</text>
</g>
<!-- PP&#45;&gt;dot -->
<g id="edge1" class="edge">
<title>PP&#45;&gt;dot</title>
<path fill="none" stroke="black" d="M33.21,-510.89C33.72,-584.11 39.21,-860.14 92.34,-925 102.57,-937.48 118.9,-944.21 133.96,-947.82"/>
<polygon fill="black" stroke="black" points="133.6,-951.32 144.1,-949.86 134.99,-944.46 133.6,-951.32"/>
</g>
<!-- PP&#45;&gt;neato -->
<g id="edge2" class="edge">
<title>PP&#45;&gt;neato</title>
<path fill="none" stroke="black" d="M33.59,-510.45C35.51,-577.15 45.61,-815.05 92.34,-871 100.73,-881.04 113.05,-887.35 125.43,-891.32"/>
<polygon fill="black" stroke="black" points="124.73,-894.75 135.3,-894.02 126.58,-888 124.73,-894.75"/>
</g>
<!-- PP&#45;&gt;twopi -->
<g id="edge3" class="edge">
<title>PP&#45;&gt;twopi</title>
<path fill="none" stroke="black" d="M34.06,-509.99C37.52,-569.85 51.97,-769.89 92.34,-817 100.85,-826.93 113.22,-833.21 125.59,-837.18"/>
<polygon fill="black" stroke="black" points="124.87,-840.61 135.44,-839.9 126.73,-833.87 124.87,-840.61"/>
</g>
<!-- PP&#45;&gt;circo -->
<g id="edge4" class="edge">
<title>PP&#45;&gt;circo</title>
<path fill="none" stroke="black" d="M34.71,-509.69C39.89,-562.49 58.33,-724.7 92.34,-763 101.64,-773.47 115.21,-779.88 128.43,-783.81"/>
<polygon fill="black" stroke="black" points="127.83,-787.27 138.39,-786.35 129.56,-780.48 127.83,-787.27"/>
</g>
<!-- PP&#45;&gt;fdp -->
<g id="edge5" class="edge">
<title>PP&#45;&gt;fdp</title>
<path fill="none" stroke="black" d="M32.8,-510.72C32.93,-551.32 38.96,-651.92 92.34,-709 103.28,-720.7 119.56,-727.33 134.39,-731.09"/>
<polygon fill="black" stroke="black" points="133.83,-734.55 144.34,-733.26 135.32,-727.71 133.83,-734.55"/>
</g>
<!-- PP&#45;&gt;sfdp -->
<g id="edge6" class="edge">
<title>PP&#45;&gt;sfdp</title>
<path fill="none" stroke="black" d="M34.62,-509.73C38.31,-542.23 50.94,-614.25 92.34,-655 102.83,-665.32 117.46,-671.71 131.21,-675.66"/>
<polygon fill="black" stroke="black" points="130.44,-679.07 140.99,-678.12 132.15,-672.28 130.44,-679.07"/>
</g>
<!-- PP&#45;&gt;patchwork -->
<g id="edge7" class="edge">
<title>PP&#45;&gt;patchwork</title>
<path fill="none" stroke="black" d="M37.57,-508.17C45.07,-531.4 62.47,-575.74 92.34,-601 98.32,-606.06 105.31,-610.19 112.6,-613.56"/>
<polygon fill="black" stroke="black" points="111.36,-616.83 121.94,-617.43 114.04,-610.37 111.36,-616.83"/>
</g>
<!-- PP&#45;&gt;osage -->
<g id="edge8" class="edge">
<title>PP&#45;&gt;osage</title>
<path fill="none" stroke="black" d="M43.41,-504.83C54.43,-516.91 72.98,-535.47 92.34,-547 103.18,-553.45 115.79,-558.67 127.66,-562.73"/>
<polygon fill="black" stroke="black" points="126.81,-566.13 137.4,-565.87 128.96,-559.47 126.81,-566.13"/>
</g>
<!-- PP&#45;&gt;uml -->
<g id="edge9" class="edge">
<title>PP&#45;&gt;uml</title>
<path fill="none" stroke="black" d="M56.4,-497.58C77.49,-501.74 108.96,-507.95 133.44,-512.77"/>
<polygon fill="black" stroke="black" points="132.97,-516.25 143.46,-514.75 134.32,-509.38 132.97,-516.25"/>
</g>
<!-- PP&#45;&gt;ditaa -->
<g id="edge10" class="edge">
<title>PP&#45;&gt;ditaa</title>
<path fill="none" stroke="black" d="M56.4,-488.42C76.07,-484.54 104.76,-478.88 128.4,-474.22"/>
<polygon fill="black" stroke="black" points="129.38,-477.59 138.51,-472.23 128.03,-470.73 129.38,-477.59"/>
</g>
<!-- PP&#45;&gt;blockdiag -->
<g id="edge11" class="edge">
<title>PP&#45;&gt;blockdiag</title>
<path fill="none" stroke="black" d="M43.41,-481.17C54.43,-469.09 72.98,-450.53 92.34,-439 100.28,-434.28 109.16,-430.22 118,-426.79"/>
<polygon fill="black" stroke="black" points="119.35,-430.02 127.54,-423.31 116.95,-423.45 119.35,-430.02"/>
</g>
<!-- PP&#45;&gt;seqdiag -->
<g id="edge12" class="edge">
<title>PP&#45;&gt;seqdiag</title>
<path fill="none" stroke="black" d="M37.57,-477.83C45.07,-454.6 62.47,-410.26 92.34,-385 100.2,-378.36 109.78,-373.32 119.51,-369.5"/>
<polygon fill="black" stroke="black" points="120.95,-372.7 129.21,-366.08 118.62,-366.1 120.95,-372.7"/>
</g>
<!-- PP&#45;&gt;actdiag -->
<g id="edge13" class="edge">
<title>PP&#45;&gt;actdiag</title>
<path fill="none" stroke="black" d="M34.62,-476.27C38.31,-443.77 50.94,-371.75 92.34,-331 99.9,-323.56 109.62,-318.16 119.61,-314.25"/>
<polygon fill="black" stroke="black" points="120.89,-317.51 129.2,-310.94 118.61,-310.89 120.89,-317.51"/>
</g>
<!-- PP&#45;&gt;nwdiag -->
<g id="edge14" class="edge">
<title>PP&#45;&gt;nwdiag</title>
<path fill="none" stroke="black" d="M32.8,-475.28C32.93,-434.68 38.96,-334.08 92.34,-277 99.81,-269.01 109.77,-263.38 120.06,-259.42"/>
<polygon fill="black" stroke="black" points="121.17,-262.74 129.53,-256.23 118.94,-256.11 121.17,-262.74"/>
</g>
<!-- PP&#45;&gt;rackdiag -->
<g id="edge15" class="edge">
<title>PP&#45;&gt;rackdiag</title>
<path fill="none" stroke="black" d="M34.71,-476.31C39.89,-423.51 58.33,-261.3 92.34,-223 98.54,-216.02 106.64,-210.84 115.27,-207"/>
<polygon fill="black" stroke="black" points="116.7,-210.2 124.78,-203.34 114.19,-203.67 116.7,-210.2"/>
</g>
<!-- PP&#45;&gt;packetdiag -->
<g id="edge16" class="edge">
<title>PP&#45;&gt;packetdiag</title>
<path fill="none" stroke="black" d="M34.06,-476.01C37.52,-416.15 51.97,-216.11 92.34,-169 96.9,-163.68 102.57,-159.41 108.75,-155.97"/>
<polygon fill="black" stroke="black" points="110.58,-158.98 118.11,-151.52 107.57,-152.66 110.58,-158.98"/>
</g>
<!-- PP&#45;&gt;asy -->
<g id="edge17" class="edge">
<title>PP&#45;&gt;asy</title>
<path fill="none" stroke="black" d="M33.59,-475.55C35.51,-408.85 45.61,-170.95 92.34,-115 102.69,-102.62 119.03,-95.9 134.08,-92.27"/>
<polygon fill="black" stroke="black" points="135.09,-95.63 144.19,-90.21 133.69,-88.78 135.09,-95.63"/>
</g>
<!-- PP&#45;&gt;Rplot -->
<g id="edge18" class="edge">
<title>PP&#45;&gt;Rplot</title>
<path fill="none" stroke="black" d="M33.21,-475.11C33.72,-401.89 39.21,-125.86 92.34,-61 100.77,-50.71 113.35,-44.33 125.95,-40.38"/>
<polygon fill="black" stroke="black" points="127.22,-43.67 135.98,-37.71 125.42,-36.9 127.22,-43.67"/>
</g>
</g>
</svg>
