<?xml version="1.0" encoding="UTF-8" standalone="no"?>
<!DOCTYPE svg PUBLIC "-//W3C//DTD SVG 1.1//EN"
 "http://www.w3.org/Graphics/SVG/1.1/DTD/svg11.dtd">
<!-- Generated by graphviz version 2.40.1 (0)
 -->
<!-- Title: %3 Pages: 1 -->
<svg width="1098pt" height="191pt"
 viewBox="0.00 0.00 1097.85 191.00" xmlns="http://www.w3.org/2000/svg" xmlns:xlink="http://www.w3.org/1999/xlink">
<g id="graph0" class="graph" transform="scale(1 1) rotate(0) translate(4 187)">
<title>%3</title>
<polygon fill="#ffffff" stroke="transparent" points="-4,4 -4,-187 1093.846,-187 1093.846,4 -4,4"/>
<g id="clust1" class="cluster">
<title>cluster_cmd</title>
<polygon fill="none" stroke="#000000" points="8,-64 8,-139 1038,-139 1038,-64 8,-64"/>
<text text-anchor="middle" x="523" y="-123.8" font-family="Times,serif" font-size="14.00" fill="#000000">diagram generators</text>
</g>
<!-- dot -->
<g id="node1" class="node">
<title>dot</title>
<ellipse fill="none" stroke="#000000" cx="695" cy="-90" rx="27" ry="18"/>
<text text-anchor="middle" x="695" y="-86.3" font-family="Times,serif" font-size="14.00" fill="#000000">dot</text>
</g>
<!-- GraphViz -->
<g id="node14" class="node">
<title>GraphViz</title>
<polygon fill="none" stroke="#000000" points="436.5,-36 353.5,-36 353.5,0 436.5,0 436.5,-36"/>
<text text-anchor="middle" x="395" y="-14.3" font-family="Times,serif" font-size="14.00" fill="#000000">GraphViz</text>
</g>
<!-- dot&#45;&gt;GraphViz -->
<g id="edge13" class="edge">
<title>dot&#45;&gt;GraphViz</title>
<path fill="none" stroke="#000000" d="M678.3826,-75.5961C672.5873,-71.2504 665.8198,-66.8753 659,-64 621.5629,-48.2161 512.3257,-32.5579 446.6854,-24.2008"/>
<polygon fill="#000000" stroke="#000000" points="446.9016,-20.7004 436.5426,-22.9233 446.0268,-27.6455 446.9016,-20.7004"/>
</g>
<!-- neato -->
<g id="node2" class="node">
<title>neato</title>
<ellipse fill="none" stroke="#000000" cx="614" cy="-90" rx="36.2938" ry="18"/>
<text text-anchor="middle" x="614" y="-86.3" font-family="Times,serif" font-size="14.00" fill="#000000">neato</text>
</g>
<!-- neato&#45;&gt;GraphViz -->
<g id="edge14" class="edge">
<title>neato&#45;&gt;GraphViz</title>
<path fill="none" stroke="#000000" d="M591.1745,-75.5835C583.9538,-71.4406 575.8149,-67.1865 568,-64 528.4494,-47.8733 481.5043,-35.8043 446.503,-28.0841"/>
<polygon fill="#000000" stroke="#000000" points="447.019,-24.6149 436.5055,-25.9252 445.5414,-31.4572 447.019,-24.6149"/>
</g>
<!-- twopi -->
<g id="node3" class="node">
<title>twopi</title>
<ellipse fill="none" stroke="#000000" cx="523" cy="-90" rx="36.2938" ry="18"/>
<text text-anchor="middle" x="523" y="-86.3" font-family="Times,serif" font-size="14.00" fill="#000000">twopi</text>
</g>
<!-- twopi&#45;&gt;GraphViz -->
<g id="edge15" class="edge">
<title>twopi&#45;&gt;GraphViz</title>
<path fill="none" stroke="#000000" d="M498.6578,-76.2221C491.6679,-72.2709 484.0342,-67.9609 477,-64 463.7102,-56.5166 449.1978,-48.3679 436.1257,-41.0365"/>
<polygon fill="#000000" stroke="#000000" points="437.7729,-37.9475 427.3387,-36.1097 434.3495,-44.0532 437.7729,-37.9475"/>
</g>
<!-- circo -->
<g id="node4" class="node">
<title>circo</title>
<ellipse fill="none" stroke="#000000" cx="434" cy="-90" rx="34.394" ry="18"/>
<text text-anchor="middle" x="434" y="-86.3" font-family="Times,serif" font-size="14.00" fill="#000000">circo</text>
</g>
<!-- circo&#45;&gt;GraphViz -->
<g id="edge16" class="edge">
<title>circo&#45;&gt;GraphViz</title>
<path fill="none" stroke="#000000" d="M424.5592,-72.5708C420.0618,-64.2679 414.5814,-54.1502 409.5668,-44.8925"/>
<polygon fill="#000000" stroke="#000000" points="412.6016,-43.1465 404.7612,-36.0206 406.4465,-46.4805 412.6016,-43.1465"/>
</g>
<!-- fdp -->
<g id="node5" class="node">
<title>fdp</title>
<ellipse fill="none" stroke="#000000" cx="355" cy="-90" rx="27" ry="18"/>
<text text-anchor="middle" x="355" y="-86.3" font-family="Times,serif" font-size="14.00" fill="#000000">fdp</text>
</g>
<!-- fdp&#45;&gt;GraphViz -->
<g id="edge17" class="edge">
<title>fdp&#45;&gt;GraphViz</title>
<path fill="none" stroke="#000000" d="M364.4794,-72.937C369.0884,-64.6409 374.7394,-54.469 379.9207,-45.1428"/>
<polygon fill="#000000" stroke="#000000" points="383.0924,-46.6405 384.8894,-36.1992 376.9733,-43.241 383.0924,-46.6405"/>
</g>
<!-- sfdp -->
<g id="node6" class="node">
<title>sfdp</title>
<ellipse fill="none" stroke="#000000" cx="279" cy="-90" rx="30.5947" ry="18"/>
<text text-anchor="middle" x="279" y="-86.3" font-family="Times,serif" font-size="14.00" fill="#000000">sfdp</text>
</g>
<!-- sfdp&#45;&gt;GraphViz -->
<g id="edge18" class="edge">
<title>sfdp&#45;&gt;GraphViz</title>
<path fill="none" stroke="#000000" d="M299.6795,-76.3783C305.8672,-72.3513 312.6856,-67.9617 319,-64 330.8684,-56.5537 343.8838,-48.5997 355.7377,-41.4359"/>
<polygon fill="#000000" stroke="#000000" points="357.779,-44.2922 364.5378,-36.1332 354.1662,-38.2965 357.779,-44.2922"/>
</g>
<!-- patchwork -->
<g id="node7" class="node">
<title>patchwork</title>
<ellipse fill="none" stroke="#000000" cx="170" cy="-90" rx="60.3893" ry="18"/>
<text text-anchor="middle" x="170" y="-86.3" font-family="Times,serif" font-size="14.00" fill="#000000">patchwork</text>
</g>
<!-- patchwork&#45;&gt;GraphViz -->
<g id="edge19" class="edge">
<title>patchwork&#45;&gt;GraphViz</title>
<path fill="none" stroke="#000000" d="M206.7038,-75.597C217.0893,-71.678 228.4407,-67.5409 239,-64 273.5149,-52.4259 312.8314,-40.8427 343.3593,-32.195"/>
<polygon fill="#000000" stroke="#000000" points="344.6792,-35.4595 353.3556,-29.3791 342.7812,-28.7217 344.6792,-35.4595"/>
</g>
<!-- osage -->
<g id="node8" class="node">
<title>osage</title>
<ellipse fill="none" stroke="#000000" cx="54" cy="-90" rx="37.8943" ry="18"/>
<text text-anchor="middle" x="54" y="-86.3" font-family="Times,serif" font-size="14.00" fill="#000000">osage</text>
</g>
<!-- osage&#45;&gt;GraphViz -->
<g id="edge20" class="edge">
<title>osage&#45;&gt;GraphViz</title>
<path fill="none" stroke="#000000" d="M76.6816,-75.3569C84.1688,-71.103 92.7081,-66.8425 101,-64 182.8325,-35.9477 283.3959,-24.9125 343.1764,-20.6347"/>
<polygon fill="#000000" stroke="#000000" points="343.7503,-24.1039 353.4904,-19.935 343.2764,-17.12 343.7503,-24.1039"/>
</g>
<!-- uml -->
<g id="node9" class="node">
<title>uml</title>
<ellipse fill="none" stroke="#000000" cx="769" cy="-90" rx="28.6953" ry="18"/>
<text text-anchor="middle" x="769" y="-86.3" font-family="Times,serif" font-size="14.00" fill="#000000">uml</text>
</g>
<!-- PlantUML -->
<g id="node15" class="node">
<title>PlantUML</title>
<polygon fill="none" stroke="#000000" points="798,-36 708,-36 708,0 798,0 798,-36"/>
<text text-anchor="middle" x="753" y="-14.3" font-family="Times,serif" font-size="14.00" fill="#000000">PlantUML</text>
</g>
<!-- uml&#45;&gt;PlantUML -->
<g id="edge21" class="edge">
<title>uml&#45;&gt;PlantUML</title>
<path fill="none" stroke="#000000" d="M764.9625,-71.8314C763.2513,-64.131 761.2165,-54.9743 759.3148,-46.4166"/>
<polygon fill="#000000" stroke="#000000" points="762.6779,-45.4159 757.0918,-36.4133 755.8446,-46.9344 762.6779,-45.4159"/>
</g>
<!-- ditaa -->
<g id="node10" class="node">
<title>ditaa</title>
<ellipse fill="none" stroke="#000000" cx="850" cy="-90" rx="34.394" ry="18"/>
<text text-anchor="middle" x="850" y="-86.3" font-family="Times,serif" font-size="14.00" fill="#000000">ditaa</text>
</g>
<!-- DITAA -->
<g id="node16" class="node">
<title>DITAA</title>
<polygon fill="none" stroke="#000000" points="870,-36 816,-36 816,0 870,0 870,-36"/>
<text text-anchor="middle" x="843" y="-14.3" font-family="Times,serif" font-size="14.00" fill="#000000">ditaa</text>
</g>
<!-- ditaa&#45;&gt;DITAA -->
<g id="edge22" class="edge">
<title>ditaa&#45;&gt;DITAA</title>
<path fill="none" stroke="#000000" d="M848.2336,-71.8314C847.485,-64.131 846.5947,-54.9743 845.7627,-46.4166"/>
<polygon fill="#000000" stroke="#000000" points="849.2415,-46.0276 844.7902,-36.4133 842.2744,-46.7051 849.2415,-46.0276"/>
</g>
<!-- asy -->
<g id="node11" class="node">
<title>asy</title>
<ellipse fill="none" stroke="#000000" cx="929" cy="-90" rx="27" ry="18"/>
<text text-anchor="middle" x="929" y="-86.3" font-family="Times,serif" font-size="14.00" fill="#000000">asy</text>
</g>
<!-- Asymptote -->
<g id="node17" class="node">
<title>Asymptote</title>
<polygon fill="none" stroke="#000000" points="982,-36 888,-36 888,0 982,0 982,-36"/>
<text text-anchor="middle" x="935" y="-14.3" font-family="Times,serif" font-size="14.00" fill="#000000">Asymptote</text>
</g>
<!-- asy&#45;&gt;Asymptote -->
<g id="edge23" class="edge">
<title>asy&#45;&gt;Asymptote</title>
<path fill="none" stroke="#000000" d="M930.5141,-71.8314C931.1558,-64.131 931.9188,-54.9743 932.6319,-46.4166"/>
<polygon fill="#000000" stroke="#000000" points="936.1229,-46.6694 933.4656,-36.4133 929.1471,-46.088 936.1229,-46.6694"/>
</g>
<!-- Rplot -->
<g id="node12" class="node">
<title>Rplot</title>
<polygon fill="none" stroke="#000000" points="1029.5,-108 974.5,-108 974.5,-72 1029.5,-72 1029.5,-108"/>
<text text-anchor="middle" x="1002" y="-86.3" font-family="Times,serif" font-size="14.00" fill="#000000">Rplot</text>
</g>
<!-- Rscript -->
<g id="node18" class="node">
<title>Rscript</title>
<ellipse fill="none" stroke="#000000" cx="1045" cy="-18" rx="44.6926" ry="18"/>
<text text-anchor="middle" x="1045" y="-14.3" font-family="Times,serif" font-size="14.00" fill="#000000">Rscript</text>
</g>
<!-- Rplot&#45;&gt;Rscript -->
<g id="edge24" class="edge">
<title>Rplot&#45;&gt;Rscript</title>
<path fill="none" stroke="#000000" d="M1012.8507,-71.8314C1017.7769,-63.5829 1023.7009,-53.6635 1029.1144,-44.5992"/>
<polygon fill="#000000" stroke="#000000" points="1032.1792,-46.2935 1034.3017,-35.9134 1026.1693,-42.7042 1032.1792,-46.2935"/>
</g>
<!-- PP -->
<g id="node13" class="node">
<title>PP</title>
<polygon fill="none" stroke="#000000" points="568,-183 535.6581,-165 568,-147 600.3419,-165 568,-183"/>
<text text-anchor="middle" x="568" y="-161.3" font-family="Times,serif" font-size="14.00" fill="#000000">pp</text>
</g>
<!-- PP&#45;&gt;dot -->
<g id="edge1" class="edge">
<title>PP&#45;&gt;dot</title>
<path fill="none" stroke="#000000" d="M595.0781,-161.9822C614.3067,-158.7726 639.9808,-152.2288 659,-139 667.6186,-133.0054 674.9739,-124.2732 680.7469,-115.8352"/>
<polygon fill="#000000" stroke="#000000" points="683.7755,-117.5947 686.1766,-107.2755 677.8645,-113.845 683.7755,-117.5947"/>
</g>
<!-- PP&#45;&gt;neato -->
<g id="edge2" class="edge">
<title>PP&#45;&gt;neato</title>
<path fill="none" stroke="#000000" d="M576.4371,-151.2438C582.4724,-141.4038 590.7802,-127.8583 598.0485,-116.0078"/>
<polygon fill="#000000" stroke="#000000" points="601.1044,-117.7198 603.3491,-107.3655 595.1373,-114.06 601.1044,-117.7198"/>
</g>
<!-- PP&#45;&gt;twopi -->
<g id="edge3" class="edge">
<title>PP&#45;&gt;twopi</title>
<path fill="none" stroke="#000000" d="M559.7463,-151.2438C553.8423,-141.4038 545.715,-127.8583 538.6047,-116.0078"/>
<polygon fill="#000000" stroke="#000000" points="541.5655,-114.1397 533.4193,-107.3655 535.5631,-117.7412 541.5655,-114.1397"/>
</g>
<!-- PP&#45;&gt;circo -->
<g id="edge4" class="edge">
<title>PP&#45;&gt;circo</title>
<path fill="none" stroke="#000000" d="M541.9928,-161.4244C523.1162,-157.9285 497.5651,-151.271 478,-139 468.1643,-132.8312 459.2084,-123.8464 451.9819,-115.2502"/>
<polygon fill="#000000" stroke="#000000" points="454.5725,-112.8844 445.6111,-107.2323 449.0919,-117.2391 454.5725,-112.8844"/>
</g>
<!-- PP&#45;&gt;fdp -->
<g id="edge5" class="edge">
<title>PP&#45;&gt;fdp</title>
<path fill="none" stroke="#000000" d="M538.2527,-163.3903C494.4637,-160.5633 415.22,-153.5678 391,-139 381.8693,-133.5081 374.3423,-124.7293 368.5737,-116.1094"/>
<polygon fill="#000000" stroke="#000000" points="371.4075,-114.0346 363.2052,-107.3284 365.4353,-117.6859 371.4075,-114.0346"/>
</g>
<!-- PP&#45;&gt;sfdp -->
<g id="edge6" class="edge">
<title>PP&#45;&gt;sfdp</title>
<path fill="none" stroke="#000000" d="M538.8298,-163.2052C477.2322,-159.2356 337.979,-149.2481 319,-139 309.0413,-133.6226 300.618,-124.6332 294.1079,-115.8116"/>
<polygon fill="#000000" stroke="#000000" points="296.9878,-113.8223 288.4649,-107.5286 291.2027,-117.7636 296.9878,-113.8223"/>
</g>
<!-- PP&#45;&gt;patchwork -->
<g id="edge7" class="edge">
<title>PP&#45;&gt;patchwork</title>
<path fill="none" stroke="#000000" d="M536.1958,-164.6315C464.649,-163.4581 293.06,-158.6222 239,-139 223.5146,-133.3793 208.3575,-123.2823 196.2118,-113.7084"/>
<polygon fill="#000000" stroke="#000000" points="198.2666,-110.867 188.3173,-107.2254 193.8241,-116.2766 198.2666,-110.867"/>
</g>
<!-- PP&#45;&gt;osage -->
<g id="edge8" class="edge">
<title>PP&#45;&gt;osage</title>
<path fill="none" stroke="#000000" d="M536.2244,-164.5745C437.4909,-163.0668 140.2871,-157.0618 101,-139 89.5687,-133.7446 79.4994,-124.3537 71.6436,-115.1894"/>
<polygon fill="#000000" stroke="#000000" points="74.3129,-112.9233 65.3312,-107.3038 68.8482,-117.2978 74.3129,-112.9233"/>
</g>
<!-- PP&#45;&gt;uml -->
<g id="edge9" class="edge">
<title>PP&#45;&gt;uml</title>
<path fill="none" stroke="#000000" d="M596.7006,-162.9608C637.2392,-159.657 708.8087,-152.1419 731,-139 740.4481,-133.4047 748.3998,-124.4893 754.5477,-115.7878"/>
<polygon fill="#000000" stroke="#000000" points="757.5585,-117.5781 760.0829,-107.2884 751.6928,-113.758 757.5585,-117.5781"/>
</g>
<!-- PP&#45;&gt;ditaa -->
<g id="edge10" class="edge">
<title>PP&#45;&gt;ditaa</title>
<path fill="none" stroke="#000000" d="M599.5596,-164.3787C656.0002,-162.81 771.6344,-157.3866 807,-139 817.3495,-133.6193 826.3352,-124.6292 833.3777,-115.808"/>
<polygon fill="#000000" stroke="#000000" points="836.3735,-117.6439 839.5155,-107.5257 830.7494,-113.4761 836.3735,-117.6439"/>
</g>
<!-- PP&#45;&gt;asy -->
<g id="edge11" class="edge">
<title>PP&#45;&gt;asy</title>
<path fill="none" stroke="#000000" d="M598.818,-163.9872C674.9684,-161.28 867.6918,-153.1065 893,-139 902.4049,-133.7578 910.0304,-124.9142 915.8013,-116.1711"/>
<polygon fill="#000000" stroke="#000000" points="918.8017,-117.9732 920.9513,-107.5987 912.8013,-114.3683 918.8017,-117.9732"/>
</g>
<!-- PP&#45;&gt;Rplot -->
<g id="edge12" class="edge">
<title>PP&#45;&gt;Rplot</title>
<path fill="none" stroke="#000000" d="M599.3853,-164.4382C687.5579,-162.6522 933.1613,-156.1758 965,-139 974.4286,-133.9136 982.1566,-125.2691 988.0662,-116.644"/>
<polygon fill="#000000" stroke="#000000" points="991.0374,-118.4938 993.3652,-108.1579 985.0999,-114.7862 991.0374,-118.4938"/>
</g>
</g>
</svg>
