<?xml version="1.0" encoding="UTF-8" standalone="no"?>
<!DOCTYPE svg PUBLIC "-//W3C//DTD SVG 1.1//EN"
 "http://www.w3.org/Graphics/SVG/1.1/DTD/svg11.dtd">
<!-- Generated by graphviz version 2.40.1 (0)
 -->
<!-- Title: %3 Pages: 1 -->
<svg width="380pt" height="1017pt"
 viewBox="0.00 0.00 380.13 1017.00" xmlns="http://www.w3.org/2000/svg" xmlns:xlink="http://www.w3.org/1999/xlink">
<g id="graph0" class="graph" transform="scale(1 1) rotate(0) translate(4 1013)">
<title>%3</title>
<polygon fill="#ffffff" stroke="transparent" points="-4,4 -4,-1013 376.1299,-1013 376.1299,4 -4,4"/>
<g id="clust1" class="cluster">
<title>cluster_cmd</title>
<polygon fill="none" stroke="#000000" points="92.341,-8 92.341,-1001 250.1299,-1001 250.1299,-8 92.341,-8"/>
<text text-anchor="middle" x="171.2355" y="-985.8" font-family="Times,serif" font-size="14.00" fill="#000000">diagram generators</text>
</g>
<!-- dot -->
<g id="node1" class="node">
<title>dot</title>
<ellipse fill="none" stroke="#000000" cx="170.7355" cy="-952" rx="27" ry="18"/>
<text text-anchor="middle" x="170.7355" y="-948.3" font-family="Times,serif" font-size="14.00" fill="#000000">dot</text>
</g>
<!-- GraphViz -->
<g id="node20" class="node">
<title>GraphViz</title>
<polygon fill="none" stroke="#000000" points="366.6299,-781 283.6299,-781 283.6299,-745 366.6299,-745 366.6299,-781"/>
<text text-anchor="middle" x="325.1299" y="-759.3" font-family="Times,serif" font-size="14.00" fill="#000000">GraphViz</text>
</g>
<!-- dot&#45;&gt;GraphViz -->
<g id="edge19" class="edge">
<title>dot&#45;&gt;GraphViz</title>
<path fill="none" stroke="#000000" d="M197.3856,-948.4155C214.237,-944.9335 235.5167,-938.1438 250.1299,-925 290.293,-888.8755 310.5325,-826.8471 319.3607,-790.9328"/>
<polygon fill="#000000" stroke="#000000" points="322.7887,-791.6441 321.6497,-781.1107 315.9713,-790.0553 322.7887,-791.6441"/>
</g>
<!-- neato -->
<g id="node2" class="node">
<title>neato</title>
<ellipse fill="none" stroke="#000000" cx="170.7355" cy="-898" rx="36.2938" ry="18"/>
<text text-anchor="middle" x="170.7355" y="-894.3" font-family="Times,serif" font-size="14.00" fill="#000000">neato</text>
</g>
<!-- neato&#45;&gt;GraphViz -->
<g id="edge20" class="edge">
<title>neato&#45;&gt;GraphViz</title>
<path fill="none" stroke="#000000" d="M205.08,-891.4063C219.9825,-887.3223 236.9914,-880.9013 250.1299,-871 278.2947,-849.7748 299.78,-814.8348 312.3903,-790.4634"/>
<polygon fill="#000000" stroke="#000000" points="315.5938,-791.8828 316.9378,-781.3735 309.3335,-788.7508 315.5938,-791.8828"/>
</g>
<!-- twopi -->
<g id="node3" class="node">
<title>twopi</title>
<ellipse fill="none" stroke="#000000" cx="170.7355" cy="-844" rx="36.2938" ry="18"/>
<text text-anchor="middle" x="170.7355" y="-840.3" font-family="Times,serif" font-size="14.00" fill="#000000">twopi</text>
</g>
<!-- twopi&#45;&gt;GraphViz -->
<g id="edge21" class="edge">
<title>twopi&#45;&gt;GraphViz</title>
<path fill="none" stroke="#000000" d="M202.9155,-835.4314C217.7146,-830.8984 235.2476,-824.6708 250.1299,-817 265.9237,-808.8595 282.0879,-797.6568 295.3467,-787.5647"/>
<polygon fill="#000000" stroke="#000000" points="297.8646,-790.0402 303.6069,-781.1364 293.5654,-784.5159 297.8646,-790.0402"/>
</g>
<!-- circo -->
<g id="node4" class="node">
<title>circo</title>
<ellipse fill="none" stroke="#000000" cx="170.7355" cy="-790" rx="34.394" ry="18"/>
<text text-anchor="middle" x="170.7355" y="-786.3" font-family="Times,serif" font-size="14.00" fill="#000000">circo</text>
</g>
<!-- circo&#45;&gt;GraphViz -->
<g id="edge22" class="edge">
<title>circo&#45;&gt;GraphViz</title>
<path fill="none" stroke="#000000" d="M203.4786,-784.274C223.8349,-780.7141 250.4471,-776.0603 273.5887,-772.0134"/>
<polygon fill="#000000" stroke="#000000" points="274.3552,-775.4325 283.6028,-770.2621 273.1493,-768.5372 274.3552,-775.4325"/>
</g>
<!-- fdp -->
<g id="node5" class="node">
<title>fdp</title>
<ellipse fill="none" stroke="#000000" cx="170.7355" cy="-736" rx="27" ry="18"/>
<text text-anchor="middle" x="170.7355" y="-732.3" font-family="Times,serif" font-size="14.00" fill="#000000">fdp</text>
</g>
<!-- fdp&#45;&gt;GraphViz -->
<g id="edge23" class="edge">
<title>fdp&#45;&gt;GraphViz</title>
<path fill="none" stroke="#000000" d="M196.9264,-740.5802C217.8132,-744.2328 247.7169,-749.4623 273.3903,-753.9519"/>
<polygon fill="#000000" stroke="#000000" points="272.9062,-757.4203 283.3597,-755.6954 274.1121,-750.525 272.9062,-757.4203"/>
</g>
<!-- sfdp -->
<g id="node6" class="node">
<title>sfdp</title>
<ellipse fill="none" stroke="#000000" cx="170.7355" cy="-682" rx="30.5947" ry="18"/>
<text text-anchor="middle" x="170.7355" y="-678.3" font-family="Times,serif" font-size="14.00" fill="#000000">sfdp</text>
</g>
<!-- sfdp&#45;&gt;GraphViz -->
<g id="edge24" class="edge">
<title>sfdp&#45;&gt;GraphViz</title>
<path fill="none" stroke="#000000" d="M198.7485,-689.3145C214.3361,-693.9235 233.8241,-700.5955 250.1299,-709 265.9237,-717.1405 282.0879,-728.3432 295.3467,-738.4353"/>
<polygon fill="#000000" stroke="#000000" points="293.5654,-741.4841 303.6069,-744.8636 297.8646,-735.9598 293.5654,-741.4841"/>
</g>
<!-- patchwork -->
<g id="node7" class="node">
<title>patchwork</title>
<ellipse fill="none" stroke="#000000" cx="170.7355" cy="-628" rx="60.3893" ry="18"/>
<text text-anchor="middle" x="170.7355" y="-624.3" font-family="Times,serif" font-size="14.00" fill="#000000">patchwork</text>
</g>
<!-- patchwork&#45;&gt;GraphViz -->
<g id="edge25" class="edge">
<title>patchwork&#45;&gt;GraphViz</title>
<path fill="none" stroke="#000000" d="M218.9411,-638.946C229.8676,-642.8567 240.9446,-648.0778 250.1299,-655 278.2947,-676.2252 299.78,-711.1652 312.3903,-735.5366"/>
<polygon fill="#000000" stroke="#000000" points="309.3335,-737.2492 316.9378,-744.6265 315.5938,-734.1172 309.3335,-737.2492"/>
</g>
<!-- osage -->
<g id="node8" class="node">
<title>osage</title>
<ellipse fill="none" stroke="#000000" cx="170.7355" cy="-574" rx="37.8943" ry="18"/>
<text text-anchor="middle" x="170.7355" y="-570.3" font-family="Times,serif" font-size="14.00" fill="#000000">osage</text>
</g>
<!-- osage&#45;&gt;GraphViz -->
<g id="edge26" class="edge">
<title>osage&#45;&gt;GraphViz</title>
<path fill="none" stroke="#000000" d="M206.7305,-579.7723C221.5924,-583.6814 238.1146,-590.1929 250.1299,-601 290.293,-637.1245 310.5325,-699.1529 319.3607,-735.0672"/>
<polygon fill="#000000" stroke="#000000" points="315.9713,-735.9447 321.6497,-744.8893 322.7887,-734.3559 315.9713,-735.9447"/>
</g>
<!-- uml -->
<g id="node9" class="node">
<title>uml</title>
<ellipse fill="none" stroke="#000000" cx="170.7355" cy="-520" rx="28.6953" ry="18"/>
<text text-anchor="middle" x="170.7355" y="-516.3" font-family="Times,serif" font-size="14.00" fill="#000000">uml</text>
</g>
<!-- PlantUML -->
<g id="node21" class="node">
<title>PlantUML</title>
<polygon fill="none" stroke="#000000" points="370.1299,-538 280.1299,-538 280.1299,-502 370.1299,-502 370.1299,-538"/>
<text text-anchor="middle" x="325.1299" y="-516.3" font-family="Times,serif" font-size="14.00" fill="#000000">PlantUML</text>
</g>
<!-- uml&#45;&gt;PlantUML -->
<g id="edge27" class="edge">
<title>uml&#45;&gt;PlantUML</title>
<path fill="none" stroke="#000000" d="M199.414,-520C219.1772,-520 246.075,-520 269.9196,-520"/>
<polygon fill="#000000" stroke="#000000" points="269.9221,-523.5001 279.922,-520 269.922,-516.5001 269.9221,-523.5001"/>
</g>
<!-- ditaa -->
<g id="node10" class="node">
<title>ditaa</title>
<ellipse fill="none" stroke="#000000" cx="170.7355" cy="-466" rx="34.394" ry="18"/>
<text text-anchor="middle" x="170.7355" y="-462.3" font-family="Times,serif" font-size="14.00" fill="#000000">ditaa</text>
</g>
<!-- DITAA -->
<g id="node22" class="node">
<title>DITAA</title>
<polygon fill="none" stroke="#000000" points="352.1299,-484 298.1299,-484 298.1299,-448 352.1299,-448 352.1299,-484"/>
<text text-anchor="middle" x="325.1299" y="-462.3" font-family="Times,serif" font-size="14.00" fill="#000000">ditaa</text>
</g>
<!-- ditaa&#45;&gt;DITAA -->
<g id="edge28" class="edge">
<title>ditaa&#45;&gt;DITAA</title>
<path fill="none" stroke="#000000" d="M205.3846,-466C229.8119,-466 262.5049,-466 287.5584,-466"/>
<polygon fill="#000000" stroke="#000000" points="287.7816,-469.5001 297.7815,-466 287.7815,-462.5001 287.7816,-469.5001"/>
</g>
<!-- blockdiag -->
<g id="node11" class="node">
<title>blockdiag</title>
<ellipse fill="none" stroke="#000000" cx="170.7355" cy="-412" rx="55.7903" ry="18"/>
<text text-anchor="middle" x="170.7355" y="-408.3" font-family="Times,serif" font-size="14.00" fill="#000000">blockdiag</text>
</g>
<!-- BlockDiag -->
<g id="node23" class="node">
<title>BlockDiag</title>
<polygon fill="none" stroke="#000000" points="368.1299,-295 282.1299,-295 282.1299,-259 368.1299,-259 368.1299,-295"/>
<text text-anchor="middle" x="325.1299" y="-273.3" font-family="Times,serif" font-size="14.00" fill="#000000">blockdiag</text>
</g>
<!-- blockdiag&#45;&gt;BlockDiag -->
<g id="edge29" class="edge">
<title>blockdiag&#45;&gt;BlockDiag</title>
<path fill="none" stroke="#000000" d="M216.8688,-401.7809C228.4578,-397.7974 240.3632,-392.3603 250.1299,-385 278.2947,-363.7748 299.78,-328.8348 312.3903,-304.4634"/>
<polygon fill="#000000" stroke="#000000" points="315.5938,-305.8828 316.9378,-295.3735 309.3335,-302.7508 315.5938,-305.8828"/>
</g>
<!-- seqdiag -->
<g id="node12" class="node">
<title>seqdiag</title>
<ellipse fill="none" stroke="#000000" cx="170.7355" cy="-358" rx="46.5926" ry="18"/>
<text text-anchor="middle" x="170.7355" y="-354.3" font-family="Times,serif" font-size="14.00" fill="#000000">seqdiag</text>
</g>
<!-- seqdiag&#45;&gt;BlockDiag -->
<g id="edge30" class="edge">
<title>seqdiag&#45;&gt;BlockDiag</title>
<path fill="none" stroke="#000000" d="M209.2367,-347.4416C222.542,-343.1375 237.3182,-337.6035 250.1299,-331 265.9237,-322.8595 282.0879,-311.6568 295.3467,-301.5647"/>
<polygon fill="#000000" stroke="#000000" points="297.8646,-304.0402 303.6069,-295.1364 293.5654,-298.5159 297.8646,-304.0402"/>
</g>
<!-- actdiag -->
<g id="node13" class="node">
<title>actdiag</title>
<ellipse fill="none" stroke="#000000" cx="170.7355" cy="-304" rx="45.4919" ry="18"/>
<text text-anchor="middle" x="170.7355" y="-300.3" font-family="Times,serif" font-size="14.00" fill="#000000">actdiag</text>
</g>
<!-- actdiag&#45;&gt;BlockDiag -->
<g id="edge31" class="edge">
<title>actdiag&#45;&gt;BlockDiag</title>
<path fill="none" stroke="#000000" d="M212.5168,-296.6934C230.8448,-293.4883 252.573,-289.6885 272.031,-286.2858"/>
<polygon fill="#000000" stroke="#000000" points="272.7218,-289.7182 281.9693,-284.5478 271.5159,-282.8228 272.7218,-289.7182"/>
</g>
<!-- nwdiag -->
<g id="node14" class="node">
<title>nwdiag</title>
<ellipse fill="none" stroke="#000000" cx="170.7355" cy="-250" rx="44.393" ry="18"/>
<text text-anchor="middle" x="170.7355" y="-246.3" font-family="Times,serif" font-size="14.00" fill="#000000">nwdiag</text>
</g>
<!-- nwdiag&#45;&gt;BlockDiag -->
<g id="edge32" class="edge">
<title>nwdiag&#45;&gt;BlockDiag</title>
<path fill="none" stroke="#000000" d="M211.705,-257.1646C230.1913,-260.3974 252.2622,-264.2571 272.0005,-267.7089"/>
<polygon fill="#000000" stroke="#000000" points="271.6249,-271.1963 282.0784,-269.4713 272.8308,-264.3009 271.6249,-271.1963"/>
</g>
<!-- rackdiag -->
<g id="node15" class="node">
<title>rackdiag</title>
<ellipse fill="none" stroke="#000000" cx="170.7355" cy="-196" rx="51.9908" ry="18"/>
<text text-anchor="middle" x="170.7355" y="-192.3" font-family="Times,serif" font-size="14.00" fill="#000000">rackdiag</text>
</g>
<!-- rackdiag&#45;&gt;BlockDiag -->
<g id="edge33" class="edge">
<title>rackdiag&#45;&gt;BlockDiag</title>
<path fill="none" stroke="#000000" d="M211.6713,-207.3544C224.3258,-211.5372 238.0947,-216.7967 250.1299,-223 265.9237,-231.1405 282.0879,-242.3432 295.3467,-252.4353"/>
<polygon fill="#000000" stroke="#000000" points="293.5654,-255.4841 303.6069,-258.8636 297.8646,-249.9598 293.5654,-255.4841"/>
</g>
<!-- packetdiag -->
<g id="node16" class="node">
<title>packetdiag</title>
<ellipse fill="none" stroke="#000000" cx="170.7355" cy="-142" rx="62.2891" ry="18"/>
<text text-anchor="middle" x="170.7355" y="-138.3" font-family="Times,serif" font-size="14.00" fill="#000000">packetdiag</text>
</g>
<!-- packetdiag&#45;&gt;BlockDiag -->
<g id="edge34" class="edge">
<title>packetdiag&#45;&gt;BlockDiag</title>
<path fill="none" stroke="#000000" d="M219.7712,-153.2456C230.4272,-157.1222 241.1771,-162.2531 250.1299,-169 278.2947,-190.2252 299.78,-225.1652 312.3903,-249.5366"/>
<polygon fill="#000000" stroke="#000000" points="309.3335,-251.2492 316.9378,-258.6265 315.5938,-248.1172 309.3335,-251.2492"/>
</g>
<!-- asy -->
<g id="node17" class="node">
<title>asy</title>
<ellipse fill="none" stroke="#000000" cx="170.7355" cy="-88" rx="27" ry="18"/>
<text text-anchor="middle" x="170.7355" y="-84.3" font-family="Times,serif" font-size="14.00" fill="#000000">asy</text>
</g>
<!-- Asymptote -->
<g id="node24" class="node">
<title>Asymptote</title>
<polygon fill="none" stroke="#000000" points="372.1299,-106 278.1299,-106 278.1299,-70 372.1299,-70 372.1299,-106"/>
<text text-anchor="middle" x="325.1299" y="-84.3" font-family="Times,serif" font-size="14.00" fill="#000000">Asymptote</text>
</g>
<!-- asy&#45;&gt;Asymptote -->
<g id="edge35" class="edge">
<title>asy&#45;&gt;Asymptote</title>
<path fill="none" stroke="#000000" d="M197.9827,-88C217.2985,-88 243.926,-88 267.8242,-88"/>
<polygon fill="#000000" stroke="#000000" points="267.8699,-91.5001 277.8698,-88 267.8698,-84.5001 267.8699,-91.5001"/>
</g>
<!-- Rplot -->
<g id="node18" class="node">
<title>Rplot</title>
<ellipse fill="none" stroke="#000000" cx="170.7355" cy="-34" rx="35.9954" ry="18"/>
<text text-anchor="middle" x="170.7355" y="-30.3" font-family="Times,serif" font-size="14.00" fill="#000000">Rplot</text>
</g>
<!-- Rscript -->
<g id="node25" class="node">
<title>Rscript</title>
<polygon fill="none" stroke="#000000" points="359.6299,-52 290.6299,-52 290.6299,-16 359.6299,-16 359.6299,-52"/>
<text text-anchor="middle" x="325.1299" y="-30.3" font-family="Times,serif" font-size="14.00" fill="#000000">Rscript</text>
</g>
<!-- Rplot&#45;&gt;Rscript -->
<g id="edge36" class="edge">
<title>Rplot&#45;&gt;Rscript</title>
<path fill="none" stroke="#000000" d="M206.5447,-34C228.5826,-34 257.0096,-34 280.5063,-34"/>
<polygon fill="#000000" stroke="#000000" points="280.577,-37.5001 290.5769,-34 280.5769,-30.5001 280.577,-37.5001"/>
</g>
<!-- PP -->
<g id="node19" class="node">
<title>PP</title>
<polygon fill="none" stroke="#000000" points="32.1705,-511 -.1714,-493 32.1705,-475 64.5124,-493 32.1705,-511"/>
<text text-anchor="middle" x="32.1705" y="-489.3" font-family="Times,serif" font-size="14.00" fill="#000000">pp</text>
</g>
<!-- PP&#45;&gt;dot -->
<g id="edge1" class="edge">
<title>PP&#45;&gt;dot</title>
<path fill="none" stroke="#000000" d="M33.5129,-510.2833C39.5927,-586.7485 65.4193,-892.2978 92.341,-925 102.5249,-937.3705 118.6741,-944.088 133.6757,-947.7297"/>
<polygon fill="#000000" stroke="#000000" points="133.293,-951.2236 143.7906,-949.7911 134.6909,-944.3646 133.293,-951.2236"/>
</g>
<!-- PP&#45;&gt;neato -->
<g id="edge2" class="edge">
<title>PP&#45;&gt;neato</title>
<path fill="none" stroke="#000000" d="M32.6456,-510.9139C34.781,-578.2617 45.5496,-815.2759 92.341,-871 100.6676,-880.9162 112.8218,-887.1974 125.0856,-891.1737"/>
<polygon fill="#000000" stroke="#000000" points="124.3014,-894.5883 134.8735,-893.8939 126.1758,-887.8439 124.3014,-894.5883"/>
</g>
<!-- PP&#45;&gt;twopi -->
<g id="edge3" class="edge">
<title>PP&#45;&gt;twopi</title>
<path fill="none" stroke="#000000" d="M33.1639,-510.8306C36.8986,-571.7138 52.0012,-770.1968 92.341,-817 100.7947,-826.8081 112.9866,-833.0572 125.246,-837.0373"/>
<polygon fill="#000000" stroke="#000000" points="124.4492,-840.4486 135.0221,-839.7674 126.3321,-833.7066 124.4492,-840.4486"/>
</g>
<!-- PP&#45;&gt;circo -->
<g id="edge4" class="edge">
<title>PP&#45;&gt;circo</title>
<path fill="none" stroke="#000000" d="M33.8472,-510.4421C39.328,-564.0305 58.3439,-724.9488 92.341,-763 101.3593,-773.0937 114.3293,-779.4151 127.1312,-783.3736"/>
<polygon fill="#000000" stroke="#000000" points="126.2553,-786.7623 136.82,-785.9635 128.063,-779.9997 126.2553,-786.7623"/>
</g>
<!-- PP&#45;&gt;fdp -->
<g id="edge5" class="edge">
<title>PP&#45;&gt;fdp</title>
<path fill="none" stroke="#000000" d="M34.796,-509.8251C42.2108,-555.3538 64.5855,-679.5269 92.341,-709 103.2459,-720.5797 119.3428,-727.1934 134.1177,-730.9706"/>
<polygon fill="#000000" stroke="#000000" points="133.5366,-734.4264 144.0553,-733.1586 135.0418,-727.5901 133.5366,-734.4264"/>
</g>
<!-- PP&#45;&gt;sfdp -->
<g id="edge6" class="edge">
<title>PP&#45;&gt;sfdp</title>
<path fill="none" stroke="#000000" d="M33.7815,-510.2548C37.7494,-543.0135 50.9091,-614.5484 92.341,-655 102.784,-665.1959 117.252,-671.5507 130.9186,-675.5077"/>
<polygon fill="#000000" stroke="#000000" points="130.1052,-678.9122 140.6594,-677.9859 131.8311,-672.1283 130.1052,-678.9122"/>
</g>
<!-- PP&#45;&gt;patchwork -->
<g id="edge7" class="edge">
<title>PP&#45;&gt;patchwork</title>
<path fill="none" stroke="#000000" d="M36.8391,-508.5689C44.6136,-531.9148 62.3903,-575.9215 92.341,-601 98.3163,-606.0033 105.2706,-610.0979 112.5224,-613.4445"/>
<polygon fill="#000000" stroke="#000000" points="111.2378,-616.7007 121.816,-617.2955 113.9175,-610.2339 111.2378,-616.7007"/>
</g>
<!-- PP&#45;&gt;osage -->
<g id="edge8" class="edge">
<title>PP&#45;&gt;osage</title>
<path fill="none" stroke="#000000" d="M43.0416,-505.2837C54.3174,-517.3689 72.9817,-535.6168 92.341,-547 103.1016,-553.3272 115.5676,-558.466 127.3489,-562.4955"/>
<polygon fill="#000000" stroke="#000000" points="126.44,-565.8798 137.0317,-565.621 128.5904,-559.2183 126.44,-565.8798"/>
</g>
<!-- PP&#45;&gt;uml -->
<g id="edge9" class="edge">
<title>PP&#45;&gt;uml</title>
<path fill="none" stroke="#000000" d="M56.3067,-497.703C77.4747,-501.8277 108.6018,-507.893 133.0493,-512.6567"/>
<polygon fill="#000000" stroke="#000000" points="132.5845,-516.1319 143.0693,-514.6091 133.9234,-509.2611 132.5845,-516.1319"/>
</g>
<!-- PP&#45;&gt;ditaa -->
<g id="edge10" class="edge">
<title>PP&#45;&gt;ditaa</title>
<path fill="none" stroke="#000000" d="M56.3067,-488.297C76.0969,-484.4407 104.5919,-478.8884 128.1951,-474.2892"/>
<polygon fill="#000000" stroke="#000000" points="129.1623,-477.6666 138.3083,-472.3186 127.8235,-470.7958 129.1623,-477.6666"/>
</g>
<!-- PP&#45;&gt;blockdiag -->
<g id="edge11" class="edge">
<title>PP&#45;&gt;blockdiag</title>
<path fill="none" stroke="#000000" d="M43.0416,-480.7163C54.3174,-468.6311 72.9817,-450.3832 92.341,-439 100.269,-434.3384 109.1226,-430.3219 117.9461,-426.9188"/>
<polygon fill="#000000" stroke="#000000" points="119.2571,-430.1665 127.4635,-423.4654 116.8694,-423.5863 119.2571,-430.1665"/>
</g>
<!-- PP&#45;&gt;seqdiag -->
<g id="edge12" class="edge">
<title>PP&#45;&gt;seqdiag</title>
<path fill="none" stroke="#000000" d="M36.8391,-477.4311C44.6136,-454.0852 62.3903,-410.0785 92.341,-385 100.1218,-378.4849 109.5626,-373.5105 119.1589,-369.7224"/>
<polygon fill="#000000" stroke="#000000" points="120.4988,-372.9608 128.7513,-366.3165 118.1566,-366.3642 120.4988,-372.9608"/>
</g>
<!-- PP&#45;&gt;actdiag -->
<g id="edge13" class="edge">
<title>PP&#45;&gt;actdiag</title>
<path fill="none" stroke="#000000" d="M33.7815,-475.7452C37.7494,-442.9865 50.9091,-371.4516 92.341,-331 99.8341,-323.6842 109.3994,-318.346 119.254,-314.4521"/>
<polygon fill="#000000" stroke="#000000" points="120.4445,-317.7437 128.7327,-311.144 118.1379,-311.1347 120.4445,-317.7437"/>
</g>
<!-- PP&#45;&gt;nwdiag -->
<g id="edge14" class="edge">
<title>PP&#45;&gt;nwdiag</title>
<path fill="none" stroke="#000000" d="M34.796,-476.1749C42.2108,-430.6462 64.5855,-306.4731 92.341,-277 99.6701,-269.2174 109.3443,-263.678 119.3863,-259.7353"/>
<polygon fill="#000000" stroke="#000000" points="120.7347,-262.9732 129.0623,-256.4232 118.4677,-256.3504 120.7347,-262.9732"/>
</g>
<!-- PP&#45;&gt;rackdiag -->
<g id="edge15" class="edge">
<title>PP&#45;&gt;rackdiag</title>
<path fill="none" stroke="#000000" d="M33.8472,-475.5579C39.328,-421.9695 58.3439,-261.0512 92.341,-223 98.264,-216.3707 105.8917,-211.3686 114.0567,-207.5944"/>
<polygon fill="#000000" stroke="#000000" points="115.461,-210.8023 123.4415,-203.8336 112.8571,-204.3046 115.461,-210.8023"/>
</g>
<!-- PP&#45;&gt;packetdiag -->
<g id="edge16" class="edge">
<title>PP&#45;&gt;packetdiag</title>
<path fill="none" stroke="#000000" d="M33.1639,-475.1694C36.8986,-414.2862 52.0012,-215.8032 92.341,-169 96.8872,-163.7254 102.5146,-159.4801 108.6521,-156.0634"/>
<polygon fill="#000000" stroke="#000000" points="110.427,-159.0946 117.9429,-151.6272 107.4108,-152.7777 110.427,-159.0946"/>
</g>
<!-- PP&#45;&gt;asy -->
<g id="edge17" class="edge">
<title>PP&#45;&gt;asy</title>
<path fill="none" stroke="#000000" d="M32.6456,-475.0861C34.781,-407.7383 45.5496,-170.7241 92.341,-115 102.6448,-102.7292 118.8097,-96.0247 133.7906,-92.3659"/>
<polygon fill="#000000" stroke="#000000" points="134.7969,-95.7322 143.8862,-90.2884 133.386,-88.8759 134.7969,-95.7322"/>
</g>
<!-- PP&#45;&gt;Rplot -->
<g id="edge18" class="edge">
<title>PP&#45;&gt;Rplot</title>
<path fill="none" stroke="#000000" d="M33.5129,-475.7167C39.5927,-399.2515 65.4193,-93.7022 92.341,-61 100.7151,-50.8278 113.1228,-44.478 125.6091,-40.5177"/>
<polygon fill="#000000" stroke="#000000" points="126.8242,-43.8149 135.5642,-37.8264 124.9973,-37.0575 126.8242,-43.8149"/>
</g>
</g>
</svg>
