<?xml version="1.0" encoding="UTF-8" standalone="no"?>
<!DOCTYPE svg PUBLIC "-//W3C//DTD SVG 1.1//EN"
 "http://www.w3.org/Graphics/SVG/1.1/DTD/svg11.dtd">
<!-- Generated by graphviz version 2.44.0 (0)
 -->
<!-- Pages: 1 -->
<svg width="375pt" height="1017pt"
 viewBox="0.00 0.00 374.93 1017.00" xmlns="http://www.w3.org/2000/svg" xmlns:xlink="http://www.w3.org/1999/xlink">
<g id="graph0" class="graph" transform="scale(1 1) rotate(0) translate(4 1013)">
<polygon fill="white" stroke="transparent" points="-4,4 -4,-1013 370.93,-1013 370.93,4 -4,4"/>
<g id="clust1" class="cluster">
<title>cluster_cmd</title>
<polygon fill="none" stroke="black" points="92.34,-8 92.34,-1001 246.93,-1001 246.93,-8 92.34,-8"/>
<text text-anchor="middle" x="169.64" y="-985.8" font-family="Times-Roman" font-size="14.00">diagram generators</text>
</g>
<!-- dot -->
<g id="node1" class="node">
<title>dot</title>
<ellipse fill="none" stroke="black" cx="169.14" cy="-952" rx="27" ry="18"/>
<text text-anchor="middle" x="169.14" y="-948.3" font-family="Times-Roman" font-size="14.00">dot</text>
</g>
<!-- GraphViz -->
<g id="node20" class="node">
<title>GraphViz</title>
<polygon fill="none" stroke="black" points="360.93,-781 280.93,-781 280.93,-745 360.93,-745 360.93,-781"/>
<text text-anchor="middle" x="320.93" y="-759.3" font-family="Times-Roman" font-size="14.00">GraphViz</text>
</g>
<!-- dot&#45;&gt;GraphViz -->
<g id="edge19" class="edge">
<title>dot&#45;&gt;GraphViz</title>
<path fill="none" stroke="black" d="M195.61,-948.33C211.98,-944.81 232.77,-938 246.93,-925 286.54,-888.64 306.05,-826.69 314.47,-790.86"/>
<polygon fill="black" stroke="black" points="317.9,-791.58 316.65,-781.06 311.06,-790.06 317.9,-791.58"/>
</g>
<!-- neato -->
<g id="node2" class="node">
<title>neato</title>
<ellipse fill="none" stroke="black" cx="169.14" cy="-898" rx="36.29" ry="18"/>
<text text-anchor="middle" x="169.14" y="-894.3" font-family="Times-Roman" font-size="14.00">neato</text>
</g>
<!-- neato&#45;&gt;GraphViz -->
<g id="edge20" class="edge">
<title>neato&#45;&gt;GraphViz</title>
<path fill="none" stroke="black" d="M203.03,-891.38C217.55,-887.27 234.18,-880.84 246.93,-871 274.61,-849.64 295.47,-814.73 307.66,-790.4"/>
<polygon fill="black" stroke="black" points="310.84,-791.85 312.05,-781.33 304.54,-788.8 310.84,-791.85"/>
</g>
<!-- twopi -->
<g id="node3" class="node">
<title>twopi</title>
<ellipse fill="none" stroke="black" cx="169.14" cy="-844" rx="35.19" ry="18"/>
<text text-anchor="middle" x="169.14" y="-840.3" font-family="Times-Roman" font-size="14.00">twopi</text>
</g>
<!-- twopi&#45;&gt;GraphViz -->
<g id="edge21" class="edge">
<title>twopi&#45;&gt;GraphViz</title>
<path fill="none" stroke="black" d="M200.55,-835.61C215.03,-831.05 232.32,-824.75 246.93,-817 262.35,-808.82 278.09,-797.62 290.99,-787.53"/>
<polygon fill="black" stroke="black" points="293.4,-790.09 299.02,-781.11 289.03,-784.62 293.4,-790.09"/>
</g>
<!-- circo -->
<g id="node4" class="node">
<title>circo</title>
<ellipse fill="none" stroke="black" cx="169.14" cy="-790" rx="31.7" ry="18"/>
<text text-anchor="middle" x="169.14" y="-786.3" font-family="Times-Roman" font-size="14.00">circo</text>
</g>
<!-- circo&#45;&gt;GraphViz -->
<g id="edge22" class="edge">
<title>circo&#45;&gt;GraphViz</title>
<path fill="none" stroke="black" d="M199.73,-784.67C219.93,-781.02 247.18,-776.11 270.62,-771.89"/>
<polygon fill="black" stroke="black" points="271.52,-775.28 280.74,-770.06 270.28,-768.39 271.52,-775.28"/>
</g>
<!-- fdp -->
<g id="node5" class="node">
<title>fdp</title>
<ellipse fill="none" stroke="black" cx="169.14" cy="-736" rx="27" ry="18"/>
<text text-anchor="middle" x="169.14" y="-732.3" font-family="Times-Roman" font-size="14.00">fdp</text>
</g>
<!-- fdp&#45;&gt;GraphViz -->
<g id="edge23" class="edge">
<title>fdp&#45;&gt;GraphViz</title>
<path fill="none" stroke="black" d="M195.55,-740.58C216.09,-744.28 245.62,-749.61 270.75,-754.14"/>
<polygon fill="black" stroke="black" points="270.39,-757.63 280.85,-755.96 271.63,-750.74 270.39,-757.63"/>
</g>
<!-- sfdp -->
<g id="node6" class="node">
<title>sfdp</title>
<ellipse fill="none" stroke="black" cx="169.14" cy="-682" rx="30.59" ry="18"/>
<text text-anchor="middle" x="169.14" y="-678.3" font-family="Times-Roman" font-size="14.00">sfdp</text>
</g>
<!-- sfdp&#45;&gt;GraphViz -->
<g id="edge24" class="edge">
<title>sfdp&#45;&gt;GraphViz</title>
<path fill="none" stroke="black" d="M197.26,-689.36C212.35,-693.99 231.2,-700.66 246.93,-709 262.35,-717.18 278.09,-728.38 290.99,-738.47"/>
<polygon fill="black" stroke="black" points="289.03,-741.38 299.02,-744.89 293.4,-735.91 289.03,-741.38"/>
</g>
<!-- patchwork -->
<g id="node7" class="node">
<title>patchwork</title>
<ellipse fill="none" stroke="black" cx="169.14" cy="-628" rx="57.69" ry="18"/>
<text text-anchor="middle" x="169.14" y="-624.3" font-family="Times-Roman" font-size="14.00">patchwork</text>
</g>
<!-- patchwork&#45;&gt;GraphViz -->
<g id="edge25" class="edge">
<title>patchwork&#45;&gt;GraphViz</title>
<path fill="none" stroke="black" d="M216.03,-638.8C226.85,-642.74 237.87,-648.01 246.93,-655 274.61,-676.36 295.47,-711.27 307.66,-735.6"/>
<polygon fill="black" stroke="black" points="304.54,-737.2 312.05,-744.67 310.84,-734.15 304.54,-737.2"/>
</g>
<!-- osage -->
<g id="node8" class="node">
<title>osage</title>
<ellipse fill="none" stroke="black" cx="169.14" cy="-574" rx="37.89" ry="18"/>
<text text-anchor="middle" x="169.14" y="-570.3" font-family="Times-Roman" font-size="14.00">osage</text>
</g>
<!-- osage&#45;&gt;GraphViz -->
<g id="edge26" class="edge">
<title>osage&#45;&gt;GraphViz</title>
<path fill="none" stroke="black" d="M205.02,-579.96C219.4,-583.91 235.38,-590.39 246.93,-601 286.54,-637.36 306.05,-699.31 314.47,-735.14"/>
<polygon fill="black" stroke="black" points="311.06,-735.94 316.65,-744.94 317.9,-734.42 311.06,-735.94"/>
</g>
<!-- uml -->
<g id="node9" class="node">
<title>uml</title>
<ellipse fill="none" stroke="black" cx="169.14" cy="-520" rx="27.9" ry="18"/>
<text text-anchor="middle" x="169.14" y="-516.3" font-family="Times-Roman" font-size="14.00">uml</text>
</g>
<!-- PlantUML -->
<g id="node21" class="node">
<title>PlantUML</title>
<polygon fill="none" stroke="black" points="361.43,-538 280.43,-538 280.43,-502 361.43,-502 361.43,-538"/>
<text text-anchor="middle" x="320.93" y="-516.3" font-family="Times-Roman" font-size="14.00">PlantUML</text>
</g>
<!-- uml&#45;&gt;PlantUML -->
<g id="edge27" class="edge">
<title>uml&#45;&gt;PlantUML</title>
<path fill="none" stroke="black" d="M197.26,-520C217.55,-520 245.86,-520 270.18,-520"/>
<polygon fill="black" stroke="black" points="270.32,-523.5 280.32,-520 270.32,-516.5 270.32,-523.5"/>
</g>
<!-- ditaa -->
<g id="node10" class="node">
<title>ditaa</title>
<ellipse fill="none" stroke="black" cx="169.14" cy="-466" rx="33.29" ry="18"/>
<text text-anchor="middle" x="169.14" y="-462.3" font-family="Times-Roman" font-size="14.00">ditaa</text>
</g>
<!-- DITAA -->
<g id="node22" class="node">
<title>DITAA</title>
<polygon fill="none" stroke="black" points="347.93,-484 293.93,-484 293.93,-448 347.93,-448 347.93,-484"/>
<text text-anchor="middle" x="320.93" y="-462.3" font-family="Times-Roman" font-size="14.00">ditaa</text>
</g>
<!-- ditaa&#45;&gt;DITAA -->
<g id="edge28" class="edge">
<title>ditaa&#45;&gt;DITAA</title>
<path fill="none" stroke="black" d="M202.64,-466C226.43,-466 258.73,-466 283.41,-466"/>
<polygon fill="black" stroke="black" points="283.48,-469.5 293.48,-466 283.48,-462.5 283.48,-469.5"/>
</g>
<!-- blockdiag -->
<g id="node11" class="node">
<title>blockdiag</title>
<ellipse fill="none" stroke="black" cx="169.14" cy="-412" rx="53.89" ry="18"/>
<text text-anchor="middle" x="169.14" y="-408.3" font-family="Times-Roman" font-size="14.00">blockdiag</text>
</g>
<!-- BlockDiag -->
<g id="node23" class="node">
<title>BlockDiag</title>
<polygon fill="none" stroke="black" points="362.43,-295 279.43,-295 279.43,-259 362.43,-259 362.43,-295"/>
<text text-anchor="middle" x="320.93" y="-273.3" font-family="Times-Roman" font-size="14.00">blockdiag</text>
</g>
<!-- blockdiag&#45;&gt;BlockDiag -->
<g id="edge29" class="edge">
<title>blockdiag&#45;&gt;BlockDiag</title>
<path fill="none" stroke="black" d="M214.02,-401.92C225.48,-397.91 237.31,-392.43 246.93,-385 274.61,-363.64 295.47,-328.73 307.66,-304.4"/>
<polygon fill="black" stroke="black" points="310.84,-305.85 312.05,-295.33 304.54,-302.8 310.84,-305.85"/>
</g>
<!-- seqdiag -->
<g id="node12" class="node">
<title>seqdiag</title>
<ellipse fill="none" stroke="black" cx="169.14" cy="-358" rx="46.29" ry="18"/>
<text text-anchor="middle" x="169.14" y="-354.3" font-family="Times-Roman" font-size="14.00">seqdiag</text>
</g>
<!-- seqdiag&#45;&gt;BlockDiag -->
<g id="edge30" class="edge">
<title>seqdiag&#45;&gt;BlockDiag</title>
<path fill="none" stroke="black" d="M207.02,-347.52C219.99,-343.19 234.44,-337.62 246.93,-331 262.35,-322.82 278.09,-311.62 290.99,-301.53"/>
<polygon fill="black" stroke="black" points="293.4,-304.09 299.02,-295.11 289.03,-298.62 293.4,-304.09"/>
</g>
<!-- actdiag -->
<g id="node13" class="node">
<title>actdiag</title>
<ellipse fill="none" stroke="black" cx="169.14" cy="-304" rx="44.39" ry="18"/>
<text text-anchor="middle" x="169.14" y="-300.3" font-family="Times-Roman" font-size="14.00">actdiag</text>
</g>
<!-- actdiag&#45;&gt;BlockDiag -->
<g id="edge31" class="edge">
<title>actdiag&#45;&gt;BlockDiag</title>
<path fill="none" stroke="black" d="M209.88,-296.84C228.12,-293.55 249.94,-289.62 269.33,-286.12"/>
<polygon fill="black" stroke="black" points="269.99,-289.56 279.21,-284.34 268.75,-282.67 269.99,-289.56"/>
</g>
<!-- nwdiag -->
<g id="node14" class="node">
<title>nwdiag</title>
<ellipse fill="none" stroke="black" cx="169.14" cy="-250" rx="43.59" ry="18"/>
<text text-anchor="middle" x="169.14" y="-246.3" font-family="Times-Roman" font-size="14.00">nwdiag</text>
</g>
<!-- nwdiag&#45;&gt;BlockDiag -->
<g id="edge32" class="edge">
<title>nwdiag&#45;&gt;BlockDiag</title>
<path fill="none" stroke="black" d="M209.49,-257.09C227.8,-260.39 249.79,-264.36 269.32,-267.88"/>
<polygon fill="black" stroke="black" points="268.81,-271.34 279.27,-269.67 270.05,-264.45 268.81,-271.34"/>
</g>
<!-- rackdiag -->
<g id="node15" class="node">
<title>rackdiag</title>
<ellipse fill="none" stroke="black" cx="169.14" cy="-196" rx="50.09" ry="18"/>
<text text-anchor="middle" x="169.14" y="-192.3" font-family="Times-Roman" font-size="14.00">rackdiag</text>
</g>
<!-- rackdiag&#45;&gt;BlockDiag -->
<g id="edge33" class="edge">
<title>rackdiag&#45;&gt;BlockDiag</title>
<path fill="none" stroke="black" d="M208.98,-207.14C221.43,-211.37 235.07,-216.71 246.93,-223 262.35,-231.18 278.09,-242.38 290.99,-252.47"/>
<polygon fill="black" stroke="black" points="289.03,-255.38 299.02,-258.89 293.4,-249.91 289.03,-255.38"/>
</g>
<!-- packetdiag -->
<g id="node16" class="node">
<title>packetdiag</title>
<ellipse fill="none" stroke="black" cx="169.14" cy="-142" rx="59.59" ry="18"/>
<text text-anchor="middle" x="169.14" y="-138.3" font-family="Times-Roman" font-size="14.00">packetdiag</text>
</g>
<!-- packetdiag&#45;&gt;BlockDiag -->
<g id="edge34" class="edge">
<title>packetdiag&#45;&gt;BlockDiag</title>
<path fill="none" stroke="black" d="M216.83,-153.09C227.39,-157 238.09,-162.18 246.93,-169 274.61,-190.36 295.47,-225.27 307.66,-249.6"/>
<polygon fill="black" stroke="black" points="304.54,-251.2 312.05,-258.67 310.84,-248.15 304.54,-251.2"/>
</g>
<!-- asy -->
<g id="node17" class="node">
<title>asy</title>
<ellipse fill="none" stroke="black" cx="169.14" cy="-88" rx="27" ry="18"/>
<text text-anchor="middle" x="169.14" y="-84.3" font-family="Times-Roman" font-size="14.00">asy</text>
</g>
<!-- Asymptote -->
<g id="node24" class="node">
<title>Asymptote</title>
<polygon fill="none" stroke="black" points="366.93,-106 274.93,-106 274.93,-70 366.93,-70 366.93,-106"/>
<text text-anchor="middle" x="320.93" y="-84.3" font-family="Times-Roman" font-size="14.00">Asymptote</text>
</g>
<!-- asy&#45;&gt;Asymptote -->
<g id="edge35" class="edge">
<title>asy&#45;&gt;Asymptote</title>
<path fill="none" stroke="black" d="M196.23,-88C215.07,-88 241.2,-88 264.6,-88"/>
<polygon fill="black" stroke="black" points="264.77,-91.5 274.77,-88 264.77,-84.5 264.77,-91.5"/>
</g>
<!-- Rplot -->
<g id="node18" class="node">
<title>Rplot</title>
<ellipse fill="none" stroke="black" cx="169.14" cy="-34" rx="34.39" ry="18"/>
<text text-anchor="middle" x="169.14" y="-30.3" font-family="Times-Roman" font-size="14.00">Rplot</text>
</g>
<!-- Rscript -->
<g id="node25" class="node">
<title>Rscript</title>
<polygon fill="none" stroke="black" points="353.43,-52 288.43,-52 288.43,-16 353.43,-16 353.43,-52"/>
<text text-anchor="middle" x="320.93" y="-30.3" font-family="Times-Roman" font-size="14.00">Rscript</text>
</g>
<!-- Rplot&#45;&gt;Rscript -->
<g id="edge36" class="edge">
<title>Rplot&#45;&gt;Rscript</title>
<path fill="none" stroke="black" d="M203.75,-34C225.77,-34 254.7,-34 278.19,-34"/>
<polygon fill="black" stroke="black" points="278.22,-37.5 288.22,-34 278.22,-30.5 278.22,-37.5"/>
</g>
<!-- PP -->
<g id="node19" class="node">
<title>PP</title>
<polygon fill="none" stroke="black" points="32.17,-511 -0.17,-493 32.17,-475 64.51,-493 32.17,-511"/>
<text text-anchor="middle" x="32.17" y="-489.3" font-family="Times-Roman" font-size="14.00">pp</text>
</g>
<!-- PP&#45;&gt;dot -->
<g id="edge1" class="edge">
<title>PP&#45;&gt;dot</title>
<path fill="none" stroke="black" d="M33.22,-510.88C33.79,-584.05 39.47,-859.93 92.34,-925 102.15,-937.07 117.75,-943.75 132.27,-947.44"/>
<polygon fill="black" stroke="black" points="131.54,-950.86 142.05,-949.55 133.01,-944.02 131.54,-950.86"/>
</g>
<!-- PP&#45;&gt;neato -->
<g id="edge2" class="edge">
<title>PP&#45;&gt;neato</title>
<path fill="none" stroke="black" d="M33.6,-510.44C35.58,-577.1 45.83,-814.87 92.34,-871 100.28,-880.58 111.87,-886.76 123.61,-890.75"/>
<polygon fill="black" stroke="black" points="122.84,-894.17 133.42,-893.61 124.8,-887.45 122.84,-894.17"/>
</g>
<!-- PP&#45;&gt;twopi -->
<g id="edge3" class="edge">
<title>PP&#45;&gt;twopi</title>
<path fill="none" stroke="black" d="M34.07,-509.98C37.58,-569.8 52.15,-769.73 92.34,-817 100.69,-826.83 112.88,-833.08 125.05,-837.05"/>
<polygon fill="black" stroke="black" points="124.15,-840.44 134.73,-839.78 126.05,-833.7 124.15,-840.44"/>
</g>
<!-- PP&#45;&gt;circo -->
<g id="edge4" class="edge">
<title>PP&#45;&gt;circo</title>
<path fill="none" stroke="black" d="M34.72,-509.68C39.94,-562.44 58.48,-724.56 92.34,-763 101.46,-773.36 114.84,-779.74 127.82,-783.68"/>
<polygon fill="black" stroke="black" points="127.03,-787.09 137.59,-786.23 128.81,-780.32 127.03,-787.09"/>
</g>
<!-- PP&#45;&gt;fdp -->
<g id="edge5" class="edge">
<title>PP&#45;&gt;fdp</title>
<path fill="none" stroke="black" d="M32.83,-510.69C33.02,-551.23 39.19,-651.71 92.34,-709 102.74,-720.21 118.1,-726.77 132.28,-730.6"/>
<polygon fill="black" stroke="black" points="131.77,-734.08 142.3,-732.94 133.36,-727.26 131.77,-734.08"/>
</g>
<!-- PP&#45;&gt;sfdp -->
<g id="edge6" class="edge">
<title>PP&#45;&gt;sfdp</title>
<path fill="none" stroke="black" d="M34.64,-509.7C38.39,-542.15 51.1,-614.09 92.34,-655 102.38,-664.96 116.32,-671.26 129.52,-675.24"/>
<polygon fill="black" stroke="black" points="128.83,-678.68 139.39,-677.86 130.62,-671.91 128.83,-678.68"/>
</g>
<!-- PP&#45;&gt;patchwork -->
<g id="edge7" class="edge">
<title>PP&#45;&gt;patchwork</title>
<path fill="none" stroke="black" d="M37.6,-508.15C45.12,-531.34 62.57,-575.62 92.34,-601 98.32,-606.1 105.33,-610.26 112.63,-613.65"/>
<polygon fill="black" stroke="black" points="111.4,-616.93 121.98,-617.54 114.09,-610.47 111.4,-616.93"/>
</g>
<!-- PP&#45;&gt;osage -->
<g id="edge8" class="edge">
<title>PP&#45;&gt;osage</title>
<path fill="none" stroke="black" d="M43.43,-504.8C54.46,-516.86 73.03,-535.4 92.34,-547 102.62,-553.18 114.53,-558.25 125.82,-562.26"/>
<polygon fill="black" stroke="black" points="124.93,-565.65 135.53,-565.51 127.16,-559.01 124.93,-565.65"/>
</g>
<!-- PP&#45;&gt;uml -->
<g id="edge9" class="edge">
<title>PP&#45;&gt;uml</title>
<path fill="none" stroke="black" d="M56.37,-497.64C77.21,-501.81 108.14,-508 132.18,-512.81"/>
<polygon fill="black" stroke="black" points="131.52,-516.24 142.01,-514.77 132.89,-509.38 131.52,-516.24"/>
</g>
<!-- PP&#45;&gt;ditaa -->
<g id="edge10" class="edge">
<title>PP&#45;&gt;ditaa</title>
<path fill="none" stroke="black" d="M56.37,-488.36C75.94,-484.44 104.39,-478.75 127.69,-474.09"/>
<polygon fill="black" stroke="black" points="128.53,-477.49 137.65,-472.1 127.16,-470.63 128.53,-477.49"/>
</g>
<!-- PP&#45;&gt;blockdiag -->
<g id="edge11" class="edge">
<title>PP&#45;&gt;blockdiag</title>
<path fill="none" stroke="black" d="M43.43,-481.2C54.46,-469.14 73.03,-450.6 92.34,-439 100.17,-434.3 108.94,-430.24 117.66,-426.8"/>
<polygon fill="black" stroke="black" points="118.9,-430.07 127.06,-423.31 116.47,-423.51 118.9,-430.07"/>
</g>
<!-- PP&#45;&gt;seqdiag -->
<g id="edge12" class="edge">
<title>PP&#45;&gt;seqdiag</title>
<path fill="none" stroke="black" d="M37.6,-477.85C45.12,-454.66 62.57,-410.38 92.34,-385 99.84,-378.61 108.95,-373.69 118.23,-369.92"/>
<polygon fill="black" stroke="black" points="119.7,-373.11 127.89,-366.39 117.3,-366.53 119.7,-373.11"/>
</g>
<!-- PP&#45;&gt;actdiag -->
<g id="edge13" class="edge">
<title>PP&#45;&gt;actdiag</title>
<path fill="none" stroke="black" d="M34.64,-476.3C38.39,-443.85 51.1,-371.91 92.34,-331 99.63,-323.77 108.98,-318.46 118.61,-314.58"/>
<polygon fill="black" stroke="black" points="120.02,-317.79 128.26,-311.14 117.67,-311.2 120.02,-317.79"/>
</g>
<!-- PP&#45;&gt;nwdiag -->
<g id="edge14" class="edge">
<title>PP&#45;&gt;nwdiag</title>
<path fill="none" stroke="black" d="M32.83,-475.31C33.02,-434.77 39.19,-334.29 92.34,-277 99.47,-269.32 108.93,-263.82 118.74,-259.88"/>
<polygon fill="black" stroke="black" points="119.91,-263.18 128.19,-256.57 117.6,-256.58 119.91,-263.18"/>
</g>
<!-- PP&#45;&gt;rackdiag -->
<g id="edge15" class="edge">
<title>PP&#45;&gt;rackdiag</title>
<path fill="none" stroke="black" d="M34.72,-476.32C39.94,-423.56 58.48,-261.44 92.34,-223 98.24,-216.3 105.93,-211.26 114.13,-207.47"/>
<polygon fill="black" stroke="black" points="115.57,-210.67 123.55,-203.7 112.97,-204.17 115.57,-210.67"/>
</g>
<!-- PP&#45;&gt;packetdiag -->
<g id="edge16" class="edge">
<title>PP&#45;&gt;packetdiag</title>
<path fill="none" stroke="black" d="M34.07,-476.02C37.58,-416.2 52.15,-216.27 92.34,-169 96.84,-163.71 102.45,-159.45 108.57,-156.03"/>
<polygon fill="black" stroke="black" points="110.33,-159.07 117.83,-151.59 107.3,-152.76 110.33,-159.07"/>
</g>
<!-- PP&#45;&gt;asy -->
<g id="edge17" class="edge">
<title>PP&#45;&gt;asy</title>
<path fill="none" stroke="black" d="M33.6,-475.56C35.58,-408.9 45.83,-171.13 92.34,-115 102.17,-103.14 117.59,-96.49 131.96,-92.76"/>
<polygon fill="black" stroke="black" points="133.13,-96.09 142.14,-90.53 131.63,-89.25 133.13,-96.09"/>
</g>
<!-- PP&#45;&gt;Rplot -->
<g id="edge18" class="edge">
<title>PP&#45;&gt;Rplot</title>
<path fill="none" stroke="black" d="M33.22,-475.12C33.79,-401.95 39.47,-126.07 92.34,-61 100.61,-50.82 113.01,-44.48 125.4,-40.52"/>
<polygon fill="black" stroke="black" points="126.53,-43.84 135.25,-37.84 124.69,-37.09 126.53,-43.84"/>
</g>
</g>
</svg>
