<?xml version="1.0" encoding="UTF-8" standalone="no"?>
<!DOCTYPE svg PUBLIC "-//W3C//DTD SVG 1.1//EN"
 "http://www.w3.org/Graphics/SVG/1.1/DTD/svg11.dtd">
<!-- Generated by graphviz version 2.40.1 (20161225.0304)
 -->
<!-- Title: %3 Pages: 1 -->
<svg width="242pt" height="169pt"
 viewBox="0.00 0.00 242.00 168.71" xmlns="http://www.w3.org/2000/svg" xmlns:xlink="http://www.w3.org/1999/xlink">
<g id="graph0" class="graph" transform="scale(1 1) rotate(0) translate(4 164.7077)">
<title>%3</title>
<polygon fill="#ffffff" stroke="transparent" points="-4,4 -4,-164.7077 238,-164.7077 238,4 -4,4"/>
<!-- O -->
<g id="node1" class="node">
<title>O</title>
<ellipse fill="none" stroke="#000000" cx="99" cy="-80.3538" rx="27" ry="18"/>
<text text-anchor="middle" x="99" y="-76.6538" font-family="Times,serif" font-size="14.00" fill="#000000">O</text>
</g>
<!-- A -->
<g id="node2" class="node">
<title>A</title>
<ellipse fill="none" stroke="#000000" cx="171" cy="-80.3538" rx="27" ry="18"/>
<text text-anchor="middle" x="171" y="-76.6538" font-family="Times,serif" font-size="14.00" fill="#000000">A</text>
</g>
<!-- O&#45;&gt;A -->
<g id="edge1" class="edge">
<title>O&#45;&gt;A</title>
<path fill="none" stroke="#000000" d="M126.2201,-80.3538C128.6393,-80.3538 131.1149,-80.3538 133.5994,-80.3538"/>
<polygon fill="#000000" stroke="#000000" points="133.7414,-83.8539 143.7414,-80.3538 133.7414,-76.8539 133.7414,-83.8539"/>
</g>
<!-- B -->
<g id="node3" class="node">
<title>B</title>
<ellipse fill="none" stroke="#000000" cx="207" cy="-142.7077" rx="27" ry="18"/>
<text text-anchor="middle" x="207" y="-139.0077" font-family="Times,serif" font-size="14.00" fill="#000000">B</text>
</g>
<!-- O&#45;&gt;B -->
<g id="edge2" class="edge">
<title>O&#45;&gt;B</title>
<path fill="none" stroke="#000000" d="M119.5682,-92.2289C136.008,-101.7204 159.2634,-115.1469 177.6578,-125.7669"/>
<polygon fill="#000000" stroke="#000000" points="176.0981,-128.9079 186.5084,-130.8768 179.5981,-122.8457 176.0981,-128.9079"/>
</g>
<!-- C -->
<g id="node4" class="node">
<title>C</title>
<ellipse fill="none" stroke="#000000" cx="207" cy="-18" rx="27" ry="18"/>
<text text-anchor="middle" x="207" y="-14.3" font-family="Times,serif" font-size="14.00" fill="#000000">C</text>
</g>
<!-- O&#45;&gt;C -->
<g id="edge3" class="edge">
<title>O&#45;&gt;C</title>
<path fill="none" stroke="#000000" d="M119.5682,-68.4788C136.008,-58.9873 159.2634,-45.5608 177.6578,-34.9407"/>
<polygon fill="#000000" stroke="#000000" points="179.5981,-37.862 186.5084,-29.8308 176.0981,-31.7998 179.5981,-37.862"/>
</g>
<!-- D -->
<g id="node5" class="node">
<title>D</title>
<ellipse fill="none" stroke="#000000" cx="27" cy="-80.3538" rx="27" ry="18"/>
<text text-anchor="middle" x="27" y="-76.6538" font-family="Times,serif" font-size="14.00" fill="#000000">D</text>
</g>
<!-- O&#45;&gt;D -->
<g id="edge4" class="edge">
<title>O&#45;&gt;D</title>
<path fill="none" stroke="#000000" d="M73.4128,-73.8613C69.9114,-73.6836 66.2663,-73.5979 62.6262,-73.6042"/>
<polygon fill="#000000" stroke="#000000" points="62.4111,-70.1084 52.5048,-73.8655 62.5919,-77.1061 62.4111,-70.1084"/>
</g>
<!-- A&#45;&gt;B -->
<g id="edge6" class="edge">
<title>A&#45;&gt;B</title>
<path fill="none" stroke="#000000" d="M180.8372,-97.3923C184.3294,-103.4411 188.3418,-110.3906 192.1585,-117.0015"/>
<polygon fill="#000000" stroke="#000000" points="189.1436,-118.7796 197.1747,-125.6898 195.2058,-115.2795 189.1436,-118.7796"/>
</g>
<!-- B&#45;&gt;C -->
<g id="edge7" class="edge">
<title>B&#45;&gt;C</title>
<path fill="none" stroke="#000000" d="M207,-124.5741C207,-104.0706 207,-70.4243 207,-46.4227"/>
<polygon fill="#000000" stroke="#000000" points="210.5001,-46.1554 207,-36.1555 203.5001,-46.1555 210.5001,-46.1554"/>
</g>
<!-- C&#45;&gt;A -->
<g id="edge8" class="edge">
<title>C&#45;&gt;A</title>
<path fill="none" stroke="#000000" d="M197.1628,-35.0385C193.6706,-41.0872 189.6582,-48.0368 185.8415,-54.6476"/>
<polygon fill="#000000" stroke="#000000" points="182.7942,-52.9257 180.8253,-63.336 188.8564,-56.4257 182.7942,-52.9257"/>
</g>
<!-- D&#45;&gt;O -->
<g id="edge5" class="edge">
<title>D&#45;&gt;O</title>
<path fill="none" stroke="#000000" d="M52.5872,-86.8463C56.0886,-87.0241 59.7337,-87.1098 63.3738,-87.1035"/>
<polygon fill="#000000" stroke="#000000" points="63.5889,-90.5992 73.4952,-86.8421 63.4081,-83.6015 63.5889,-90.5992"/>
</g>
</g>
</svg>
