<?xml version="1.0" encoding="UTF-8" standalone="no"?>
<!DOCTYPE svg PUBLIC "-//W3C//DTD SVG 1.1//EN"
 "http://www.w3.org/Graphics/SVG/1.1/DTD/svg11.dtd">
<!-- Generated by graphviz version 2.44.0 (0)
 -->
<!-- Pages: 1 -->
<svg width="387pt" height="403pt"
 viewBox="0.00 0.00 386.93 403.00" xmlns="http://www.w3.org/2000/svg" xmlns:xlink="http://www.w3.org/1999/xlink">
<g id="graph0" class="graph" transform="scale(1 1) rotate(0) translate(4 399)">
<polygon fill="white" stroke="transparent" points="-4,4 -4,-399 382.93,-399 382.93,4 -4,4"/>
<g id="clust1" class="cluster">
<title>cluster_cmd</title>
<polygon fill="none" stroke="black" points="92.34,-8 92.34,-387 227.93,-387 227.93,-8 92.34,-8"/>
<text text-anchor="middle" x="160.14" y="-371.8" font-family="Times-Roman" font-size="14.00">script languages</text>
</g>
<!-- shell -->
<g id="node1" class="node">
<title>shell</title>
<ellipse fill="none" stroke="black" cx="160.14" cy="-308" rx="35.21" ry="48.17"/>
<text text-anchor="middle" x="160.14" y="-326.8" font-family="Times-Roman" font-size="14.00">sh</text>
<text text-anchor="middle" x="160.14" y="-311.8" font-family="Times-Roman" font-size="14.00">bash</text>
<text text-anchor="middle" x="160.14" y="-296.8" font-family="Times-Roman" font-size="14.00">zsh</text>
<text text-anchor="middle" x="160.14" y="-281.8" font-family="Times-Roman" font-size="14.00">fish</text>
</g>
<!-- shellexe -->
<g id="node6" class="node">
<title>shellexe</title>
<polygon fill="none" stroke="black" points="344.43,-342 290.43,-342 290.43,-274 344.43,-274 344.43,-342"/>
<text text-anchor="middle" x="317.43" y="-326.8" font-family="Times-Roman" font-size="14.00">sh</text>
<text text-anchor="middle" x="317.43" y="-311.8" font-family="Times-Roman" font-size="14.00">bash</text>
<text text-anchor="middle" x="317.43" y="-296.8" font-family="Times-Roman" font-size="14.00">zsh</text>
<text text-anchor="middle" x="317.43" y="-281.8" font-family="Times-Roman" font-size="14.00">fish</text>
</g>
<!-- shell&#45;&gt;shellexe -->
<g id="edge5" class="edge">
<title>shell&#45;&gt;shellexe</title>
<path fill="none" stroke="black" d="M195.6,-308C220.73,-308 254.71,-308 280.24,-308"/>
<polygon fill="black" stroke="black" points="280.26,-311.5 290.26,-308 280.26,-304.5 280.26,-311.5"/>
</g>
<!-- script -->
<g id="node2" class="node">
<title>script</title>
<ellipse fill="none" stroke="black" cx="160.14" cy="-183" rx="45.92" ry="58.88"/>
<text text-anchor="middle" x="160.14" y="-209.3" font-family="Times-Roman" font-size="14.00">python</text>
<text text-anchor="middle" x="160.14" y="-194.3" font-family="Times-Roman" font-size="14.00">lua</text>
<text text-anchor="middle" x="160.14" y="-179.3" font-family="Times-Roman" font-size="14.00">haskell</text>
<text text-anchor="middle" x="160.14" y="-164.3" font-family="Times-Roman" font-size="14.00">stack</text>
<text text-anchor="middle" x="160.14" y="-149.3" font-family="Times-Roman" font-size="14.00">Rscript</text>
</g>
<!-- scriptexe -->
<g id="node7" class="node">
<title>scriptexe</title>
<polygon fill="none" stroke="black" points="361.93,-224.5 272.93,-224.5 272.93,-141.5 361.93,-141.5 361.93,-224.5"/>
<text text-anchor="middle" x="317.43" y="-209.3" font-family="Times-Roman" font-size="14.00">python</text>
<text text-anchor="middle" x="317.43" y="-194.3" font-family="Times-Roman" font-size="14.00">lua</text>
<text text-anchor="middle" x="317.43" y="-179.3" font-family="Times-Roman" font-size="14.00">runhaskell</text>
<text text-anchor="middle" x="317.43" y="-164.3" font-family="Times-Roman" font-size="14.00">stack</text>
<text text-anchor="middle" x="317.43" y="-149.3" font-family="Times-Roman" font-size="14.00">Rscript</text>
</g>
<!-- script&#45;&gt;scriptexe -->
<g id="edge6" class="edge">
<title>script&#45;&gt;scriptexe</title>
<path fill="none" stroke="black" d="M206.47,-183C224.06,-183 244.35,-183 262.67,-183"/>
<polygon fill="black" stroke="black" points="262.91,-186.5 272.91,-183 262.91,-179.5 262.91,-186.5"/>
</g>
<!-- cmd -->
<g id="node3" class="node">
<title>cmd</title>
<ellipse fill="none" stroke="black" cx="160.14" cy="-88" rx="30.59" ry="18"/>
<text text-anchor="middle" x="160.14" y="-84.3" font-family="Times-Roman" font-size="14.00">cmd</text>
</g>
<!-- cmdexe -->
<g id="node8" class="node">
<title>cmdexe</title>
<polygon fill="none" stroke="black" points="367.43,-108 267.43,-108 267.43,-70 367.43,-70 367.43,-108"/>
<text text-anchor="middle" x="317.43" y="-92.8" font-family="Times-Roman" font-size="14.00">wine cmd /c</text>
<text text-anchor="middle" x="317.43" y="-77.8" font-family="Times-Roman" font-size="14.00">or cmd /c</text>
</g>
<!-- cmd&#45;&gt;cmdexe -->
<g id="edge7" class="edge">
<title>cmd&#45;&gt;cmdexe</title>
<path fill="none" stroke="black" d="M190.71,-88.19C209.48,-88.31 234.44,-88.47 257.16,-88.62"/>
<polygon fill="black" stroke="black" points="257.4,-92.12 267.42,-88.68 257.44,-85.12 257.4,-92.12"/>
</g>
<!-- powershell -->
<g id="node4" class="node">
<title>powershell</title>
<ellipse fill="none" stroke="black" cx="160.14" cy="-34" rx="59.59" ry="18"/>
<text text-anchor="middle" x="160.14" y="-30.3" font-family="Times-Roman" font-size="14.00">powershell</text>
</g>
<!-- powershellexe -->
<g id="node9" class="node">
<title>powershellexe</title>
<polygon fill="none" stroke="black" points="378.93,-52 255.93,-52 255.93,-14 378.93,-14 378.93,-52"/>
<text text-anchor="middle" x="317.43" y="-36.8" font-family="Times-Roman" font-size="14.00">(Windows only)</text>
<text text-anchor="middle" x="317.43" y="-21.8" font-family="Times-Roman" font-size="14.00">powershell.exe</text>
</g>
<!-- powershell&#45;&gt;powershellexe -->
<g id="edge8" class="edge">
<title>powershell&#45;&gt;powershellexe</title>
<path fill="none" stroke="black" d="M220.29,-33.62C228.58,-33.57 237.16,-33.51 245.64,-33.46"/>
<polygon fill="black" stroke="black" points="245.92,-36.95 255.9,-33.39 245.87,-29.95 245.92,-36.95"/>
</g>
<!-- PP -->
<g id="node5" class="node">
<title>PP</title>
<polygon fill="none" stroke="black" points="32.17,-153 -0.17,-135 32.17,-117 64.51,-135 32.17,-153"/>
<text text-anchor="middle" x="32.17" y="-131.3" font-family="Times-Roman" font-size="14.00">pp</text>
</g>
<!-- PP&#45;&gt;shell -->
<g id="edge1" class="edge">
<title>PP&#45;&gt;shell</title>
<path fill="none" stroke="black" d="M38.46,-149.62C47.28,-172.7 66.57,-218.34 92.34,-251 100.46,-261.29 110.67,-271.1 120.64,-279.59"/>
<polygon fill="black" stroke="black" points="118.59,-282.45 128.54,-286.1 123.05,-277.04 118.59,-282.45"/>
</g>
<!-- PP&#45;&gt;script -->
<g id="edge2" class="edge">
<title>PP&#45;&gt;script</title>
<path fill="none" stroke="black" d="M52.03,-142.19C66.48,-147.69 87.16,-155.57 106.5,-162.94"/>
<polygon fill="black" stroke="black" points="105.26,-166.22 115.85,-166.51 107.75,-159.67 105.26,-166.22"/>
</g>
<!-- PP&#45;&gt;cmd -->
<g id="edge3" class="edge">
<title>PP&#45;&gt;cmd</title>
<path fill="none" stroke="black" d="M52.03,-127.96C71.01,-120.88 100.72,-109.79 124.05,-101.09"/>
<polygon fill="black" stroke="black" points="125.45,-104.3 133.6,-97.53 123.01,-97.74 125.45,-104.3"/>
</g>
<!-- PP&#45;&gt;powershell -->
<g id="edge4" class="edge">
<title>PP&#45;&gt;powershell</title>
<path fill="none" stroke="black" d="M40.77,-121.79C50.74,-105.5 69.65,-77.9 92.34,-61 97.34,-57.27 102.93,-53.97 108.69,-51.08"/>
<polygon fill="black" stroke="black" points="110.21,-54.23 117.81,-46.85 107.27,-47.88 110.21,-54.23"/>
</g>
</g>
</svg>
