<?xml version="1.0" encoding="UTF-8" standalone="no"?>
<!DOCTYPE svg PUBLIC "-//W3C//DTD SVG 1.1//EN"
 "http://www.w3.org/Graphics/SVG/1.1/DTD/svg11.dtd">
<!-- Generated by graphviz version 2.40.1 (0)
 -->
<!-- Title: %3 Pages: 1 -->
<svg width="459pt" height="319pt"
 viewBox="0.00 0.00 458.50 319.38" xmlns="http://www.w3.org/2000/svg" xmlns:xlink="http://www.w3.org/1999/xlink">
<g id="graph0" class="graph" transform="scale(1 1) rotate(0) translate(4 315.3797)">
<title>%3</title>
<polygon fill="#ffffff" stroke="transparent" points="-4,4 -4,-315.3797 454.5,-315.3797 454.5,4 -4,4"/>
<g id="clust1" class="cluster">
<title>cluster_cmd</title>
<polygon fill="none" stroke="#000000" points="8,-111 8,-267.3797 430,-267.3797 430,-111 8,-111"/>
<text text-anchor="middle" x="219" y="-252.1797" font-family="Times,serif" font-size="14.00" fill="#000000">script languages</text>
</g>
<!-- shell -->
<g id="node1" class="node">
<title>shell</title>
<ellipse fill="none" stroke="#000000" cx="51" cy="-177.6899" rx="35.2113" ry="48.1667"/>
<text text-anchor="middle" x="51" y="-196.4899" font-family="Times,serif" font-size="14.00" fill="#000000">sh</text>
<text text-anchor="middle" x="51" y="-181.4899" font-family="Times,serif" font-size="14.00" fill="#000000">bash</text>
<text text-anchor="middle" x="51" y="-166.4899" font-family="Times,serif" font-size="14.00" fill="#000000">zsh</text>
<text text-anchor="middle" x="51" y="-151.4899" font-family="Times,serif" font-size="14.00" fill="#000000">fish</text>
</g>
<!-- shellexe -->
<g id="node6" class="node">
<title>shellexe</title>
<polygon fill="none" stroke="#000000" points="74,-75.5 20,-75.5 20,-7.5 74,-7.5 74,-75.5"/>
<text text-anchor="middle" x="47" y="-60.3" font-family="Times,serif" font-size="14.00" fill="#000000">sh</text>
<text text-anchor="middle" x="47" y="-45.3" font-family="Times,serif" font-size="14.00" fill="#000000">bash</text>
<text text-anchor="middle" x="47" y="-30.3" font-family="Times,serif" font-size="14.00" fill="#000000">zsh</text>
<text text-anchor="middle" x="47" y="-15.3" font-family="Times,serif" font-size="14.00" fill="#000000">fish</text>
</g>
<!-- shell&#45;&gt;shellexe -->
<g id="edge5" class="edge">
<title>shell&#45;&gt;shellexe</title>
<path fill="none" stroke="#000000" d="M49.5785,-129.2909C49.1633,-115.1564 48.7118,-99.783 48.3043,-85.9083"/>
<polygon fill="#000000" stroke="#000000" points="51.7948,-85.5287 48.0026,-75.6358 44.7978,-85.7343 51.7948,-85.5287"/>
</g>
<!-- script -->
<g id="node2" class="node">
<title>script</title>
<ellipse fill="none" stroke="#000000" cx="153" cy="-177.6899" rx="48.5816" ry="58.8803"/>
<text text-anchor="middle" x="153" y="-203.9899" font-family="Times,serif" font-size="14.00" fill="#000000">python</text>
<text text-anchor="middle" x="153" y="-188.9899" font-family="Times,serif" font-size="14.00" fill="#000000">lua</text>
<text text-anchor="middle" x="153" y="-173.9899" font-family="Times,serif" font-size="14.00" fill="#000000">haskell</text>
<text text-anchor="middle" x="153" y="-158.9899" font-family="Times,serif" font-size="14.00" fill="#000000">stack</text>
<text text-anchor="middle" x="153" y="-143.9899" font-family="Times,serif" font-size="14.00" fill="#000000">Rscript</text>
</g>
<!-- scriptexe -->
<g id="node7" class="node">
<title>scriptexe</title>
<polygon fill="none" stroke="#000000" points="184,-83 92,-83 92,0 184,0 184,-83"/>
<text text-anchor="middle" x="138" y="-67.8" font-family="Times,serif" font-size="14.00" fill="#000000">python</text>
<text text-anchor="middle" x="138" y="-52.8" font-family="Times,serif" font-size="14.00" fill="#000000">lua</text>
<text text-anchor="middle" x="138" y="-37.8" font-family="Times,serif" font-size="14.00" fill="#000000">runhaskell</text>
<text text-anchor="middle" x="138" y="-22.8" font-family="Times,serif" font-size="14.00" fill="#000000">stack</text>
<text text-anchor="middle" x="138" y="-7.8" font-family="Times,serif" font-size="14.00" fill="#000000">Rscript</text>
</g>
<!-- script&#45;&gt;scriptexe -->
<g id="edge6" class="edge">
<title>script&#45;&gt;scriptexe</title>
<path fill="none" stroke="#000000" d="M146.5516,-119.1427C145.6032,-110.532 144.6319,-101.7135 143.7001,-93.2527"/>
<polygon fill="#000000" stroke="#000000" points="147.1609,-92.7045 142.5871,-83.1478 140.203,-93.4709 147.1609,-92.7045"/>
</g>
<!-- cmd -->
<g id="node3" class="node">
<title>cmd</title>
<ellipse fill="none" stroke="#000000" cx="250" cy="-177.6899" rx="30.5947" ry="18"/>
<text text-anchor="middle" x="250" y="-173.9899" font-family="Times,serif" font-size="14.00" fill="#000000">cmd</text>
</g>
<!-- cmdexe -->
<g id="node8" class="node">
<title>cmdexe</title>
<polygon fill="none" stroke="#000000" points="305.5,-60.5 202.5,-60.5 202.5,-22.5 305.5,-22.5 305.5,-60.5"/>
<text text-anchor="middle" x="254" y="-45.3" font-family="Times,serif" font-size="14.00" fill="#000000">wine cmd /c</text>
<text text-anchor="middle" x="254" y="-30.3" font-family="Times,serif" font-size="14.00" fill="#000000">or cmd /c</text>
</g>
<!-- cmd&#45;&gt;cmdexe -->
<g id="edge7" class="edge">
<title>cmd&#45;&gt;cmdexe</title>
<path fill="none" stroke="#000000" d="M250.5312,-159.6049C251.1991,-136.8647 252.354,-97.5413 253.1464,-70.5614"/>
<polygon fill="#000000" stroke="#000000" points="256.6457,-70.6359 253.4409,-60.5374 249.6487,-70.4303 256.6457,-70.6359"/>
</g>
<!-- powershell -->
<g id="node4" class="node">
<title>powershell</title>
<ellipse fill="none" stroke="#000000" cx="360" cy="-177.6899" rx="61.99" ry="18"/>
<text text-anchor="middle" x="360" y="-173.9899" font-family="Times,serif" font-size="14.00" fill="#000000">powershell</text>
</g>
<!-- powershellexe -->
<g id="node9" class="node">
<title>powershellexe</title>
<polygon fill="none" stroke="#000000" points="450.5,-60.5 323.5,-60.5 323.5,-22.5 450.5,-22.5 450.5,-60.5"/>
<text text-anchor="middle" x="387" y="-45.3" font-family="Times,serif" font-size="14.00" fill="#000000">(Windows only)</text>
<text text-anchor="middle" x="387" y="-30.3" font-family="Times,serif" font-size="14.00" fill="#000000">powershell.exe</text>
</g>
<!-- powershell&#45;&gt;powershellexe -->
<g id="edge8" class="edge">
<title>powershell&#45;&gt;powershellexe</title>
<path fill="none" stroke="#000000" d="M363.5854,-159.6049C368.0937,-136.8647 375.8897,-97.5413 381.2385,-70.5614"/>
<polygon fill="#000000" stroke="#000000" points="384.7142,-71.0272 383.2258,-60.5374 377.8478,-69.6658 384.7142,-71.0272"/>
</g>
<!-- PP -->
<g id="node5" class="node">
<title>PP</title>
<polygon fill="none" stroke="#000000" points="201,-311.3797 168.6581,-293.3797 201,-275.3797 233.3419,-293.3797 201,-311.3797"/>
<text text-anchor="middle" x="201" y="-289.6797" font-family="Times,serif" font-size="14.00" fill="#000000">pp</text>
</g>
<!-- PP&#45;&gt;shell -->
<g id="edge1" class="edge">
<title>PP&#45;&gt;shell</title>
<path fill="none" stroke="#000000" d="M174.957,-289.5746C147.6928,-285.1483 107.1786,-277.1803 95,-267.3797 83.4725,-258.1031 74.7416,-245.0487 68.2236,-231.7647"/>
<polygon fill="#000000" stroke="#000000" points="71.3743,-230.2376 64.0575,-222.575 64.9988,-233.1279 71.3743,-230.2376"/>
</g>
<!-- PP&#45;&gt;script -->
<g id="edge2" class="edge">
<title>PP&#45;&gt;script</title>
<path fill="none" stroke="#000000" d="M194.9208,-278.7275C190.7406,-268.6525 184.8753,-254.5159 178.8534,-240.002"/>
<polygon fill="#000000" stroke="#000000" points="181.9549,-238.3439 174.8898,-230.4487 175.4893,-241.0265 181.9549,-238.3439"/>
</g>
<!-- PP&#45;&gt;cmd -->
<g id="edge3" class="edge">
<title>PP&#45;&gt;cmd</title>
<path fill="none" stroke="#000000" d="M207.2059,-278.7275C215.0925,-260.107 228.8552,-227.613 238.6428,-204.5043"/>
<polygon fill="#000000" stroke="#000000" points="241.8882,-205.8162 242.5654,-195.243 235.4425,-203.0861 241.8882,-205.8162"/>
</g>
<!-- PP&#45;&gt;powershell -->
<g id="edge4" class="edge">
<title>PP&#45;&gt;powershell</title>
<path fill="none" stroke="#000000" d="M227.7736,-289.9964C246.4822,-286.6226 271.3513,-280.0329 290,-267.3797 313.8126,-251.2228 333.1927,-224.4079 345.4732,-204.2985"/>
<polygon fill="#000000" stroke="#000000" points="348.5419,-205.9851 350.6064,-195.5933 342.5121,-202.4295 348.5419,-205.9851"/>
</g>
</g>
</svg>
