<?xml version="1.0" encoding="UTF-8" standalone="no"?>
<!DOCTYPE svg PUBLIC "-//W3C//DTD SVG 1.1//EN"
 "http://www.w3.org/Graphics/SVG/1.1/DTD/svg11.dtd">
<!-- Generated by graphviz version 2.40.1 (20161225.0304)
 -->
<!-- Title: %3 Pages: 1 -->
<svg width="814pt" height="193pt"
 viewBox="0.00 0.00 813.50 193.00" xmlns="http://www.w3.org/2000/svg" xmlns:xlink="http://www.w3.org/1999/xlink">
<g id="graph0" class="graph" transform="scale(1 1) rotate(0) translate(4 189)">
<title>%3</title>
<polygon fill="#ffffff" stroke="transparent" points="-4,4 -4,-189 809.5,-189 809.5,4 -4,4"/>
<g id="clust1" class="cluster">
<title>cluster_cmd</title>
<polygon fill="none" stroke="#000000" points="8,-66 8,-141 789,-141 789,-66 8,-66"/>
<text text-anchor="middle" x="398.5" y="-125.8" font-family="Times,serif" font-size="14.00" fill="#000000">script languages</text>
</g>
<!-- bash -->
<g id="node1" class="node">
<title>bash</title>
<ellipse fill="none" stroke="#000000" cx="48" cy="-92" rx="32.4942" ry="18"/>
<text text-anchor="middle" x="48" y="-88.3" font-family="Times,serif" font-size="14.00" fill="#000000">bash</text>
</g>
<!-- Bash -->
<g id="node10" class="node">
<title>Bash</title>
<polygon fill="none" stroke="#000000" points="75,-37 21,-37 21,-1 75,-1 75,-37"/>
<text text-anchor="middle" x="48" y="-15.3" font-family="Times,serif" font-size="14.00" fill="#000000">bash</text>
</g>
<!-- bash&#45;&gt;Bash -->
<g id="edge9" class="edge">
<title>bash&#45;&gt;Bash</title>
<path fill="none" stroke="#000000" d="M48,-73.9551C48,-65.8828 48,-56.1764 48,-47.1817"/>
<polygon fill="#000000" stroke="#000000" points="51.5001,-47.0903 48,-37.0904 44.5001,-47.0904 51.5001,-47.0903"/>
</g>
<!-- sh -->
<g id="node2" class="node">
<title>sh</title>
<ellipse fill="none" stroke="#000000" cx="125" cy="-92" rx="27" ry="18"/>
<text text-anchor="middle" x="125" y="-88.3" font-family="Times,serif" font-size="14.00" fill="#000000">sh</text>
</g>
<!-- Sh -->
<g id="node11" class="node">
<title>Sh</title>
<polygon fill="none" stroke="#000000" points="152,-37 98,-37 98,-1 152,-1 152,-37"/>
<text text-anchor="middle" x="125" y="-15.3" font-family="Times,serif" font-size="14.00" fill="#000000">sh</text>
</g>
<!-- sh&#45;&gt;Sh -->
<g id="edge10" class="edge">
<title>sh&#45;&gt;Sh</title>
<path fill="none" stroke="#000000" d="M125,-73.9551C125,-65.8828 125,-56.1764 125,-47.1817"/>
<polygon fill="#000000" stroke="#000000" points="128.5001,-47.0903 125,-37.0904 121.5001,-47.0904 128.5001,-47.0903"/>
</g>
<!-- python -->
<g id="node3" class="node">
<title>python</title>
<ellipse fill="none" stroke="#000000" cx="213" cy="-92" rx="42.7926" ry="18"/>
<text text-anchor="middle" x="213" y="-88.3" font-family="Times,serif" font-size="14.00" fill="#000000">python</text>
</g>
<!-- Python -->
<g id="node12" class="node">
<title>Python</title>
<polygon fill="none" stroke="#000000" points="246,-37 180,-37 180,-1 246,-1 246,-37"/>
<text text-anchor="middle" x="213" y="-15.3" font-family="Times,serif" font-size="14.00" fill="#000000">python</text>
</g>
<!-- python&#45;&gt;Python -->
<g id="edge11" class="edge">
<title>python&#45;&gt;Python</title>
<path fill="none" stroke="#000000" d="M213,-73.9551C213,-65.8828 213,-56.1764 213,-47.1817"/>
<polygon fill="#000000" stroke="#000000" points="216.5001,-47.0903 213,-37.0904 209.5001,-47.0904 216.5001,-47.0903"/>
</g>
<!-- haskell -->
<g id="node4" class="node">
<title>haskell</title>
<ellipse fill="none" stroke="#000000" cx="318" cy="-92" rx="44.393" ry="18"/>
<text text-anchor="middle" x="318" y="-88.3" font-family="Times,serif" font-size="14.00" fill="#000000">haskell</text>
</g>
<!-- Haskell -->
<g id="node13" class="node">
<title>Haskell</title>
<polygon fill="none" stroke="#000000" points="364,-37 272,-37 272,-1 364,-1 364,-37"/>
<text text-anchor="middle" x="318" y="-15.3" font-family="Times,serif" font-size="14.00" fill="#000000">runhaskell</text>
</g>
<!-- haskell&#45;&gt;Haskell -->
<g id="edge12" class="edge">
<title>haskell&#45;&gt;Haskell</title>
<path fill="none" stroke="#000000" d="M318,-73.9551C318,-65.8828 318,-56.1764 318,-47.1817"/>
<polygon fill="#000000" stroke="#000000" points="321.5001,-47.0903 318,-37.0904 314.5001,-47.0904 321.5001,-47.0903"/>
</g>
<!-- stack -->
<g id="node5" class="node">
<title>stack</title>
<ellipse fill="none" stroke="#000000" cx="417" cy="-92" rx="36.2938" ry="18"/>
<text text-anchor="middle" x="417" y="-88.3" font-family="Times,serif" font-size="14.00" fill="#000000">stack</text>
</g>
<!-- Stack -->
<g id="node14" class="node">
<title>Stack</title>
<polygon fill="none" stroke="#000000" points="445,-37 389,-37 389,-1 445,-1 445,-37"/>
<text text-anchor="middle" x="417" y="-15.3" font-family="Times,serif" font-size="14.00" fill="#000000">stack</text>
</g>
<!-- stack&#45;&gt;Stack -->
<g id="edge13" class="edge">
<title>stack&#45;&gt;Stack</title>
<path fill="none" stroke="#000000" d="M417,-73.9551C417,-65.8828 417,-56.1764 417,-47.1817"/>
<polygon fill="#000000" stroke="#000000" points="420.5001,-47.0903 417,-37.0904 413.5001,-47.0904 420.5001,-47.0903"/>
</g>
<!-- Rscript -->
<g id="node6" class="node">
<title>Rscript</title>
<ellipse fill="none" stroke="#000000" cx="516" cy="-92" rx="44.6926" ry="18"/>
<text text-anchor="middle" x="516" y="-88.3" font-family="Times,serif" font-size="14.00" fill="#000000">Rscript</text>
</g>
<!-- Rscriptexe -->
<g id="node15" class="node">
<title>Rscriptexe</title>
<polygon fill="none" stroke="#000000" points="539.5,-37 470.5,-37 470.5,-1 539.5,-1 539.5,-37"/>
<text text-anchor="middle" x="505" y="-15.3" font-family="Times,serif" font-size="14.00" fill="#000000">Rscript</text>
</g>
<!-- Rscript&#45;&gt;Rscriptexe -->
<g id="edge14" class="edge">
<title>Rscript&#45;&gt;Rscriptexe</title>
<path fill="none" stroke="#000000" d="M513.2809,-73.9551C512.0645,-65.8828 510.6019,-56.1764 509.2466,-47.1817"/>
<polygon fill="#000000" stroke="#000000" points="512.677,-46.4572 507.7259,-37.0904 505.7551,-47.5003 512.677,-46.4572"/>
</g>
<!-- cmd -->
<g id="node7" class="node">
<title>cmd</title>
<ellipse fill="none" stroke="#000000" cx="609" cy="-92" rx="30.5947" ry="18"/>
<text text-anchor="middle" x="609" y="-88.3" font-family="Times,serif" font-size="14.00" fill="#000000">cmd</text>
</g>
<!-- Cmd -->
<g id="node16" class="node">
<title>Cmd</title>
<polygon fill="none" stroke="#000000" points="660.5,-38 557.5,-38 557.5,0 660.5,0 660.5,-38"/>
<text text-anchor="middle" x="609" y="-22.8" font-family="Times,serif" font-size="14.00" fill="#000000">wine cmd /c</text>
<text text-anchor="middle" x="609" y="-7.8" font-family="Times,serif" font-size="14.00" fill="#000000">or cmd /c</text>
</g>
<!-- cmd&#45;&gt;Cmd -->
<g id="edge15" class="edge">
<title>cmd&#45;&gt;Cmd</title>
<path fill="none" stroke="#000000" d="M609,-73.9551C609,-66.2107 609,-56.9622 609,-48.2811"/>
<polygon fill="#000000" stroke="#000000" points="612.5001,-48.1128 609,-38.1128 605.5001,-48.1129 612.5001,-48.1128"/>
</g>
<!-- powershell -->
<g id="node8" class="node">
<title>powershell</title>
<ellipse fill="none" stroke="#000000" cx="719" cy="-92" rx="61.99" ry="18"/>
<text text-anchor="middle" x="719" y="-88.3" font-family="Times,serif" font-size="14.00" fill="#000000">powershell</text>
</g>
<!-- PowerShell -->
<g id="node17" class="node">
<title>PowerShell</title>
<polygon fill="none" stroke="#000000" points="805.5,-38 678.5,-38 678.5,0 805.5,0 805.5,-38"/>
<text text-anchor="middle" x="742" y="-22.8" font-family="Times,serif" font-size="14.00" fill="#000000">(Windows only)</text>
<text text-anchor="middle" x="742" y="-7.8" font-family="Times,serif" font-size="14.00" fill="#000000">powershell.exe</text>
</g>
<!-- powershell&#45;&gt;PowerShell -->
<g id="edge16" class="edge">
<title>powershell&#45;&gt;PowerShell</title>
<path fill="none" stroke="#000000" d="M724.6854,-73.9551C727.179,-66.0405 730.1676,-56.5549 732.9545,-47.7096"/>
<polygon fill="#000000" stroke="#000000" points="736.3113,-48.7024 735.9781,-38.1128 729.6348,-46.5988 736.3113,-48.7024"/>
</g>
<!-- PP -->
<g id="node9" class="node">
<title>PP</title>
<polygon fill="none" stroke="#000000" points="367,-185 334.6581,-167 367,-149 399.3419,-167 367,-185"/>
<text text-anchor="middle" x="367" y="-163.3" font-family="Times,serif" font-size="14.00" fill="#000000">pp</text>
</g>
<!-- PP&#45;&gt;bash -->
<g id="edge1" class="edge">
<title>PP&#45;&gt;bash</title>
<path fill="none" stroke="#000000" d="M337.2551,-165.4972C270.0407,-161.9191 110.5914,-152.3412 89,-141 78.8794,-135.684 70.2625,-126.7066 63.5789,-117.8774"/>
<polygon fill="#000000" stroke="#000000" points="66.3767,-115.7708 57.7773,-109.582 60.6404,-119.7827 66.3767,-115.7708"/>
</g>
<!-- PP&#45;&gt;sh -->
<g id="edge2" class="edge">
<title>PP&#45;&gt;sh</title>
<path fill="none" stroke="#000000" d="M336.1027,-166.0577C286.0665,-164.0472 189.9797,-158.0325 161,-141 151.8141,-135.6011 144.2753,-126.8419 138.5128,-118.2117"/>
<polygon fill="#000000" stroke="#000000" points="141.3452,-116.1334 133.1561,-109.411 135.3657,-119.7729 141.3452,-116.1334"/>
</g>
<!-- PP&#45;&gt;python -->
<g id="edge3" class="edge">
<title>PP&#45;&gt;python</title>
<path fill="none" stroke="#000000" d="M340.0752,-163.9117C318.6787,-160.5933 288.5409,-153.9414 265,-141 253.7342,-134.8067 243.0674,-125.5969 234.361,-116.8282"/>
<polygon fill="#000000" stroke="#000000" points="236.6678,-114.1741 227.2489,-109.3228 231.5867,-118.9889 236.6678,-114.1741"/>
</g>
<!-- PP&#45;&gt;haskell -->
<g id="edge4" class="edge">
<title>PP&#45;&gt;haskell</title>
<path fill="none" stroke="#000000" d="M358.2398,-153.5915C351.8345,-143.7874 342.94,-130.1735 335.1418,-118.2375"/>
<polygon fill="#000000" stroke="#000000" points="337.8512,-115.9853 329.4516,-109.5279 331.991,-119.814 337.8512,-115.9853"/>
</g>
<!-- PP&#45;&gt;stack -->
<g id="edge5" class="edge">
<title>PP&#45;&gt;stack</title>
<path fill="none" stroke="#000000" d="M375.939,-153.5915C382.5843,-143.6235 391.8552,-129.7171 399.9065,-117.6402"/>
<polygon fill="#000000" stroke="#000000" points="402.8637,-119.5141 405.4986,-109.2521 397.0394,-115.6312 402.8637,-119.5141"/>
</g>
<!-- PP&#45;&gt;Rscript -->
<g id="edge6" class="edge">
<title>PP&#45;&gt;Rscript</title>
<path fill="none" stroke="#000000" d="M392.8339,-163.3038C412.6741,-159.6876 440.2649,-152.9309 462,-141 473.6175,-134.6228 484.7637,-125.2672 493.8813,-116.4355"/>
<polygon fill="#000000" stroke="#000000" points="496.4798,-118.7856 501.0288,-109.217 491.5057,-113.8604 496.4798,-118.7856"/>
</g>
<!-- PP&#45;&gt;cmd -->
<g id="edge7" class="edge">
<title>PP&#45;&gt;cmd</title>
<path fill="none" stroke="#000000" d="M397.3787,-165.8869C446.5863,-163.628 541.1318,-157.2603 570,-141 579.6626,-135.5574 587.8167,-126.673 594.1304,-117.9535"/>
<polygon fill="#000000" stroke="#000000" points="597.1829,-119.6844 599.8183,-109.4226 591.3587,-115.8012 597.1829,-119.6844"/>
</g>
<!-- PP&#45;&gt;powershell -->
<g id="edge8" class="edge">
<title>PP&#45;&gt;powershell</title>
<path fill="none" stroke="#000000" d="M398.2694,-166.1335C461.7694,-164.0463 603.6452,-157.6243 649,-141 664.5038,-135.3172 679.7595,-125.3123 692.0517,-115.8182"/>
<polygon fill="#000000" stroke="#000000" points="694.4526,-118.3789 700.0548,-109.3864 690.0675,-112.9226 694.4526,-118.3789"/>
</g>
</g>
</svg>
