<?xml version="1.0" encoding="UTF-8" standalone="no"?>
<!DOCTYPE svg PUBLIC "-//W3C//DTD SVG 1.1//EN"
 "http://www.w3.org/Graphics/SVG/1.1/DTD/svg11.dtd">
<!-- Generated by graphviz version 2.40.1 (20161225.0304)
 -->
<!-- Title: %3 Pages: 1 -->
<svg width="861pt" height="193pt"
 viewBox="0.00 0.00 861.00 193.00" xmlns="http://www.w3.org/2000/svg" xmlns:xlink="http://www.w3.org/1999/xlink">
<g id="graph0" class="graph" transform="scale(1 1) rotate(0) translate(4 189)">
<title>%3</title>
<polygon fill="#ffffff" stroke="transparent" points="-4,4 -4,-189 857,-189 857,4 -4,4"/>
<g id="clust1" class="cluster">
<title>cluster_cmd</title>
<polygon fill="none" stroke="#000000" points="8,-66 8,-141 789,-141 789,-66 8,-66"/>
<text text-anchor="middle" x="398.5" y="-125.8" font-family="Times,serif" font-size="14.00" fill="#000000">script languages</text>
</g>
<!-- bash -->
<g id="node1" class="node">
<title>bash</title>
<ellipse fill="none" stroke="#000000" cx="48" cy="-92" rx="32.4942" ry="18"/>
<text text-anchor="middle" x="48" y="-88.3" font-family="Times,serif" font-size="14.00" fill="#000000">bash</text>
</g>
<!-- Bash -->
<g id="node10" class="node">
<title>Bash</title>
<polygon fill="none" stroke="#000000" points="75,-37 21,-37 21,-1 75,-1 75,-37"/>
<text text-anchor="middle" x="48" y="-15.3" font-family="Times,serif" font-size="14.00" fill="#000000">bash</text>
</g>
<!-- bash&#45;&gt;Bash -->
<g id="edge9" class="edge">
<title>bash&#45;&gt;Bash</title>
<path fill="none" stroke="#000000" d="M48,-73.9551C48,-65.8828 48,-56.1764 48,-47.1817"/>
<polygon fill="#000000" stroke="#000000" points="51.5001,-47.0903 48,-37.0904 44.5001,-47.0904 51.5001,-47.0903"/>
</g>
<!-- sh -->
<g id="node2" class="node">
<title>sh</title>
<ellipse fill="none" stroke="#000000" cx="125" cy="-92" rx="27" ry="18"/>
<text text-anchor="middle" x="125" y="-88.3" font-family="Times,serif" font-size="14.00" fill="#000000">sh</text>
</g>
<!-- Sh -->
<g id="node11" class="node">
<title>Sh</title>
<polygon fill="none" stroke="#000000" points="152,-37 98,-37 98,-1 152,-1 152,-37"/>
<text text-anchor="middle" x="125" y="-15.3" font-family="Times,serif" font-size="14.00" fill="#000000">sh</text>
</g>
<!-- sh&#45;&gt;Sh -->
<g id="edge10" class="edge">
<title>sh&#45;&gt;Sh</title>
<path fill="none" stroke="#000000" d="M125,-73.9551C125,-65.8828 125,-56.1764 125,-47.1817"/>
<polygon fill="#000000" stroke="#000000" points="128.5001,-47.0903 125,-37.0904 121.5001,-47.0904 128.5001,-47.0903"/>
</g>
<!-- python -->
<g id="node3" class="node">
<title>python</title>
<ellipse fill="none" stroke="#000000" cx="213" cy="-92" rx="42.7926" ry="18"/>
<text text-anchor="middle" x="213" y="-88.3" font-family="Times,serif" font-size="14.00" fill="#000000">python</text>
</g>
<!-- Python -->
<g id="node12" class="node">
<title>Python</title>
<polygon fill="none" stroke="#000000" points="246,-37 180,-37 180,-1 246,-1 246,-37"/>
<text text-anchor="middle" x="213" y="-15.3" font-family="Times,serif" font-size="14.00" fill="#000000">python</text>
</g>
<!-- python&#45;&gt;Python -->
<g id="edge11" class="edge">
<title>python&#45;&gt;Python</title>
<path fill="none" stroke="#000000" d="M213,-73.9551C213,-65.8828 213,-56.1764 213,-47.1817"/>
<polygon fill="#000000" stroke="#000000" points="216.5001,-47.0903 213,-37.0904 209.5001,-47.0904 216.5001,-47.0903"/>
</g>
<!-- haskell -->
<g id="node4" class="node">
<title>haskell</title>
<ellipse fill="none" stroke="#000000" cx="318" cy="-92" rx="44.393" ry="18"/>
<text text-anchor="middle" x="318" y="-88.3" font-family="Times,serif" font-size="14.00" fill="#000000">haskell</text>
</g>
<!-- Haskell -->
<g id="node14" class="node">
<title>Haskell</title>
<polygon fill="none" stroke="#000000" points="364,-37 272,-37 272,-1 364,-1 364,-37"/>
<text text-anchor="middle" x="318" y="-15.3" font-family="Times,serif" font-size="14.00" fill="#000000">runhaskell</text>
</g>
<!-- haskell&#45;&gt;Haskell -->
<g id="edge13" class="edge">
<title>haskell&#45;&gt;Haskell</title>
<path fill="none" stroke="#000000" d="M318,-73.9551C318,-65.8828 318,-56.1764 318,-47.1817"/>
<polygon fill="#000000" stroke="#000000" points="321.5001,-47.0903 318,-37.0904 314.5001,-47.0904 321.5001,-47.0903"/>
</g>
<!-- stack -->
<g id="node5" class="node">
<title>stack</title>
<ellipse fill="none" stroke="#000000" cx="417" cy="-92" rx="36.2938" ry="18"/>
<text text-anchor="middle" x="417" y="-88.3" font-family="Times,serif" font-size="14.00" fill="#000000">stack</text>
</g>
<!-- Stack -->
<g id="node15" class="node">
<title>Stack</title>
<polygon fill="none" stroke="#000000" points="445,-37 389,-37 389,-1 445,-1 445,-37"/>
<text text-anchor="middle" x="417" y="-15.3" font-family="Times,serif" font-size="14.00" fill="#000000">stack</text>
</g>
<!-- stack&#45;&gt;Stack -->
<g id="edge14" class="edge">
<title>stack&#45;&gt;Stack</title>
<path fill="none" stroke="#000000" d="M417,-73.9551C417,-65.8828 417,-56.1764 417,-47.1817"/>
<polygon fill="#000000" stroke="#000000" points="420.5001,-47.0903 417,-37.0904 413.5001,-47.0904 420.5001,-47.0903"/>
</g>
<!-- Rscript -->
<g id="node6" class="node">
<title>Rscript</title>
<ellipse fill="none" stroke="#000000" cx="516" cy="-92" rx="44.6926" ry="18"/>
<text text-anchor="middle" x="516" y="-88.3" font-family="Times,serif" font-size="14.00" fill="#000000">Rscript</text>
</g>
<!-- Rscriptexe -->
<g id="node16" class="node">
<title>Rscriptexe</title>
<polygon fill="none" stroke="#000000" points="539.5,-37 470.5,-37 470.5,-1 539.5,-1 539.5,-37"/>
<text text-anchor="middle" x="505" y="-15.3" font-family="Times,serif" font-size="14.00" fill="#000000">Rscript</text>
</g>
<!-- Rscript&#45;&gt;Rscriptexe -->
<g id="edge15" class="edge">
<title>Rscript&#45;&gt;Rscriptexe</title>
<path fill="none" stroke="#000000" d="M513.2809,-73.9551C512.0645,-65.8828 510.6019,-56.1764 509.2466,-47.1817"/>
<polygon fill="#000000" stroke="#000000" points="512.677,-46.4572 507.7259,-37.0904 505.7551,-47.5003 512.677,-46.4572"/>
</g>
<!-- cmd -->
<g id="node7" class="node">
<title>cmd</title>
<ellipse fill="none" stroke="#000000" cx="609" cy="-92" rx="30.5947" ry="18"/>
<text text-anchor="middle" x="609" y="-88.3" font-family="Times,serif" font-size="14.00" fill="#000000">cmd</text>
</g>
<!-- Cmd -->
<g id="node17" class="node">
<title>Cmd</title>
<polygon fill="none" stroke="#000000" points="660.5,-38 557.5,-38 557.5,0 660.5,0 660.5,-38"/>
<text text-anchor="middle" x="609" y="-22.8" font-family="Times,serif" font-size="14.00" fill="#000000">wine cmd /c</text>
<text text-anchor="middle" x="609" y="-7.8" font-family="Times,serif" font-size="14.00" fill="#000000">or cmd /c</text>
</g>
<!-- cmd&#45;&gt;Cmd -->
<g id="edge16" class="edge">
<title>cmd&#45;&gt;Cmd</title>
<path fill="none" stroke="#000000" d="M609,-73.9551C609,-66.2107 609,-56.9622 609,-48.2811"/>
<polygon fill="#000000" stroke="#000000" points="612.5001,-48.1128 609,-38.1128 605.5001,-48.1129 612.5001,-48.1128"/>
</g>
<!-- powershell -->
<g id="node8" class="node">
<title>powershell</title>
<ellipse fill="none" stroke="#000000" cx="719" cy="-92" rx="61.99" ry="18"/>
<text text-anchor="middle" x="719" y="-88.3" font-family="Times,serif" font-size="14.00" fill="#000000">powershell</text>
</g>
<!-- PowerShell -->
<g id="node18" class="node">
<title>PowerShell</title>
<polygon fill="none" stroke="#000000" points="805.5,-38 678.5,-38 678.5,0 805.5,0 805.5,-38"/>
<text text-anchor="middle" x="742" y="-22.8" font-family="Times,serif" font-size="14.00" fill="#000000">(Windows only)</text>
<text text-anchor="middle" x="742" y="-7.8" font-family="Times,serif" font-size="14.00" fill="#000000">powershell.exe</text>
</g>
<!-- powershell&#45;&gt;PowerShell -->
<g id="edge17" class="edge">
<title>powershell&#45;&gt;PowerShell</title>
<path fill="none" stroke="#000000" d="M724.6854,-73.9551C727.179,-66.0405 730.1676,-56.5549 732.9545,-47.7096"/>
<polygon fill="#000000" stroke="#000000" points="736.3113,-48.7024 735.9781,-38.1128 729.6348,-46.5988 736.3113,-48.7024"/>
</g>
<!-- PP -->
<g id="node9" class="node">
<title>PP</title>
<polygon fill="none" stroke="#000000" points="368,-185 335.6581,-167 368,-149 400.3419,-167 368,-185"/>
<text text-anchor="middle" x="368" y="-163.3" font-family="Times,serif" font-size="14.00" fill="#000000">pp</text>
</g>
<!-- PP&#45;&gt;bash -->
<g id="edge1" class="edge">
<title>PP&#45;&gt;bash</title>
<path fill="none" stroke="#000000" d="M338.1483,-165.5023C270.6925,-161.9349 110.6703,-152.378 89,-141 78.8785,-135.6857 70.2615,-126.7086 63.5779,-117.8792"/>
<polygon fill="#000000" stroke="#000000" points="66.3757,-115.7725 57.7765,-109.5835 60.6393,-119.7842 66.3757,-115.7725"/>
</g>
<!-- PP&#45;&gt;sh -->
<g id="edge2" class="edge">
<title>PP&#45;&gt;sh</title>
<path fill="none" stroke="#000000" d="M336.9533,-166.0737C286.6752,-164.0867 190.1233,-158.1052 161,-141 151.8125,-135.6038 144.2733,-126.8453 138.511,-118.2147"/>
<polygon fill="#000000" stroke="#000000" points="141.3434,-116.1363 133.1547,-109.4135 135.3637,-119.7755 141.3434,-116.1363"/>
</g>
<!-- PP&#45;&gt;python -->
<g id="edge3" class="edge">
<title>PP&#45;&gt;python</title>
<path fill="none" stroke="#000000" d="M340.8119,-163.9615C319.206,-160.6713 288.7728,-154.033 265,-141 253.727,-134.8198 243.0588,-125.6125 234.3534,-116.8421"/>
<polygon fill="#000000" stroke="#000000" points="236.6603,-114.188 227.2426,-109.3343 231.578,-119.0016 236.6603,-114.188"/>
</g>
<!-- PP&#45;&gt;haskell -->
<g id="edge4" class="edge">
<title>PP&#45;&gt;haskell</title>
<path fill="none" stroke="#000000" d="M359.061,-153.5915C352.4609,-143.6913 343.2708,-129.9061 335.2579,-117.8869"/>
<polygon fill="#000000" stroke="#000000" points="338.1445,-115.907 329.6853,-109.5279 332.3202,-119.7899 338.1445,-115.907"/>
</g>
<!-- PP&#45;&gt;stack -->
<g id="edge5" class="edge">
<title>PP&#45;&gt;stack</title>
<path fill="none" stroke="#000000" d="M376.7602,-153.5915C383.2726,-143.6235 392.3581,-129.7171 400.2484,-117.6402"/>
<polygon fill="#000000" stroke="#000000" points="403.1892,-119.5381 405.7286,-109.2521 397.329,-115.7095 403.1892,-119.5381"/>
</g>
<!-- PP&#45;&gt;Rscript -->
<g id="edge6" class="edge">
<title>PP&#45;&gt;Rscript</title>
<path fill="none" stroke="#000000" d="M393.9692,-163.1785C413.5695,-159.518 440.642,-152.7616 462,-141 473.6089,-134.6071 484.7535,-125.2486 493.8723,-116.419"/>
<polygon fill="#000000" stroke="#000000" points="496.4695,-118.7706 501.0213,-109.2033 491.4967,-113.8438 496.4695,-118.7706"/>
</g>
<!-- PP&#45;&gt;cmd -->
<g id="edge7" class="edge">
<title>PP&#45;&gt;cmd</title>
<path fill="none" stroke="#000000" d="M398.6244,-165.8531C447.6997,-163.5556 541.3538,-157.1471 570,-141 579.6609,-135.5544 587.8147,-126.6694 594.1285,-117.9503"/>
<polygon fill="#000000" stroke="#000000" points="597.1808,-119.6816 599.8168,-109.4199 591.3568,-115.798 597.1808,-119.6816"/>
</g>
<!-- PP&#45;&gt;powershell -->
<g id="edge8" class="edge">
<title>PP&#45;&gt;powershell</title>
<path fill="none" stroke="#000000" d="M399.1587,-166.1252C462.434,-164.0225 603.8073,-157.5732 649,-141 664.5029,-135.3147 679.7585,-125.3094 692.0508,-115.8158"/>
<polygon fill="#000000" stroke="#000000" points="694.4515,-118.3767 700.054,-109.3844 690.0666,-112.9202 694.4515,-118.3767"/>
</g>
<!-- Lua -->
<g id="node13" class="node">
<title>Lua</title>
<polygon fill="none" stroke="#000000" points="853,-110 799,-110 799,-74 853,-74 853,-110"/>
<text text-anchor="middle" x="826" y="-88.3" font-family="Times,serif" font-size="14.00" fill="#000000">lua</text>
</g>
<!-- lua -->
<g id="node19" class="node">
<title>lua</title>
<ellipse fill="none" stroke="#000000" cx="826" cy="-167" rx="27" ry="18"/>
<text text-anchor="middle" x="826" y="-163.3" font-family="Times,serif" font-size="14.00" fill="#000000">lua</text>
</g>
<!-- lua&#45;&gt;Lua -->
<g id="edge12" class="edge">
<title>lua&#45;&gt;Lua</title>
<path fill="none" stroke="#000000" d="M826,-148.8446C826,-140.3401 826,-130.0076 826,-120.4964"/>
<polygon fill="#000000" stroke="#000000" points="829.5001,-120.2481 826,-110.2482 822.5001,-120.2482 829.5001,-120.2481"/>
</g>
</g>
</svg>
