<?xml version="1.0" encoding="UTF-8" standalone="no"?>
<!DOCTYPE svg PUBLIC "-//W3C//DTD SVG 1.1//EN"
 "http://www.w3.org/Graphics/SVG/1.1/DTD/svg11.dtd">
<!-- Generated by graphviz version 5.0.0 (0)
 -->
<!-- Pages: 1 -->
<svg width="394pt" height="403pt"
 viewBox="0.00 0.00 393.83 403.00" xmlns="http://www.w3.org/2000/svg" xmlns:xlink="http://www.w3.org/1999/xlink">
<g id="graph0" class="graph" transform="scale(1 1) rotate(0) translate(4 399)">
<polygon fill="white" stroke="transparent" points="-4,4 -4,-399 389.83,-399 389.83,4 -4,4"/>
<g id="clust1" class="cluster">
<title>cluster_cmd</title>
<polygon fill="none" stroke="black" points="92.34,-8 92.34,-387 231.83,-387 231.83,-8 92.34,-8"/>
<text text-anchor="middle" x="162.09" y="-371.8" font-family="Times,serif" font-size="14.00">script languages</text>
</g>
<!-- shell -->
<g id="node1" class="node">
<title>shell</title>
<ellipse fill="none" stroke="black" cx="162.09" cy="-308" rx="35.21" ry="48.17"/>
<text text-anchor="middle" x="162.09" y="-326.8" font-family="Times,serif" font-size="14.00">sh</text>
<text text-anchor="middle" x="162.09" y="-311.8" font-family="Times,serif" font-size="14.00">bash</text>
<text text-anchor="middle" x="162.09" y="-296.8" font-family="Times,serif" font-size="14.00">zsh</text>
<text text-anchor="middle" x="162.09" y="-281.8" font-family="Times,serif" font-size="14.00">fish</text>
</g>
<!-- shellexe -->
<g id="node6" class="node">
<title>shellexe</title>
<polygon fill="none" stroke="black" points="349.83,-342 295.83,-342 295.83,-274 349.83,-274 349.83,-342"/>
<text text-anchor="middle" x="322.83" y="-326.8" font-family="Times,serif" font-size="14.00">sh</text>
<text text-anchor="middle" x="322.83" y="-311.8" font-family="Times,serif" font-size="14.00">bash</text>
<text text-anchor="middle" x="322.83" y="-296.8" font-family="Times,serif" font-size="14.00">zsh</text>
<text text-anchor="middle" x="322.83" y="-281.8" font-family="Times,serif" font-size="14.00">fish</text>
</g>
<!-- shell&#45;&gt;shellexe -->
<g id="edge5" class="edge">
<title>shell&#45;&gt;shellexe</title>
<path fill="none" stroke="black" d="M197.53,-308C223.61,-308 259.35,-308 285.81,-308"/>
<polygon fill="black" stroke="black" points="285.81,-311.5 295.81,-308 285.81,-304.5 285.81,-311.5"/>
</g>
<!-- script -->
<g id="node2" class="node">
<title>script</title>
<ellipse fill="none" stroke="black" cx="162.09" cy="-183" rx="48.17" ry="58.88"/>
<text text-anchor="middle" x="162.09" y="-209.3" font-family="Times,serif" font-size="14.00">python</text>
<text text-anchor="middle" x="162.09" y="-194.3" font-family="Times,serif" font-size="14.00">lua</text>
<text text-anchor="middle" x="162.09" y="-179.3" font-family="Times,serif" font-size="14.00">haskell</text>
<text text-anchor="middle" x="162.09" y="-164.3" font-family="Times,serif" font-size="14.00">stack</text>
<text text-anchor="middle" x="162.09" y="-149.3" font-family="Times,serif" font-size="14.00">Rscript</text>
</g>
<!-- scriptexe -->
<g id="node7" class="node">
<title>scriptexe</title>
<polygon fill="none" stroke="black" points="368.83,-224.5 276.83,-224.5 276.83,-141.5 368.83,-141.5 368.83,-224.5"/>
<text text-anchor="middle" x="322.83" y="-209.3" font-family="Times,serif" font-size="14.00">python</text>
<text text-anchor="middle" x="322.83" y="-194.3" font-family="Times,serif" font-size="14.00">lua</text>
<text text-anchor="middle" x="322.83" y="-179.3" font-family="Times,serif" font-size="14.00">runhaskell</text>
<text text-anchor="middle" x="322.83" y="-164.3" font-family="Times,serif" font-size="14.00">stack</text>
<text text-anchor="middle" x="322.83" y="-149.3" font-family="Times,serif" font-size="14.00">Rscript</text>
</g>
<!-- script&#45;&gt;scriptexe -->
<g id="edge6" class="edge">
<title>script&#45;&gt;scriptexe</title>
<path fill="none" stroke="black" d="M210.28,-183C227.94,-183 248.15,-183 266.47,-183"/>
<polygon fill="black" stroke="black" points="266.72,-186.5 276.72,-183 266.72,-179.5 266.72,-186.5"/>
</g>
<!-- cmd -->
<g id="node3" class="node">
<title>cmd</title>
<ellipse fill="none" stroke="black" cx="162.09" cy="-88" rx="30.59" ry="18"/>
<text text-anchor="middle" x="162.09" y="-84.3" font-family="Times,serif" font-size="14.00">cmd</text>
</g>
<!-- cmdexe -->
<g id="node8" class="node">
<title>cmdexe</title>
<polygon fill="none" stroke="black" points="373.33,-108 272.33,-108 272.33,-70 373.33,-70 373.33,-108"/>
<text text-anchor="middle" x="322.83" y="-92.8" font-family="Times,serif" font-size="14.00">wine cmd /c</text>
<text text-anchor="middle" x="322.83" y="-77.8" font-family="Times,serif" font-size="14.00">or cmd /c</text>
</g>
<!-- cmd&#45;&gt;cmdexe -->
<g id="edge7" class="edge">
<title>cmd&#45;&gt;cmdexe</title>
<path fill="none" stroke="black" d="M192.94,-88.19C212.35,-88.31 238.32,-88.47 261.87,-88.62"/>
<polygon fill="black" stroke="black" points="262.11,-92.12 272.13,-88.69 262.16,-85.12 262.11,-92.12"/>
</g>
<!-- powershell -->
<g id="node4" class="node">
<title>powershell</title>
<ellipse fill="none" stroke="black" cx="162.09" cy="-34" rx="61.99" ry="18"/>
<text text-anchor="middle" x="162.09" y="-30.3" font-family="Times,serif" font-size="14.00">powershell</text>
</g>
<!-- powershellexe -->
<g id="node9" class="node">
<title>powershellexe</title>
<polygon fill="none" stroke="black" points="385.83,-52 259.83,-52 259.83,-14 385.83,-14 385.83,-52"/>
<text text-anchor="middle" x="322.83" y="-36.8" font-family="Times,serif" font-size="14.00">(Windows only)</text>
<text text-anchor="middle" x="322.83" y="-21.8" font-family="Times,serif" font-size="14.00">powershell.exe</text>
</g>
<!-- powershell&#45;&gt;powershellexe -->
<g id="edge8" class="edge">
<title>powershell&#45;&gt;powershellexe</title>
<path fill="none" stroke="black" d="M224.01,-33.62C232.43,-33.56 241.14,-33.51 249.74,-33.45"/>
<polygon fill="black" stroke="black" points="249.78,-36.95 259.76,-33.39 249.74,-29.95 249.78,-36.95"/>
</g>
<!-- PP -->
<g id="node5" class="node">
<title>PP</title>
<polygon fill="none" stroke="black" points="32.17,-153 -0.17,-135 32.17,-117 64.51,-135 32.17,-153"/>
<text text-anchor="middle" x="32.17" y="-131.3" font-family="Times,serif" font-size="14.00">pp</text>
</g>
<!-- PP&#45;&gt;shell -->
<g id="edge1" class="edge">
<title>PP&#45;&gt;shell</title>
<path fill="none" stroke="black" d="M38.41,-149.66C47.15,-172.81 66.34,-218.53 92.34,-251 100.91,-261.71 111.77,-271.82 122.3,-280.47"/>
<polygon fill="black" stroke="black" points="120.25,-283.31 130.26,-286.79 124.6,-277.83 120.25,-283.31"/>
</g>
<!-- PP&#45;&gt;script -->
<g id="edge2" class="edge">
<title>PP&#45;&gt;script</title>
<path fill="none" stroke="black" d="M52.04,-142.08C66.44,-147.48 87.03,-155.21 106.45,-162.5"/>
<polygon fill="black" stroke="black" points="105.26,-165.79 115.86,-166.03 107.72,-159.24 105.26,-165.79"/>
</g>
<!-- PP&#45;&gt;cmd -->
<g id="edge3" class="edge">
<title>PP&#45;&gt;cmd</title>
<path fill="none" stroke="black" d="M52.32,-127.96C71.8,-120.81 102.42,-109.55 126.22,-100.81"/>
<polygon fill="black" stroke="black" points="127.44,-104.09 135.62,-97.36 125.03,-97.52 127.44,-104.09"/>
</g>
<!-- PP&#45;&gt;powershell -->
<g id="edge4" class="edge">
<title>PP&#45;&gt;powershell</title>
<path fill="none" stroke="black" d="M40.75,-121.75C50.69,-105.42 69.57,-77.79 92.34,-61 97.42,-57.26 103.09,-53.95 108.93,-51.06"/>
<polygon fill="black" stroke="black" points="110.54,-54.17 118.19,-46.85 107.64,-47.8 110.54,-54.17"/>
</g>
</g>
</svg>
