<?xml version="1.0" encoding="UTF-8" standalone="no"?>
<!DOCTYPE svg PUBLIC "-//W3C//DTD SVG 1.1//EN"
 "http://www.w3.org/Graphics/SVG/1.1/DTD/svg11.dtd">
<!-- Generated by graphviz version 2.40.1 (0)
 -->
<!-- Title: %3 Pages: 1 -->
<svg width="395pt" height="403pt"
 viewBox="0.00 0.00 394.83 403.00" xmlns="http://www.w3.org/2000/svg" xmlns:xlink="http://www.w3.org/1999/xlink">
<g id="graph0" class="graph" transform="scale(1 1) rotate(0) translate(4 399)">
<title>%3</title>
<polygon fill="#ffffff" stroke="transparent" points="-4,4 -4,-399 390.8301,-399 390.8301,4 -4,4"/>
<g id="clust1" class="cluster">
<title>cluster_cmd</title>
<polygon fill="none" stroke="#000000" points="92.341,-8 92.341,-387 231.8301,-387 231.8301,-8 92.341,-8"/>
<text text-anchor="middle" x="162.0855" y="-371.8" font-family="Times,serif" font-size="14.00" fill="#000000">script languages</text>
</g>
<!-- shell -->
<g id="node1" class="node">
<title>shell</title>
<ellipse fill="none" stroke="#000000" cx="162.0855" cy="-308" rx="35.2113" ry="48.1667"/>
<text text-anchor="middle" x="162.0855" y="-326.8" font-family="Times,serif" font-size="14.00" fill="#000000">sh</text>
<text text-anchor="middle" x="162.0855" y="-311.8" font-family="Times,serif" font-size="14.00" fill="#000000">bash</text>
<text text-anchor="middle" x="162.0855" y="-296.8" font-family="Times,serif" font-size="14.00" fill="#000000">zsh</text>
<text text-anchor="middle" x="162.0855" y="-281.8" font-family="Times,serif" font-size="14.00" fill="#000000">fish</text>
</g>
<!-- shellexe -->
<g id="node6" class="node">
<title>shellexe</title>
<polygon fill="none" stroke="#000000" points="350.3301,-342 296.3301,-342 296.3301,-274 350.3301,-274 350.3301,-342"/>
<text text-anchor="middle" x="323.3301" y="-326.8" font-family="Times,serif" font-size="14.00" fill="#000000">sh</text>
<text text-anchor="middle" x="323.3301" y="-311.8" font-family="Times,serif" font-size="14.00" fill="#000000">bash</text>
<text text-anchor="middle" x="323.3301" y="-296.8" font-family="Times,serif" font-size="14.00" fill="#000000">zsh</text>
<text text-anchor="middle" x="323.3301" y="-281.8" font-family="Times,serif" font-size="14.00" fill="#000000">fish</text>
</g>
<!-- shell&#45;&gt;shellexe -->
<g id="edge5" class="edge">
<title>shell&#45;&gt;shellexe</title>
<path fill="none" stroke="#000000" d="M197.4713,-308C223.7423,-308 259.4881,-308 286.1726,-308"/>
<polygon fill="#000000" stroke="#000000" points="286.2768,-311.5001 296.2767,-308 286.2767,-304.5001 286.2768,-311.5001"/>
</g>
<!-- script -->
<g id="node2" class="node">
<title>script</title>
<ellipse fill="none" stroke="#000000" cx="162.0855" cy="-183" rx="48.5816" ry="58.8803"/>
<text text-anchor="middle" x="162.0855" y="-209.3" font-family="Times,serif" font-size="14.00" fill="#000000">python</text>
<text text-anchor="middle" x="162.0855" y="-194.3" font-family="Times,serif" font-size="14.00" fill="#000000">lua</text>
<text text-anchor="middle" x="162.0855" y="-179.3" font-family="Times,serif" font-size="14.00" fill="#000000">haskell</text>
<text text-anchor="middle" x="162.0855" y="-164.3" font-family="Times,serif" font-size="14.00" fill="#000000">stack</text>
<text text-anchor="middle" x="162.0855" y="-149.3" font-family="Times,serif" font-size="14.00" fill="#000000">Rscript</text>
</g>
<!-- scriptexe -->
<g id="node7" class="node">
<title>scriptexe</title>
<polygon fill="none" stroke="#000000" points="369.3301,-224.5 277.3301,-224.5 277.3301,-141.5 369.3301,-141.5 369.3301,-224.5"/>
<text text-anchor="middle" x="323.3301" y="-209.3" font-family="Times,serif" font-size="14.00" fill="#000000">python</text>
<text text-anchor="middle" x="323.3301" y="-194.3" font-family="Times,serif" font-size="14.00" fill="#000000">lua</text>
<text text-anchor="middle" x="323.3301" y="-179.3" font-family="Times,serif" font-size="14.00" fill="#000000">runhaskell</text>
<text text-anchor="middle" x="323.3301" y="-164.3" font-family="Times,serif" font-size="14.00" fill="#000000">stack</text>
<text text-anchor="middle" x="323.3301" y="-149.3" font-family="Times,serif" font-size="14.00" fill="#000000">Rscript</text>
</g>
<!-- script&#45;&gt;scriptexe -->
<g id="edge6" class="edge">
<title>script&#45;&gt;scriptexe</title>
<path fill="none" stroke="#000000" d="M210.9018,-183C228.5731,-183 248.6722,-183 266.9412,-183"/>
<polygon fill="#000000" stroke="#000000" points="267.1635,-186.5001 277.1635,-183 267.1634,-179.5001 267.1635,-186.5001"/>
</g>
<!-- cmd -->
<g id="node3" class="node">
<title>cmd</title>
<ellipse fill="none" stroke="#000000" cx="162.0855" cy="-88" rx="30.5947" ry="18"/>
<text text-anchor="middle" x="162.0855" y="-84.3" font-family="Times,serif" font-size="14.00" fill="#000000">cmd</text>
</g>
<!-- cmdexe -->
<g id="node8" class="node">
<title>cmdexe</title>
<polygon fill="none" stroke="#000000" points="374.8301,-108 271.8301,-108 271.8301,-70 374.8301,-70 374.8301,-108"/>
<text text-anchor="middle" x="323.3301" y="-92.8" font-family="Times,serif" font-size="14.00" fill="#000000">wine cmd /c</text>
<text text-anchor="middle" x="323.3301" y="-77.8" font-family="Times,serif" font-size="14.00" fill="#000000">or cmd /c</text>
</g>
<!-- cmd&#45;&gt;cmdexe -->
<g id="edge7" class="edge">
<title>cmd&#45;&gt;cmdexe</title>
<path fill="none" stroke="#000000" d="M192.7939,-88.1904C212.2152,-88.3109 238.0075,-88.4709 261.5343,-88.6168"/>
<polygon fill="#000000" stroke="#000000" points="261.7805,-92.1183 271.8021,-88.6804 261.824,-85.1184 261.7805,-92.1183"/>
</g>
<!-- powershell -->
<g id="node4" class="node">
<title>powershell</title>
<ellipse fill="none" stroke="#000000" cx="162.0855" cy="-34" rx="61.99" ry="18"/>
<text text-anchor="middle" x="162.0855" y="-30.3" font-family="Times,serif" font-size="14.00" fill="#000000">powershell</text>
</g>
<!-- powershellexe -->
<g id="node9" class="node">
<title>powershellexe</title>
<polygon fill="none" stroke="#000000" points="386.8301,-52 259.8301,-52 259.8301,-14 386.8301,-14 386.8301,-52"/>
<text text-anchor="middle" x="323.3301" y="-36.8" font-family="Times,serif" font-size="14.00" fill="#000000">(Windows only)</text>
<text text-anchor="middle" x="323.3301" y="-21.8" font-family="Times,serif" font-size="14.00" fill="#000000">powershell.exe</text>
</g>
<!-- powershell&#45;&gt;powershellexe -->
<g id="edge8" class="edge">
<title>powershell&#45;&gt;powershellexe</title>
<path fill="none" stroke="#000000" d="M223.9657,-33.6162C232.3918,-33.564 241.107,-33.5099 249.7148,-33.4565"/>
<polygon fill="#000000" stroke="#000000" points="249.7686,-36.9564 259.7466,-33.3943 249.7251,-29.9565 249.7686,-36.9564"/>
</g>
<!-- PP -->
<g id="node5" class="node">
<title>PP</title>
<polygon fill="none" stroke="#000000" points="32.1705,-153 -.1714,-135 32.1705,-117 64.5124,-135 32.1705,-153"/>
<text text-anchor="middle" x="32.1705" y="-131.3" font-family="Times,serif" font-size="14.00" fill="#000000">pp</text>
</g>
<!-- PP&#45;&gt;shell -->
<g id="edge1" class="edge">
<title>PP&#45;&gt;shell</title>
<path fill="none" stroke="#000000" d="M37.6738,-150.0559C46.6675,-173.3433 66.1689,-218.7712 92.341,-251 100.9036,-261.5441 111.6847,-271.495 122.1932,-280.0413"/>
<polygon fill="#000000" stroke="#000000" points="120.1114,-282.8568 130.1347,-286.2896 124.4398,-277.3554 120.1114,-282.8568"/>
</g>
<!-- PP&#45;&gt;script -->
<g id="edge2" class="edge">
<title>PP&#45;&gt;script</title>
<path fill="none" stroke="#000000" d="M51.6201,-142.1861C66.037,-147.5127 86.4642,-155.06 105.8386,-162.2183"/>
<polygon fill="#000000" stroke="#000000" points="104.6409,-165.507 115.2341,-165.6897 107.0669,-158.9408 104.6409,-165.507"/>
</g>
<!-- PP&#45;&gt;cmd -->
<g id="edge3" class="edge">
<title>PP&#45;&gt;cmd</title>
<path fill="none" stroke="#000000" d="M51.9018,-127.8617C71.6162,-120.7295 102.3643,-109.6057 126.3745,-100.9193"/>
<polygon fill="#000000" stroke="#000000" points="127.6557,-104.1779 135.8686,-97.4846 125.2743,-97.5954 127.6557,-104.1779"/>
</g>
<!-- PP&#45;&gt;powershell -->
<g id="edge4" class="edge">
<title>PP&#45;&gt;powershell</title>
<path fill="none" stroke="#000000" d="M40.2718,-121.1623C50.5111,-104.7554 69.5749,-77.5551 92.341,-61 97.5096,-57.2415 103.2687,-53.9303 109.2004,-51.0331"/>
<polygon fill="#000000" stroke="#000000" points="110.9109,-54.102 118.6034,-46.8167 108.0467,-47.7147 110.9109,-54.102"/>
</g>
</g>
</svg>
